STARTFONT 2.1
COMMENT
COMMENT Converted from TrueType font "times.ttf" by "ttf2bdf 2.6".
COMMENT
FONT -FreeType-Times New Roman-Medium-R-Normal--33-240-100-100-P-160-ISO10646-1
SIZE 24 100 100
FONTBOUNDINGBOX 55 45 -19 -12
STARTPROPERTIES 22
FOUNDRY "FreeType"
FAMILY_NAME "Times New Roman"
WEIGHT_NAME "Medium"
SLANT "R"
SETWIDTH_NAME "Normal"
ADD_STYLE_NAME ""
PIXEL_SIZE 33
POINT_SIZE 240
RESOLUTION_X 100
RESOLUTION_Y 100
SPACING "P"
AVERAGE_WIDTH 160
CHARSET_REGISTRY "ISO10646"
CHARSET_ENCODING "1"
FONT_ASCENT 29
FONT_DESCENT 7
COPYRIGHT "Typeface © The Monotype Corporation plc. Data © The Monotype Corporation plc/Type Solutions Inc. 1990-1992. All Rights Reserved"
_TTF_FONTFILE "times.ttf"
_TTF_PSNAME "TimesNewRomanPSMT"
_XFREE86_GLYPH_RANGES "32_126 160_383 399 402 416_417 431_432 461_476 506_511 601 710_711 713 728_733 768_769 771 777 803 894 900_906 908 910_929 931_974 1025_1036 1038_1103 1105_1116 1118_1119 1168_1171 1174_1175 1178_1181 1186_1187 1198_1203 1208_1211 1240_1241 1256_1257 1456_1475 1488_1514 1520_1524 1548 1563 1567 1569_1594 1600_1621 1632_1773 1776_1790 7808_7813 7840_7929 8204_8207 8211_8213 8215_8222 8224_8226 8230 8234_8238 8240 8242_8243 8249_8250 8252 8254 8260 8298_8303 8319 8355_8356 8359"
_XFREE86_GLYPH_RANGES "8362_8364 8453 8467 8470 8482 8486 8494 8531_8532 8539_8542 8592_8597 8616 8706 8710 8719 8721_8722 8725 8729_8730 8734_8735 8745 8747 8776 8800_8801 8804_8805 8962 8976 8992_8993 9472 9474 9484 9488 9492 9496 9500 9508 9516 9524 9532 9552_9580 9600 9604 9608 9612 9616_9619 9632_9633 9642_9644 9650 9658 9660 9668 9674_9675 9679 9688_9689 9702 9786_9788 9792 9794 9824 9827 9829_9830 9834_9835 59393_59397 59416 59450 61441_61442 61444_61489 64257_64258 64285_64288 64298_64310"
_XFREE86_GLYPH_RANGES "64312_64316 64318 64320_64321 64323_64324 64326_64433 64467_64487 64508_64511 64606_64610 64830_64831 65010 65152_65276 65532"
ENDPROPERTIES
CHARS 1419
STARTCHAR 0020
ENCODING 32
SWIDTH 240 0
DWIDTH 8 0
BBX 1 1 0 0
BITMAP
00
ENDCHAR
STARTCHAR 0021
ENCODING 33
SWIDTH 330 0
DWIDTH 11 0
BBX 3 22 4 0
BITMAP
40
E0
E0
E0
E0
E0
E0
E0
E0
60
40
40
40
40
40
40
00
00
00
E0
E0
E0
ENDCHAR
STARTCHAR 0022
ENCODING 34
SWIDTH 390 0
DWIDTH 13 0
BBX 9 9 2 13
BITMAP
E380
E380
E380
E380
E380
E380
4100
4100
4100
ENDCHAR
STARTCHAR 0023
ENCODING 35
SWIDTH 510 0
DWIDTH 17 0
BBX 15 23 1 0
BITMAP
0204
0204
0408
0408
0408
0408
0408
0810
FFFE
0810
0810
1020
1020
1020
1020
FFFE
2040
2040
2040
2040
2040
4080
4080
ENDCHAR
STARTCHAR 0024
ENCODING 36
SWIDTH 510 0
DWIDTH 17 0
BBX 14 26 2 -2
BITMAP
0200
0200
0FC0
3278
6218
E218
E208
E208
F200
7A00
7E00
1F00
0FC0
03E0
03F0
0278
023C
021C
821C
821C
C218
C238
F270
3FC0
0200
0200
ENDCHAR
STARTCHAR 0025
ENCODING 37
SWIDTH 810 0
DWIDTH 27 0
BBX 26 22 1 0
BITMAP
1E000800
33000800
61801000
E1C02000
E1C04000
E1C04000
E1C08000
E1C10000
E1C30000
61820000
33841E00
1E083300
00086180
0010E1C0
0020E1C0
0040E1C0
0040E1C0
0080E1C0
0100E1C0
03006180
02003300
04001E00
ENDCHAR
STARTCHAR 0026
ENCODING 38
SWIDTH 750 0
DWIDTH 25 0
BBX 23 22 1 0
BITMAP
00F800
038C00
030600
070600
070600
070E00
070C00
073800
03E1FC
0380F0
07C060
1DC0C0
38E0C0
70F180
707900
F03E00
F01E00
F00E02
F81F86
7C33FC
7FC1F8
1F00F0
ENDCHAR
STARTCHAR 0027
ENCODING 39
SWIDTH 150 0
DWIDTH 5 0
BBX 3 9 1 13
BITMAP
E0
E0
E0
E0
E0
E0
40
40
40
ENDCHAR
STARTCHAR 0028
ENCODING 40
SWIDTH 330 0
DWIDTH 11 0
BBX 9 29 1 -7
BITMAP
0080
0300
0600
0C00
1800
1800
3000
7000
7000
6000
E000
E000
E000
E000
E000
E000
E000
E000
E000
6000
7000
3000
3000
1800
1800
0C00
0600
0300
0080
ENDCHAR
STARTCHAR 0029
ENCODING 41
SWIDTH 330 0
DWIDTH 11 0
BBX 9 29 1 -7
BITMAP
8000
6000
3000
1800
0C00
0C00
0600
0600
0700
0300
0300
0380
0380
0380
0380
0380
0380
0380
0380
0300
0700
0700
0600
0C00
0C00
1800
3000
6000
8000
ENDCHAR
STARTCHAR 002A
ENCODING 42
SWIDTH 450 0
DWIDTH 15 0
BBX 11 14 2 9
BITMAP
0400
0E00
0E00
C460
E4E0
75C0
0F00
1F00
75C0
E4E0
C460
0E00
0E00
0400
ENDCHAR
STARTCHAR 002B
ENCODING 43
SWIDTH 570 0
DWIDTH 19 0
BBX 17 17 1 2
BITMAP
008000
008000
008000
008000
008000
008000
008000
008000
FFFF80
008000
008000
008000
008000
008000
008000
008000
008000
ENDCHAR
STARTCHAR 002C
ENCODING 44
SWIDTH 240 0
DWIDTH 8 0
BBX 5 8 1 -5
BITMAP
70
F8
F8
08
08
10
20
C0
ENDCHAR
STARTCHAR 002D
ENCODING 45
SWIDTH 300 0
DWIDTH 10 0
BBX 8 3 1 6
BITMAP
FF
FF
FF
ENDCHAR
STARTCHAR 002E
ENCODING 46
SWIDTH 240 0
DWIDTH 8 0
BBX 3 3 2 0
BITMAP
E0
E0
E0
ENDCHAR
STARTCHAR 002F
ENCODING 47
SWIDTH 270 0
DWIDTH 9 0
BBX 9 23 0 0
BITMAP
0080
0100
0100
0100
0200
0200
0200
0400
0400
0400
0800
0800
0800
1000
1000
1000
2000
2000
2000
4000
4000
4000
8000
ENDCHAR
STARTCHAR 0030
ENCODING 48
SWIDTH 510 0
DWIDTH 17 0
BBX 14 22 1 0
BITMAP
0780
1C60
1870
3030
7038
7018
6018
E01C
E01C
E01C
E01C
E01C
E01C
E01C
E01C
6018
6038
7038
3030
3870
18E0
0780
ENDCHAR
STARTCHAR 0031
ENCODING 49
SWIDTH 510 0
DWIDTH 17 0
BBX 9 22 4 0
BITMAP
0C00
7C00
FC00
1C00
1C00
1C00
1C00
1C00
1C00
1C00
1C00
1C00
1C00
1C00
1C00
1C00
1C00
1C00
1C00
1C00
1C00
FF80
ENDCHAR
STARTCHAR 0032
ENCODING 50
SWIDTH 510 0
DWIDTH 17 0
BBX 14 22 1 0
BITMAP
0F80
3FE0
3FF0
60F8
4078
8038
8038
0038
0030
0030
0060
0060
00C0
0180
0180
0300
0600
0C04
180C
3FF8
7FF8
FFF8
ENDCHAR
STARTCHAR 0033
ENCODING 51
SWIDTH 510 0
DWIDTH 17 0
BBX 13 22 1 0
BITMAP
0F80
3FE0
61E0
40F0
8070
0070
0060
00E0
00C0
03C0
0FE0
01F0
00F8
0078
0038
0038
0038
0030
0030
E060
F0C0
7F00
ENDCHAR
STARTCHAR 0034
ENCODING 52
SWIDTH 510 0
DWIDTH 17 0
BBX 15 22 1 0
BITMAP
0030
0070
00F0
00F0
0170
0270
0670
0470
0870
1870
1070
2070
6070
C070
FFFE
FFFE
0070
0070
0070
0070
0070
0070
ENDCHAR
STARTCHAR 0035
ENCODING 53
SWIDTH 510 0
DWIDTH 17 0
BBX 12 22 2 0
BITMAP
0FF0
0FE0
1FE0
1000
2000
3C00
7F00
7F80
0FC0
03E0
00E0
0070
0070
0030
0030
0030
0020
0060
0040
E180
FF00
7C00
ENDCHAR
STARTCHAR 0036
ENCODING 54
SWIDTH 510 0
DWIDTH 17 0
BBX 14 22 1 0
BITMAP
003C
01E0
0380
0600
0C00
1C00
3800
7000
7000
77E0
F8F0
E038
E03C
E01C
E01C
E01C
E01C
701C
7018
3830
1C60
07C0
ENDCHAR
STARTCHAR 0037
ENCODING 55
SWIDTH 510 0
DWIDTH 17 0
BBX 15 22 1 0
BITMAP
3FFE
7FFE
7FFC
600C
8018
8018
0018
0030
0030
0030
0060
0060
00E0
00C0
00C0
0180
0180
0180
0300
0300
0700
0600
ENDCHAR
STARTCHAR 0038
ENCODING 56
SWIDTH 510 0
DWIDTH 17 0
BBX 13 22 2 0
BITMAP
0FC0
3860
6030
E038
E038
E038
F030
7870
3CC0
1F80
0F00
0FC0
33E0
71F0
60F0
E078
E038
E038
E038
7030
3860
0F80
ENDCHAR
STARTCHAR 0039
ENCODING 57
SWIDTH 510 0
DWIDTH 17 0
BBX 14 22 1 0
BITMAP
0F80
18E0
3070
6038
E038
E018
E01C
E01C
E01C
F01C
701C
383C
1FF8
0038
0038
0070
00E0
01C0
0380
0700
1E00
F000
ENDCHAR
STARTCHAR 003A
ENCODING 58
SWIDTH 270 0
DWIDTH 9 0
BBX 3 15 3 0
BITMAP
E0
E0
E0
00
00
00
00
00
00
00
00
00
E0
E0
E0
ENDCHAR
STARTCHAR 003B
ENCODING 59
SWIDTH 270 0
DWIDTH 9 0
BBX 5 20 2 -5
BITMAP
E0
E0
E0
00
00
00
00
00
00
00
00
00
70
F8
F8
08
08
10
20
C0
ENDCHAR
STARTCHAR 003C
ENCODING 60
SWIDTH 570 0
DWIDTH 19 0
BBX 17 17 1 3
BITMAP
000080
000300
000C00
003000
01C000
060000
180000
600000
800000
600000
180000
060000
01C000
003000
000C00
000300
000080
ENDCHAR
STARTCHAR 003D
ENCODING 61
SWIDTH 570 0
DWIDTH 19 0
BBX 17 6 1 8
BITMAP
FFFF80
000000
000000
000000
000000
FFFF80
ENDCHAR
STARTCHAR 003E
ENCODING 62
SWIDTH 570 0
DWIDTH 19 0
BBX 17 17 1 3
BITMAP
800000
600000
180000
060000
01C000
003000
000C00
000300
000080
000300
000C00
003000
01C000
060000
180000
600000
800000
ENDCHAR
STARTCHAR 003F
ENCODING 63
SWIDTH 450 0
DWIDTH 15 0
BBX 12 22 2 0
BITMAP
1F80
61C0
40E0
C070
E070
E070
6070
0060
00E0
00C0
0180
0300
0200
0200
0400
0400
0400
0000
0000
0E00
0E00
0E00
ENDCHAR
STARTCHAR 0040
ENCODING 64
SWIDTH 900 0
DWIDTH 30 0
BBX 28 31 1 -8
BITMAP
000FE000
00701C00
01800600
02000100
04000080
080000C0
10000040
3003C640
200E3C20
601C1C20
40381C20
40701820
C0E01820
80E03820
81C03020
81C07040
83807040
8380F040
8381E080
8382E080
83C4E100
41F8E210
40E07C20
20000020
20000040
10000080
08000100
04000200
03000C00
00C03000
003FC000
ENDCHAR
STARTCHAR 0041
ENCODING 65
SWIDTH 690 0
DWIDTH 23 0
BBX 23 22 1 0
BITMAP
001000
003800
003800
003C00
005C00
005C00
008E00
008E00
010E00
010700
020700
020380
020380
040380
07FFC0
0801C0
0801C0
1000E0
1000E0
200070
7000F8
FC03FE
ENDCHAR
STARTCHAR 0042
ENCODING 66
SWIDTH 660 0
DWIDTH 22 0
BBX 20 22 1 0
BITMAP
FFFE00
3C0780
1C03C0
1C01C0
1C00E0
1C00E0
1C00E0
1C01E0
1C01C0
1C0780
1FFE00
1C0380
1C01E0
1C00E0
1C00F0
1C0070
1C0070
1C00F0
1C00E0
1C01E0
3C07C0
FFFE00
ENDCHAR
STARTCHAR 0043
ENCODING 67
SWIDTH 660 0
DWIDTH 22 0
BBX 20 22 1 0
BITMAP
01FC40
0783C0
0E01C0
1C00C0
380060
780060
780020
700020
F00000
F00000
F00000
F00000
F00000
F00000
F00000
780000
780010
3C0020
1E0040
0F8180
07FF00
01FC00
ENDCHAR
STARTCHAR 0044
ENCODING 68
SWIDTH 720 0
DWIDTH 24 0
BBX 22 22 1 0
BITMAP
FFFC00
3C0F80
1C03C0
1C01E0
1C00F0
1C0078
1C0078
1C003C
1C003C
1C003C
1C003C
1C003C
1C003C
1C003C
1C003C
1C0078
1C0078
1C00F0
1C01E0
1C03C0
3C0F80
FFFC00
ENDCHAR
STARTCHAR 0045
ENCODING 69
SWIDTH 600 0
DWIDTH 20 0
BBX 18 22 1 0
BITMAP
FFFF00
3C0300
1C0300
1C0100
1C0100
1C0000
1C0000
1C0800
1C0800
1C1800
1FF800
1C1800
1C0800
1C0800
1C0000
1C0000
1C0040
1C00C0
1C0080
1C0180
3C0380
FFFF00
ENDCHAR
STARTCHAR 0046
ENCODING 70
SWIDTH 540 0
DWIDTH 18 0
BBX 16 22 1 0
BITMAP
FFFF
3C07
1C03
1C01
1C01
1C00
1C00
1C08
1C08
1C18
1FF8
1C18
1C08
1C08
1C00
1C00
1C00
1C00
1C00
1C00
3E00
FF80
ENDCHAR
STARTCHAR 0047
ENCODING 71
SWIDTH 720 0
DWIDTH 24 0
BBX 23 22 1 0
BITMAP
00FE20
0781E0
0E00E0
1C0060
3C0030
380030
780010
700000
F00000
F00000
F003FE
F000F8
F00070
F00070
F00070
780070
780070
3C0070
1E0070
0F0070
07C0E0
00FF80
ENDCHAR
STARTCHAR 0048
ENCODING 72
SWIDTH 720 0
DWIDTH 24 0
BBX 22 22 1 0
BITMAP
FF87FC
3E01F0
1C00E0
1C00E0
1C00E0
1C00E0
1C00E0
1C00E0
1C00E0
1C00E0
1FFFE0
1C00E0
1C00E0
1C00E0
1C00E0
1C00E0
1C00E0
1C00E0
1C00E0
1C00E0
3E01F0
FF87FC
ENDCHAR
STARTCHAR 0049
ENCODING 73
SWIDTH 330 0
DWIDTH 11 0
BBX 9 22 1 0
BITMAP
FF80
3E00
1C00
1C00
1C00
1C00
1C00
1C00
1C00
1C00
1C00
1C00
1C00
1C00
1C00
1C00
1C00
1C00
1C00
1C00
3E00
FF80
ENDCHAR
STARTCHAR 004A
ENCODING 74
SWIDTH 390 0
DWIDTH 13 0
BBX 12 22 1 0
BITMAP
1FF0
07C0
0380
0380
0380
0380
0380
0380
0380
0380
0380
0380
0380
0380
0380
0380
0380
0380
E300
E300
F200
7C00
ENDCHAR
STARTCHAR 004B
ENCODING 75
SWIDTH 690 0
DWIDTH 23 0
BBX 22 22 1 0
BITMAP
FF87F0
3E01C0
1C0100
1C0200
1C0400
1C0800
1C1000
1C2000
1C4000
1D8000
1FC000
1DE000
1CF000
1C7800
1C3C00
1C1E00
1C0F00
1C0780
1C03C0
1C01E0
3E01F0
FF87FC
ENDCHAR
STARTCHAR 004C
ENCODING 76
SWIDTH 600 0
DWIDTH 20 0
BBX 19 22 1 0
BITMAP
FF8000
3E0000
1C0000
1C0000
1C0000
1C0000
1C0000
1C0000
1C0000
1C0000
1C0000
1C0000
1C0000
1C0000
1C0000
1C0000
1C0020
1C0060
1C0040
1C00C0
3C01C0
FFFF80
ENDCHAR
STARTCHAR 004D
ENCODING 77
SWIDTH 870 0
DWIDTH 29 0
BBX 27 22 1 0
BITMAP
FC0007E0
3C000780
1E000F00
1E000F00
1E000F00
17001700
17001700
13802700
13802700
11C04700
11C04700
11C0C700
10E08700
10E08700
10710700
10710700
103A0700
103A0700
103E0700
101C0700
381C0F80
FE083FE0
ENDCHAR
STARTCHAR 004E
ENCODING 78
SWIDTH 720 0
DWIDTH 24 0
BBX 23 22 0 0
BITMAP
FC00FE
3E0038
1F0010
0F0010
0F8010
0BC010
09E010
08F010
08F010
087810
083C10
081E10
080E10
080F10
080790
0803D0
0801F0
0800F0
0800F0
080070
1C0030
7F0010
ENDCHAR
STARTCHAR 004F
ENCODING 79
SWIDTH 720 0
DWIDTH 24 0
BBX 22 22 1 0
BITMAP
00FC00
070380
0E01C0
1C00E0
380070
780078
780078
F00038
F0003C
F0003C
F0003C
F0003C
F0003C
F0003C
F00038
780038
780078
380070
1C00E0
0E01C0
070780
01FC00
ENDCHAR
STARTCHAR 0050
ENCODING 80
SWIDTH 540 0
DWIDTH 18 0
BBX 16 22 1 0
BITMAP
FFF0
3C3C
1C1E
1C0E
1C0F
1C07
1C07
1C0F
1C0F
1C0E
1C3C
1FF8
1C00
1C00
1C00
1C00
1C00
1C00
1C00
1C00
3E00
FF80
ENDCHAR
STARTCHAR 0051
ENCODING 81
SWIDTH 720 0
DWIDTH 24 0
BBX 22 28 1 -6
BITMAP
00FC00
070780
0E01C0
1C00E0
380070
780078
780078
700038
F0003C
F0003C
F0003C
F0003C
F0003C
F0003C
F00038
780078
780078
380070
1C00E0
0E01C0
070380
01FE00
007800
003C00
001E00
000780
0001E0
00003C
ENDCHAR
STARTCHAR 0052
ENCODING 82
SWIDTH 660 0
DWIDTH 22 0
BBX 21 22 1 0
BITMAP
FFF800
3E1E00
1C0F00
1C0700
1C0780
1C0380
1C0380
1C0780
1C0700
1C0F00
1C3C00
1FF000
1C7000
1C7800
1C3800
1C1C00
1C1E00
1C0E00
1C0700
1C0780
3E03C0
FF81F8
ENDCHAR
STARTCHAR 0053
ENCODING 83
SWIDTH 540 0
DWIDTH 18 0
BBX 14 22 2 0
BITMAP
0F88
38F8
7038
E018
E018
E008
F008
F808
7E00
7F00
1FC0
0FE0
03F0
01F8
807C
803C
801C
C01C
C018
E038
F870
8FC0
ENDCHAR
STARTCHAR 0054
ENCODING 84
SWIDTH 630 0
DWIDTH 21 0
BBX 19 22 1 0
BITMAP
FFFFE0
E0E0E0
C0E060
80E020
80E020
00E000
00E000
00E000
00E000
00E000
00E000
00E000
00E000
00E000
00E000
00E000
00E000
00E000
00E000
00E000
01F000
07FC00
ENDCHAR
STARTCHAR 0055
ENCODING 85
SWIDTH 690 0
DWIDTH 23 0
BBX 23 22 0 0
BITMAP
FF80FE
3E0038
1C0010
1C0010
1C0010
1C0010
1C0010
1C0010
1C0010
1C0010
1C0010
1C0010
1C0010
1C0010
1C0010
1C0010
1C0010
1C0020
0E0020
070040
038180
00FE00
ENDCHAR
STARTCHAR 0056
ENCODING 86
SWIDTH 690 0
DWIDTH 23 0
BBX 22 22 1 0
BITMAP
FF81FC
3E0070
1C0020
1C0020
0E0040
0E0040
070080
070080
030080
038100
038100
01C100
01C200
00E200
00E200
00E400
007400
007400
003800
003800
001800
001000
ENDCHAR
STARTCHAR 0057
ENCODING 87
SWIDTH 930 0
DWIDTH 31 0
BBX 29 22 1 0
BITMAP
FE3FC1F8
7C0F0070
380F0020
1C070060
1C070040
1C038040
0E0380C0
0E038080
0E03C080
0707C180
0705C100
0704E100
038CE100
0388F200
03887200
01D07200
01D03C00
01F03C00
00E03C00
00E01800
00601800
00401800
ENDCHAR
STARTCHAR 0058
ENCODING 88
SWIDTH 690 0
DWIDTH 23 0
BBX 23 22 0 0
BITMAP
FFC0FE
3F0038
0F0030
070020
038040
03C080
01C100
00E200
007400
007800
003800
001C00
002E00
004E00
008700
010380
0201C0
0401C0
0C00E0
180070
7800F8
FE03FE
ENDCHAR
STARTCHAR 0059
ENCODING 89
SWIDTH 720 0
DWIDTH 24 0
BBX 22 22 1 0
BITMAP
FF01FC
7C00F0
1C0040
1C00C0
0E0080
070100
070200
038200
01C400
01C400
00E800
007000
007000
007000
007000
007000
007000
007000
007000
007000
00F800
03FE00
ENDCHAR
STARTCHAR 005A
ENCODING 90
SWIDTH 600 0
DWIDTH 20 0
BBX 19 22 0 0
BITMAP
1FFFC0
180380
300700
200700
200E00
001C00
003C00
003800
007000
00E000
00E000
01C000
038000
038000
070000
0E0000
0E0020
1C0020
380060
700040
7000C0
FFFFC0
ENDCHAR
STARTCHAR 005B
ENCODING 91
SWIDTH 330 0
DWIDTH 11 0
BBX 7 29 3 -7
BITMAP
FE
E0
E0
E0
E0
E0
E0
E0
E0
E0
E0
E0
E0
E0
E0
E0
E0
E0
E0
E0
E0
E0
E0
E0
E0
E0
E0
E0
FE
ENDCHAR
STARTCHAR 005C
ENCODING 92
SWIDTH 240 0
DWIDTH 8 0
BBX 8 23 0 0
BITMAP
80
80
40
40
40
20
20
20
10
10
10
10
08
08
08
04
04
04
02
02
02
01
01
ENDCHAR
STARTCHAR 005D
ENCODING 93
SWIDTH 330 0
DWIDTH 11 0
BBX 7 29 1 -7
BITMAP
FE
0E
0E
0E
0E
0E
0E
0E
0E
0E
0E
0E
0E
0E
0E
0E
0E
0E
0E
0E
0E
0E
0E
0E
0E
0E
0E
0E
FE
ENDCHAR
STARTCHAR 005E
ENCODING 94
SWIDTH 450 0
DWIDTH 15 0
BBX 14 11 1 11
BITMAP
0300
0480
0480
0840
0840
1020
2010
2010
4008
4008
8004
ENDCHAR
STARTCHAR 005F
ENCODING 95
SWIDTH 510 0
DWIDTH 17 0
BBX 17 1 0 -7
BITMAP
FFFF80
ENDCHAR
STARTCHAR 0060
ENCODING 96
SWIDTH 300 0
DWIDTH 10 0
BBX 5 5 2 17
BITMAP
E0
70
30
10
08
ENDCHAR
STARTCHAR 0061
ENCODING 97
SWIDTH 450 0
DWIDTH 15 0
BBX 14 15 1 0
BITMAP
0F80
39C0
70E0
70E0
60E0
01E0
06E0
18E0
30E0
60E0
E0E0
E0E0
F1E4
7EF8
3870
ENDCHAR
STARTCHAR 0062
ENCODING 98
SWIDTH 480 0
DWIDTH 16 0
BBX 15 23 0 0
BITMAP
1800
7800
F800
3800
3800
3800
3800
3800
39F0
3BF8
3C3C
381C
381E
380E
380E
380E
380E
380E
380C
381C
3818
3C30
0FC0
ENDCHAR
STARTCHAR 0063
ENCODING 99
SWIDTH 420 0
DWIDTH 14 0
BBX 12 15 1 0
BITMAP
0F80
10E0
2070
6070
6030
C000
C000
E000
E000
E010
F010
7820
7FE0
3FC0
0F00
ENDCHAR
STARTCHAR 0064
ENCODING 100
SWIDTH 480 0
DWIDTH 16 0
BBX 15 23 1 0
BITMAP
0018
0078
00F8
0038
0038
0038
0038
0038
07B8
18F8
3078
7038
6038
E038
E038
E038
E038
E038
F038
7038
7C7E
3FBC
0F30
ENDCHAR
STARTCHAR 0065
ENCODING 101
SWIDTH 420 0
DWIDTH 14 0
BBX 12 15 1 0
BITMAP
0F80
11C0
20E0
4070
C070
FFF0
C000
C000
E000
E010
F010
7820
7FE0
3FC0
0F80
ENDCHAR
STARTCHAR 0066
ENCODING 102
SWIDTH 300 0
DWIDTH 10 0
BBX 14 23 0 0
BITMAP
01F0
0638
0C1C
0C0C
1C00
1C00
1C00
1C00
FFC0
1C00
1C00
1C00
1C00
1C00
1C00
1C00
1C00
1C00
1C00
1C00
1C00
1C00
FF80
ENDCHAR
STARTCHAR 0067
ENCODING 103
SWIDTH 480 0
DWIDTH 16 0
BBX 15 22 1 -7
BITMAP
0FC0
18FE
3070
7038
7038
7038
7038
3830
1C60
0FC0
3000
2000
7000
7FF8
3FFC
200E
4006
4006
C00C
F018
7FF0
1FC0
ENDCHAR
STARTCHAR 0068
ENCODING 104
SWIDTH 480 0
DWIDTH 16 0
BBX 16 23 0 0
BITMAP
1800
7800
F800
3800
3800
3800
3800
3800
38F0
39F8
3A3C
3C1C
381C
381C
381C
381C
381C
381C
381C
381C
381C
381C
FE7F
ENDCHAR
STARTCHAR 0069
ENCODING 105
SWIDTH 270 0
DWIDTH 9 0
BBX 7 23 1 0
BITMAP
38
38
38
00
00
00
00
00
18
78
F8
38
38
38
38
38
38
38
38
38
38
38
FE
ENDCHAR
STARTCHAR 006A
ENCODING 106
SWIDTH 270 0
DWIDTH 9 0
BBX 9 30 -3 -7
BITMAP
0380
0380
0380
0000
0000
0000
0000
0000
0180
0780
0F80
0380
0380
0380
0380
0380
0380
0380
0380
0380
0380
0380
0380
0380
0380
0380
0300
E300
F200
7C00
ENDCHAR
STARTCHAR 006B
ENCODING 107
SWIDTH 510 0
DWIDTH 17 0
BBX 17 23 0 0
BITMAP
180000
780000
F80000
380000
380000
380000
380000
380000
383E00
381800
382000
38C000
398000
3A0000
3F0000
3B8000
39C000
38E000
38E000
387000
383800
381C00
FE3F80
ENDCHAR
STARTCHAR 006C
ENCODING 108
SWIDTH 270 0
DWIDTH 9 0
BBX 7 23 1 0
BITMAP
18
78
F8
38
38
38
38
38
38
38
38
38
38
38
38
38
38
38
38
38
38
38
FE
ENDCHAR
STARTCHAR 006D
ENCODING 109
SWIDTH 750 0
DWIDTH 25 0
BBX 25 15 0 0
BITMAP
18F07800
79F9FC00
FA3F1E00
3C1E0E00
381C0E00
381C0E00
381C0E00
381C0E00
381C0E00
381C0E00
381C0E00
381C0E00
381C0E00
381C0E00
FE7F3F80
ENDCHAR
STARTCHAR 006E
ENCODING 110
SWIDTH 480 0
DWIDTH 16 0
BBX 16 15 0 0
BITMAP
18F0
79F8
FA3C
3C1C
381C
381C
381C
381C
381C
381C
381C
381C
381C
781C
FE7F
ENDCHAR
STARTCHAR 006F
ENCODING 111
SWIDTH 480 0
DWIDTH 16 0
BBX 14 15 1 0
BITMAP
0780
18E0
3070
6038
6038
E01C
E01C
E01C
E01C
E01C
7018
7018
3830
1C60
07C0
ENDCHAR
STARTCHAR 0070
ENCODING 112
SWIDTH 480 0
DWIDTH 16 0
BBX 15 22 0 -7
BITMAP
18F0
7BF8
FE3C
3C1C
381E
380E
380E
380E
380E
380E
380C
381C
3818
3C30
3BE0
3800
3800
3800
3800
3800
3800
FE00
ENDCHAR
STARTCHAR 0071
ENCODING 113
SWIDTH 480 0
DWIDTH 16 0
BBX 15 22 1 -7
BITMAP
0798
1878
3038
7038
6038
E038
E038
E038
E038
E038
F038
7038
7878
3FB8
1E38
0038
0038
0038
0038
0038
0038
00FE
ENDCHAR
STARTCHAR 0072
ENCODING 114
SWIDTH 330 0
DWIDTH 11 0
BBX 11 15 0 0
BITMAP
19C0
7BE0
FCE0
3C00
3800
3800
3800
3800
3800
3800
3800
3800
3800
3800
FE00
ENDCHAR
STARTCHAR 0073
ENCODING 115
SWIDTH 360 0
DWIDTH 12 0
BBX 10 15 1 0
BITMAP
3C80
6380
C180
C080
E080
F000
7C00
3F00
0F80
03C0
81C0
C0C0
C0C0
E180
9E00
ENDCHAR
STARTCHAR 0074
ENCODING 116
SWIDTH 270 0
DWIDTH 9 0
BBX 10 20 -1 0
BITMAP
0400
0400
0C00
1C00
3C00
FF80
1C00
1C00
1C00
1C00
1C00
1C00
1C00
1C00
1C00
1C00
1C00
1C40
1F80
0F00
ENDCHAR
STARTCHAR 0075
ENCODING 117
SWIDTH 510 0
DWIDTH 17 0
BBX 16 15 0 0
BITMAP
F87C
381C
381C
381C
381C
381C
381C
381C
381C
381C
381C
383C
3C5F
1F9E
0F18
ENDCHAR
STARTCHAR 0076
ENCODING 118
SWIDTH 480 0
DWIDTH 16 0
BBX 16 15 0 0
BITMAP
FE1F
3806
1C04
1C04
1C08
0E08
0E08
0710
0710
03A0
03A0
03C0
01C0
01C0
0080
ENDCHAR
STARTCHAR 0077
ENCODING 119
SWIDTH 690 0
DWIDTH 23 0
BBX 23 15 0 0
BITMAP
FC7F1E
781C04
381C08
380E08
1C0E08
1C1E10
1C1710
0E3710
0E23A0
0763A0
0743A0
0741C0
0381C0
0380C0
010080
ENDCHAR
STARTCHAR 0078
ENCODING 120
SWIDTH 480 0
DWIDTH 16 0
BBX 15 15 1 0
BITMAP
FC7E
7818
3830
1C20
0E40
0F80
0700
0380
05C0
0CE0
08E0
1070
2038
603C
F8FE
ENDCHAR
STARTCHAR 0079
ENCODING 121
SWIDTH 480 0
DWIDTH 16 0
BBX 16 22 0 -7
BITMAP
FE0F
7806
3804
1C04
1C08
0E08
0E18
0710
0710
03A0
03A0
01E0
01C0
00C0
0080
0080
0080
0100
0100
7200
7C00
3800
ENDCHAR
STARTCHAR 007A
ENCODING 122
SWIDTH 420 0
DWIDTH 14 0
BBX 13 15 0 0
BITMAP
7FF8
6070
4070
00E0
01C0
0380
0380
0700
0E00
0E00
1C00
3808
7008
7018
FFF8
ENDCHAR
STARTCHAR 007B
ENCODING 123
SWIDTH 480 0
DWIDTH 16 0
BBX 10 29 3 -7
BITMAP
00C0
0700
0E00
0C00
1C00
1C00
1E00
1E00
0E00
0E00
0C00
1800
3000
C000
7000
1800
0C00
0E00
0E00
0E00
1E00
1E00
1C00
1C00
1C00
0C00
0600
0300
00C0
ENDCHAR
STARTCHAR 007C
ENCODING 124
SWIDTH 150 0
DWIDTH 5 0
BBX 1 30 2 -7
BITMAP
80
80
80
80
80
80
80
80
80
80
80
80
80
80
80
80
80
80
80
80
80
80
80
80
80
80
80
80
80
80
ENDCHAR
STARTCHAR 007D
ENCODING 125
SWIDTH 480 0
DWIDTH 16 0
BBX 10 29 3 -7
BITMAP
C000
3000
1800
0C00
0E00
0E00
0E00
1E00
1E00
1C00
1C00
0C00
0600
0300
00C0
0380
0600
0C00
1C00
1C00
1C00
1E00
0E00
0E00
0E00
0C00
1800
3000
C000
ENDCHAR
STARTCHAR 007E
ENCODING 126
SWIDTH 540 0
DWIDTH 18 0
BBX 18 4 0 7
BITMAP
3C0040
438040
807080
801F00
ENDCHAR
STARTCHAR 00A0
ENCODING 160
SWIDTH 240 0
DWIDTH 8 0
BBX 1 1 0 0
BITMAP
00
ENDCHAR
STARTCHAR 00A1
ENCODING 161
SWIDTH 330 0
DWIDTH 11 0
BBX 3 23 4 -7
BITMAP
E0
E0
E0
00
00
00
40
40
40
40
40
40
40
E0
E0
E0
E0
E0
E0
E0
E0
E0
40
ENDCHAR
STARTCHAR 00A2
ENCODING 162
SWIDTH 480 0
DWIDTH 16 0
BBX 12 26 2 -5
BITMAP
0040
0040
0080
0080
0080
0100
0F80
39C0
72E0
62E0
E240
E400
E400
E400
E800
E810
F820
7860
7FC0
3FC0
2F00
2000
4000
4000
4000
8000
ENDCHAR
STARTCHAR 00A3
ENCODING 163
SWIDTH 510 0
DWIDTH 17 0
BBX 15 22 1 0
BITMAP
01F0
0338
061C
0600
0E00
0E00
0E00
0E00
0E00
0E00
7FE0
7FE0
0E00
0E00
0E00
0E00
0C02
7C02
9F86
8FFC
91F8
60F0
ENDCHAR
STARTCHAR 00A4
ENCODING 164
SWIDTH 510 0
DWIDTH 17 0
BBX 14 14 1 4
BITMAP
4788
3870
2010
4008
4008
8004
8004
8004
8004
4008
4008
2010
3870
4788
ENDCHAR
STARTCHAR 00A5
ENCODING 165
SWIDTH 510 0
DWIDTH 17 0
BBX 17 22 0 0
BITMAP
FE1F80
380600
3C0400
1C0400
1C0800
0E0800
0E1000
071000
071000
03A000
03A000
FFFF80
01C000
01C000
01C000
FFFF80
01C000
01C000
01C000
01C000
03E000
0FF800
ENDCHAR
STARTCHAR 00A6
ENCODING 166
SWIDTH 150 0
DWIDTH 5 0
BBX 1 30 2 -7
BITMAP
80
80
80
80
80
80
80
80
80
80
80
80
00
00
00
00
00
00
80
80
80
80
80
80
80
80
80
80
80
80
ENDCHAR
STARTCHAR 00A7
ENCODING 167
SWIDTH 510 0
DWIDTH 17 0
BBX 12 28 3 -6
BITMAP
0F80
38E0
2070
6070
6070
7000
3800
3C00
0E00
3780
63C0
41E0
C0E0
C070
E030
E030
7830
3C20
1E40
0F80
03C0
01C0
00E0
E060
E060
E040
61C0
1F00
ENDCHAR
STARTCHAR 00A8
ENCODING 168
SWIDTH 300 0
DWIDTH 10 0
BBX 8 3 1 18
BITMAP
E7
E7
E7
ENDCHAR
STARTCHAR 00A9
ENCODING 169
SWIDTH 750 0
DWIDTH 25 0
BBX 23 22 1 0
BITMAP
00FE00
030180
0C0060
180030
307E58
21C1C8
4300C4
470044
860002
8E0002
8E0002
8E0002
8E0002
8E0002
470004
4300C4
21C188
207E18
100030
0C0060
030180
00FE00
ENDCHAR
STARTCHAR 00AA
ENCODING 170
SWIDTH 270 0
DWIDTH 9 0
BBX 8 9 0 13
BITMAP
3C
66
46
0E
36
66
C6
CF
76
ENDCHAR
STARTCHAR 00AB
ENCODING 171
SWIDTH 480 0
DWIDTH 16 0
BBX 14 15 1 0
BITMAP
0204
0408
0C18
1830
3870
3060
70E0
E1C0
70E0
3060
3870
1830
0C18
0408
0204
ENDCHAR
STARTCHAR 00AC
ENCODING 172
SWIDTH 570 0
DWIDTH 19 0
BBX 17 7 1 8
BITMAP
FFFF80
000080
000080
000080
000080
000080
000080
ENDCHAR
STARTCHAR 00AD
ENCODING 173
SWIDTH 300 0
DWIDTH 10 0
BBX 8 3 1 6
BITMAP
FF
FF
FF
ENDCHAR
STARTCHAR 00AE
ENCODING 174
SWIDTH 750 0
DWIDTH 25 0
BBX 23 22 1 0
BITMAP
00FE00
030180
0C0060
180030
37FC18
21CE08
41C704
41C704
81C702
81CE02
81F802
81D802
81DC02
81CE02
41CE04
41C704
21C388
27F3D8
100030
0C0060
030180
00FE00
ENDCHAR
STARTCHAR 00AF
ENCODING 175
SWIDTH 510 0
DWIDTH 17 0
BBX 17 1 0 24
BITMAP
FFFF80
ENDCHAR
STARTCHAR 00B0
ENCODING 176
SWIDTH 360 0
DWIDTH 12 0
BBX 10 10 1 12
BITMAP
1E00
6180
4080
8040
8040
8040
8040
4080
6180
1E00
ENDCHAR
STARTCHAR 00B1
ENCODING 177
SWIDTH 540 0
DWIDTH 18 0
BBX 17 17 0 2
BITMAP
008000
008000
008000
008000
008000
008000
008000
008000
FFFF80
008000
008000
008000
008000
008000
008000
008000
FFFF80
ENDCHAR
STARTCHAR 00B2
ENCODING 178
SWIDTH 300 0
DWIDTH 10 0
BBX 9 12 0 10
BITMAP
3C00
7E00
C700
8300
0300
0200
0400
0800
1000
2080
7F80
FF00
ENDCHAR
STARTCHAR 00B3
ENCODING 179
SWIDTH 300 0
DWIDTH 10 0
BBX 8 12 0 10
BITMAP
3C
46
86
06
0C
3C
07
03
03
03
C6
F8
ENDCHAR
STARTCHAR 00B4
ENCODING 180
SWIDTH 300 0
DWIDTH 10 0
BBX 5 5 3 17
BITMAP
38
70
60
40
80
ENDCHAR
STARTCHAR 00B5
ENCODING 181
SWIDTH 570 0
DWIDTH 19 0
BBX 16 22 2 -7
BITMAP
7038
7038
7038
7038
7038
7038
7038
7038
7038
7038
7038
7078
78F9
7F3F
5E1E
4000
4000
C000
E000
E000
E000
E000
ENDCHAR
STARTCHAR 00B6
ENCODING 182
SWIDTH 450 0
DWIDTH 15 0
BBX 15 29 0 -7
BITMAP
0FFE
3F88
7F88
FF88
FF88
FF88
FF88
FF88
7F88
7F88
3F88
0F88
0088
0088
0088
0088
0088
0088
0088
0088
0088
0088
0088
0088
0088
0088
0088
0088
0088
ENDCHAR
STARTCHAR 00B7
ENCODING 183
SWIDTH 270 0
DWIDTH 9 0
BBX 4 4 2 9
BITMAP
60
F0
F0
60
ENDCHAR
STARTCHAR 00B8
ENCODING 184
SWIDTH 300 0
DWIDTH 10 0
BBX 6 7 3 -7
BITMAP
10
38
7C
1C
1C
38
F0
ENDCHAR
STARTCHAR 00B9
ENCODING 185
SWIDTH 300 0
DWIDTH 10 0
BBX 6 12 2 10
BITMAP
30
F0
30
30
30
30
30
30
30
30
30
FC
ENDCHAR
STARTCHAR 00BA
ENCODING 186
SWIDTH 300 0
DWIDTH 10 0
BBX 9 10 1 12
BITMAP
3E00
6700
4300
C180
C180
C180
C180
E100
6300
3C00
ENDCHAR
STARTCHAR 00BB
ENCODING 187
SWIDTH 480 0
DWIDTH 16 0
BBX 14 15 1 0
BITMAP
8100
4080
60C0
3060
3870
1830
1C38
0E1C
1C38
1830
3870
3060
60C0
4080
8100
ENDCHAR
STARTCHAR 00BC
ENCODING 188
SWIDTH 750 0
DWIDTH 25 0
BBX 23 22 2 0
BITMAP
300020
F00040
300080
300180
300100
300200
300400
300400
300800
301000
302018
FC2018
004038
008058
0080D8
010098
020118
020318
0403FE
080018
100018
100018
ENDCHAR
STARTCHAR 00BD
ENCODING 189
SWIDTH 750 0
DWIDTH 25 0
BBX 22 23 2 -1
BITMAP
300040
F00040
300080
300100
300300
300200
300400
300800
300800
301000
302000
FC21E0
0043F0
008638
008418
010018
020010
040020
040040
080080
100104
1003FC
0007F8
ENDCHAR
STARTCHAR 00BE
ENCODING 190
SWIDTH 750 0
DWIDTH 25 0
BBX 24 22 0 0
BITMAP
3C0010
460010
860020
060040
0C0040
3C0080
070100
030100
030200
030400
C6040C
F8081C
00101C
00203C
00206C
00404C
00808C
00818C
0101FF
02000C
02000C
04000C
ENDCHAR
STARTCHAR 00BF
ENCODING 191
SWIDTH 450 0
DWIDTH 15 0
BBX 12 23 1 -7
BITMAP
0700
0700
0700
0000
0000
0200
0200
0200
0200
0400
0C00
1800
3800
3000
7000
6000
E060
E070
E070
E030
7020
3860
1F80
ENDCHAR
STARTCHAR 00C0
ENCODING 192
SWIDTH 690 0
DWIDTH 23 0
BBX 23 29 1 0
BITMAP
00E000
007000
003000
001000
000800
000000
000000
001000
003800
003800
003C00
005C00
005C00
008E00
008E00
010E00
010700
020700
020380
020380
040380
07FFC0
0801C0
0801C0
1000E0
1000E0
200070
7000F8
FC03FE
ENDCHAR
STARTCHAR 00C1
ENCODING 193
SWIDTH 690 0
DWIDTH 23 0
BBX 23 29 1 0
BITMAP
000E00
001C00
001800
001000
002000
000000
000000
001000
003800
003800
003C00
005C00
005C00
008E00
008E00
010E00
010700
020700
020380
020380
040380
07FFC0
0801C0
0801C0
1000E0
1000E0
200070
7000F8
FC03FE
ENDCHAR
STARTCHAR 00C2
ENCODING 194
SWIDTH 690 0
DWIDTH 23 0
BBX 23 29 1 0
BITMAP
001C00
003E00
006600
004300
008080
000000
000000
001000
003800
003800
003C00
005C00
005C00
008E00
008E00
010E00
010700
020700
020380
020380
040380
07FFC0
0801C0
0801C0
1000E0
1000E0
200070
7000F8
FC03FE
ENDCHAR
STARTCHAR 00C3
ENCODING 195
SWIDTH 690 0
DWIDTH 23 0
BBX 23 28 1 0
BITMAP
01E100
03F300
023F00
021E00
000000
000000
001000
003800
003800
003C00
005C00
005C00
008E00
008E00
010E00
010700
020700
020380
020380
040380
07FFC0
0801C0
0801C0
1000E0
1000E0
200070
7000F8
FC03FE
ENDCHAR
STARTCHAR 00C4
ENCODING 196
SWIDTH 690 0
DWIDTH 23 0
BBX 23 27 1 0
BITMAP
00E700
00E700
00E700
000000
000000
001000
003800
003800
003C00
005C00
005C00
008E00
008E00
010E00
010700
020700
020380
020380
040380
07FFC0
0801C0
0801C0
1000E0
1000E0
200070
7000F8
FC03FE
ENDCHAR
STARTCHAR 00C5
ENCODING 197
SWIDTH 690 0
DWIDTH 23 0
BBX 23 27 1 0
BITMAP
007800
00CC00
008400
008400
00CC00
007800
003800
003800
003C00
005C00
005C00
008E00
008E00
010E00
010700
020700
020380
020380
040380
07FFC0
0801C0
0801C0
1000E0
1000E0
200070
7000F8
FC03FE
ENDCHAR
STARTCHAR 00C6
ENCODING 198
SWIDTH 870 0
DWIDTH 29 0
BBX 28 22 0 0
BITMAP
00FFFFC0
001F00C0
001700C0
00170040
00270040
00270000
00470000
00470100
00870100
00870300
0107FF00
01070300
03FF0100
04070100
04070000
08070000
08070010
10070030
10070020
30070060
700F00E0
FC3FFFC0
ENDCHAR
STARTCHAR 00C7
ENCODING 199
SWIDTH 660 0
DWIDTH 22 0
BBX 20 29 1 -7
BITMAP
01FC40
0783C0
0E01C0
1C00C0
380060
780060
780020
700020
F00000
F00000
F00000
F00000
F00000
F00000
F00000
780000
780010
3C0020
1E0040
0F8180
07FF00
01FC00
002000
007000
00F800
003800
003800
007000
01E000
ENDCHAR
STARTCHAR 00C8
ENCODING 200
SWIDTH 600 0
DWIDTH 20 0
BBX 18 29 1 0
BITMAP
038000
01C000
00C000
004000
002000
000000
000000
FFFF00
3C0300
1C0300
1C0100
1C0100
1C0000
1C0000
1C0800
1C0800
1C1800
1FF800
1C1800
1C0800
1C0800
1C0000
1C0000
1C0040
1C00C0
1C0080
1C0180
3C0380
FFFF00
ENDCHAR
STARTCHAR 00C9
ENCODING 201
SWIDTH 600 0
DWIDTH 20 0
BBX 18 29 1 0
BITMAP
003800
007000
006000
004000
008000
000000
000000
FFFF00
3C0300
1C0300
1C0100
1C0100
1C0000
1C0000
1C0800
1C0800
1C1800
1FF800
1C1800
1C0800
1C0800
1C0000
1C0000
1C0040
1C00C0
1C0080
1C0180
3C0380
FFFF00
ENDCHAR
STARTCHAR 00CA
ENCODING 202
SWIDTH 600 0
DWIDTH 20 0
BBX 18 29 1 0
BITMAP
00E000
01F000
033000
021800
040400
000000
000000
FFFF00
3C0300
1C0300
1C0100
1C0100
1C0000
1C0000
1C0800
1C0800
1C1800
1FF800
1C1800
1C0800
1C0800
1C0000
1C0000
1C0040
1C00C0
1C0080
1C0180
3C0380
FFFF00
ENDCHAR
STARTCHAR 00CB
ENCODING 203
SWIDTH 600 0
DWIDTH 20 0
BBX 18 27 1 0
BITMAP
073800
073800
073800
000000
000000
FFFF00
3C0300
1C0300
1C0100
1C0100
1C0000
1C0000
1C0800
1C0800
1C1800
1FF800
1C1800
1C0800
1C0800
1C0000
1C0000
1C0040
1C00C0
1C0080
1C0180
3C0380
FFFF00
ENDCHAR
STARTCHAR 00CC
ENCODING 204
SWIDTH 330 0
DWIDTH 11 0
BBX 9 29 1 0
BITMAP
7000
3800
1800
0800
0400
0000
0000
FF80
3E00
1C00
1C00
1C00
1C00
1C00
1C00
1C00
1C00
1C00
1C00
1C00
1C00
1C00
1C00
1C00
1C00
1C00
1C00
3E00
FF80
ENDCHAR
STARTCHAR 00CD
ENCODING 205
SWIDTH 330 0
DWIDTH 11 0
BBX 9 29 1 0
BITMAP
0700
0E00
0C00
0800
1000
0000
0000
FF80
3E00
1C00
1C00
1C00
1C00
1C00
1C00
1C00
1C00
1C00
1C00
1C00
1C00
1C00
1C00
1C00
1C00
1C00
1C00
3E00
FF80
ENDCHAR
STARTCHAR 00CE
ENCODING 206
SWIDTH 330 0
DWIDTH 11 0
BBX 9 29 1 0
BITMAP
1C00
3E00
6600
4300
8080
0000
0000
FF80
3E00
1C00
1C00
1C00
1C00
1C00
1C00
1C00
1C00
1C00
1C00
1C00
1C00
1C00
1C00
1C00
1C00
1C00
1C00
3E00
FF80
ENDCHAR
STARTCHAR 00CF
ENCODING 207
SWIDTH 330 0
DWIDTH 11 0
BBX 9 27 1 0
BITMAP
7380
7380
7380
0000
0000
FF80
3E00
1C00
1C00
1C00
1C00
1C00
1C00
1C00
1C00
1C00
1C00
1C00
1C00
1C00
1C00
1C00
1C00
1C00
1C00
3E00
FF80
ENDCHAR
STARTCHAR 00D0
ENCODING 208
SWIDTH 720 0
DWIDTH 24 0
BBX 22 22 1 0
BITMAP
FFFC00
3C0F80
1C03C0
1C01E0
1C00F0
1C0078
1C0078
1C003C
1C003C
1C003C
FFF03C
1C003C
1C003C
1C003C
1C0038
1C0078
1C0078
1C00F0
1C01E0
1C03C0
3C0F80
FFFC00
ENDCHAR
STARTCHAR 00D1
ENCODING 209
SWIDTH 720 0
DWIDTH 24 0
BBX 23 28 0 0
BITMAP
01E100
03F300
023F00
021E00
000000
000000
FC00FE
3E0038
1F0010
0F0010
0F8010
0BC010
09E010
08F010
08F010
087810
083C10
081E10
080E10
080F10
080790
0803D0
0801F0
0800F0
0800F0
080070
1C0030
7F0010
ENDCHAR
STARTCHAR 00D2
ENCODING 210
SWIDTH 720 0
DWIDTH 24 0
BBX 22 29 1 0
BITMAP
00E000
007000
003000
001000
000800
000000
000000
00FC00
070380
0E01C0
1C00E0
380070
780078
780078
F00038
F0003C
F0003C
F0003C
F0003C
F0003C
F0003C
F00038
780038
780078
380070
1C00E0
0E01C0
070780
01FC00
ENDCHAR
STARTCHAR 00D3
ENCODING 211
SWIDTH 720 0
DWIDTH 24 0
BBX 22 29 1 0
BITMAP
001C00
003800
003000
002000
004000
000000
000000
00FC00
070380
0E01C0
1C00E0
380070
780078
780078
F00038
F0003C
F0003C
F0003C
F0003C
F0003C
F0003C
F00038
780038
780078
380070
1C00E0
0E01C0
070780
01FC00
ENDCHAR
STARTCHAR 00D4
ENCODING 212
SWIDTH 720 0
DWIDTH 24 0
BBX 22 29 1 0
BITMAP
003800
007C00
00CC00
008600
010100
000000
000000
00FC00
070380
0E01C0
1C00E0
380070
780078
780078
F00038
F0003C
F0003C
F0003C
F0003C
F0003C
F0003C
F00038
780038
780078
380070
1C00E0
0E01C0
070780
01FC00
ENDCHAR
STARTCHAR 00D5
ENCODING 213
SWIDTH 720 0
DWIDTH 24 0
BBX 22 28 1 0
BITMAP
01E100
03F300
023F00
021E00
000000
000000
00FC00
070380
0E01C0
1C00E0
380070
780078
780078
F00038
F0003C
F0003C
F0003C
F0003C
F0003C
F0003C
F00038
780038
780078
380070
1C00E0
0E01C0
070780
01FC00
ENDCHAR
STARTCHAR 00D6
ENCODING 214
SWIDTH 720 0
DWIDTH 24 0
BBX 22 27 1 0
BITMAP
01CE00
01CE00
01CE00
000000
000000
00FC00
070380
0E01C0
1C00E0
380070
780078
780078
F00038
F0003C
F0003C
F0003C
F0003C
F0003C
F0003C
F00038
780038
780078
380070
1C00E0
0E01C0
070780
01FC00
ENDCHAR
STARTCHAR 00D7
ENCODING 215
SWIDTH 570 0
DWIDTH 19 0
BBX 13 13 3 4
BITMAP
8008
4010
2020
1040
0880
0500
0200
0500
0880
1040
2020
4010
8008
ENDCHAR
STARTCHAR 00D8
ENCODING 216
SWIDTH 720 0
DWIDTH 24 0
BBX 22 22 1 0
BITMAP
00FC08
070390
0E01E0
1C00E0
3800F0
7801F8
780138
F0023C
F0043C
F0083C
F0103C
F0203C
F0403C
F0403C
708038
790078
7A0078
3C0070
1C00E0
1E01C0
170380
20FC00
ENDCHAR
STARTCHAR 00D9
ENCODING 217
SWIDTH 690 0
DWIDTH 23 0
BBX 23 29 0 0
BITMAP
007000
003800
001800
000800
000400
000000
000000
FF80FE
3E0038
1C0010
1C0010
1C0010
1C0010
1C0010
1C0010
1C0010
1C0010
1C0010
1C0010
1C0010
1C0010
1C0010
1C0010
1C0010
1C0020
0E0020
070040
038180
00FE00
ENDCHAR
STARTCHAR 00DA
ENCODING 218
SWIDTH 690 0
DWIDTH 23 0
BBX 23 29 0 0
BITMAP
000700
000E00
000C00
000800
001000
000000
000000
FF80FE
3E0038
1C0010
1C0010
1C0010
1C0010
1C0010
1C0010
1C0010
1C0010
1C0010
1C0010
1C0010
1C0010
1C0010
1C0010
1C0010
1C0020
0E0020
070040
038180
00FE00
ENDCHAR
STARTCHAR 00DB
ENCODING 219
SWIDTH 690 0
DWIDTH 23 0
BBX 23 29 0 0
BITMAP
003800
007C00
00CC00
008600
010100
000000
000000
FF80FE
3E0038
1C0010
1C0010
1C0010
1C0010
1C0010
1C0010
1C0010
1C0010
1C0010
1C0010
1C0010
1C0010
1C0010
1C0010
1C0010
1C0020
0E0020
070040
038180
00FE00
ENDCHAR
STARTCHAR 00DC
ENCODING 220
SWIDTH 690 0
DWIDTH 23 0
BBX 23 27 0 0
BITMAP
007380
007380
007380
000000
000000
FF80FE
3E0038
1C0010
1C0010
1C0010
1C0010
1C0010
1C0010
1C0010
1C0010
1C0010
1C0010
1C0010
1C0010
1C0010
1C0010
1C0010
1C0020
0E0020
070040
038180
00FE00
ENDCHAR
STARTCHAR 00DD
ENCODING 221
SWIDTH 720 0
DWIDTH 24 0
BBX 22 29 1 0
BITMAP
000E00
001C00
001800
001000
002000
000000
000000
FF01FC
7C00F0
1C0040
1C00C0
0E0080
070100
070200
038200
01C400
01C400
00E800
007000
007000
007000
007000
007000
007000
007000
007000
007000
00F800
03FE00
ENDCHAR
STARTCHAR 00DE
ENCODING 222
SWIDTH 540 0
DWIDTH 18 0
BBX 16 22 1 0
BITMAP
FF80
3E00
1C00
1C00
1C00
1FF0
1C3C
1C1E
1C1E
1C0F
1C0F
1C0F
1C0F
1C1E
1C1E
1C7C
1FF0
1C00
1C00
1C00
3E00
FF80
ENDCHAR
STARTCHAR 00DF
ENCODING 223
SWIDTH 510 0
DWIDTH 17 0
BBX 15 23 1 0
BITMAP
07C0
0C70
1830
3838
3838
3838
3838
3830
3860
39E0
3878
383C
381C
381E
380E
380E
380E
380E
380E
380C
3B8C
7B98
F9F0
ENDCHAR
STARTCHAR 00E0
ENCODING 224
SWIDTH 450 0
DWIDTH 15 0
BBX 14 22 1 0
BITMAP
1C00
0E00
0600
0200
0100
0000
0000
0F80
39C0
70E0
70E0
60E0
01E0
06E0
18E0
30E0
60E0
E0E0
E0E0
F1E4
7EF8
3870
ENDCHAR
STARTCHAR 00E1
ENCODING 225
SWIDTH 450 0
DWIDTH 15 0
BBX 14 22 1 0
BITMAP
01C0
0380
0300
0200
0400
0000
0000
0F80
39C0
70E0
70E0
60E0
01E0
06E0
18E0
30E0
60E0
E0E0
E0E0
F1E4
7EF8
3870
ENDCHAR
STARTCHAR 00E2
ENCODING 226
SWIDTH 450 0
DWIDTH 15 0
BBX 14 22 1 0
BITMAP
0700
0F80
1980
10C0
2020
0000
0000
0F80
39C0
70E0
70E0
60E0
01E0
06E0
18E0
30E0
60E0
E0E0
E0E0
F1E4
7EF8
3870
ENDCHAR
STARTCHAR 00E3
ENCODING 227
SWIDTH 450 0
DWIDTH 15 0
BBX 14 21 1 0
BITMAP
3C20
7E60
47E0
43C0
0000
0000
0F80
39C0
70E0
70E0
60E0
01E0
06E0
18E0
30E0
60E0
E0E0
E0E0
F1E4
7EF8
3870
ENDCHAR
STARTCHAR 00E4
ENCODING 228
SWIDTH 450 0
DWIDTH 15 0
BBX 14 20 1 0
BITMAP
39C0
39C0
39C0
0000
0000
0F80
39C0
70E0
70E0
60E0
01E0
06E0
18E0
30E0
60E0
E0E0
E0E0
F1E4
7EF8
3870
ENDCHAR
STARTCHAR 00E5
ENCODING 229
SWIDTH 450 0
DWIDTH 15 0
BBX 14 23 1 0
BITMAP
0F00
1980
1080
1080
1980
0F00
0000
0000
0F80
39C0
70E0
70E0
60E0
01E0
06E0
18E0
30E0
60E0
E0E0
E0E0
F1E4
7EF8
3870
ENDCHAR
STARTCHAR 00E6
ENCODING 230
SWIDTH 660 0
DWIDTH 22 0
BBX 20 15 1 0
BITMAP
0F8F80
39D8E0
70F0E0
70E070
70E070
01FFF0
0EE000
38E000
70E000
E0E010
E0F030
E07860
F1FFE0
7F3FC0
3C1F00
ENDCHAR
STARTCHAR 00E7
ENCODING 231
SWIDTH 420 0
DWIDTH 14 0
BBX 12 22 1 -7
BITMAP
0F80
10E0
2070
6070
6030
C000
C000
E000
E000
E010
F010
7820
7FE0
3FC0
0F00
0200
0700
0F80
0380
0380
0700
1E00
ENDCHAR
STARTCHAR 00E8
ENCODING 232
SWIDTH 420 0
DWIDTH 14 0
BBX 12 22 1 0
BITMAP
1C00
0E00
0600
0200
0100
0000
0000
0F80
11C0
20E0
4070
C070
FFF0
C000
C000
E000
E010
F010
7820
7FE0
3FC0
0F80
ENDCHAR
STARTCHAR 00E9
ENCODING 233
SWIDTH 420 0
DWIDTH 14 0
BBX 12 22 1 0
BITMAP
01C0
0380
0300
0200
0400
0000
0000
0F80
11C0
20E0
4070
C070
FFF0
C000
C000
E000
E010
F010
7820
7FE0
3FC0
0F80
ENDCHAR
STARTCHAR 00EA
ENCODING 234
SWIDTH 420 0
DWIDTH 14 0
BBX 12 22 1 0
BITMAP
0700
0F80
1980
10C0
2020
0000
0000
0F80
11C0
20E0
4070
C070
FFF0
C000
C000
E000
E010
F010
7820
7FE0
3FC0
0F80
ENDCHAR
STARTCHAR 00EB
ENCODING 235
SWIDTH 420 0
DWIDTH 14 0
BBX 12 20 1 0
BITMAP
1CE0
1CE0
1CE0
0000
0000
0F80
11C0
20E0
4070
C070
FFF0
C000
C000
E000
E010
F010
7820
7FE0
3FC0
0F80
ENDCHAR
STARTCHAR 00EC
ENCODING 236
SWIDTH 270 0
DWIDTH 9 0
BBX 7 22 1 0
BITMAP
70
38
18
08
04
00
00
18
78
F8
38
38
38
38
38
38
38
38
38
38
38
FE
ENDCHAR
STARTCHAR 00ED
ENCODING 237
SWIDTH 270 0
DWIDTH 9 0
BBX 7 22 1 0
BITMAP
0E
1C
18
10
20
00
00
18
78
F8
38
38
38
38
38
38
38
38
38
38
38
FE
ENDCHAR
STARTCHAR 00EE
ENCODING 238
SWIDTH 270 0
DWIDTH 9 0
BBX 9 22 0 0
BITMAP
1C00
3E00
6600
4300
8080
0000
0000
0C00
3C00
7C00
1C00
1C00
1C00
1C00
1C00
1C00
1C00
1C00
1C00
1C00
1C00
7F00
ENDCHAR
STARTCHAR 00EF
ENCODING 239
SWIDTH 270 0
DWIDTH 9 0
BBX 8 20 1 0
BITMAP
E7
E7
E7
00
00
18
78
F8
38
38
38
38
38
38
38
38
38
38
38
FE
ENDCHAR
STARTCHAR 00F0
ENCODING 240
SWIDTH 510 0
DWIDTH 17 0
BBX 15 23 1 0
BITMAP
1010
0C60
0780
0780
0DC0
30E0
0070
0078
07B8
187C
303C
601C
601E
E00E
E00E
E00E
E00E
E00E
700C
700C
3818
1C30
07C0
ENDCHAR
STARTCHAR 00F1
ENCODING 241
SWIDTH 480 0
DWIDTH 16 0
BBX 16 21 0 0
BITMAP
0F08
1F98
11F8
10F0
0000
0000
18F0
79F8
FA3C
3C1C
381C
381C
381C
381C
381C
381C
381C
381C
381C
781C
FE7F
ENDCHAR
STARTCHAR 00F2
ENCODING 242
SWIDTH 480 0
DWIDTH 16 0
BBX 14 22 1 0
BITMAP
0E00
0700
0300
0100
0080
0000
0000
0780
18E0
3070
6038
6038
E01C
E01C
E01C
E01C
E01C
7018
7018
3830
1C60
07C0
ENDCHAR
STARTCHAR 00F3
ENCODING 243
SWIDTH 480 0
DWIDTH 16 0
BBX 14 22 1 0
BITMAP
01C0
0380
0300
0200
0400
0000
0000
0780
18E0
3070
6038
6038
E01C
E01C
E01C
E01C
E01C
7018
7018
3830
1C60
07C0
ENDCHAR
STARTCHAR 00F4
ENCODING 244
SWIDTH 480 0
DWIDTH 16 0
BBX 14 22 1 0
BITMAP
0380
07C0
0CC0
0860
1010
0000
0000
0780
18E0
3070
6038
6038
E01C
E01C
E01C
E01C
E01C
7018
7018
3830
1C60
07C0
ENDCHAR
STARTCHAR 00F5
ENCODING 245
SWIDTH 480 0
DWIDTH 16 0
BBX 14 21 1 0
BITMAP
1E10
3F30
23F0
21E0
0000
0000
0780
18E0
3070
6038
6038
E01C
E01C
E01C
E01C
E01C
7018
7018
3830
1C60
07C0
ENDCHAR
STARTCHAR 00F6
ENCODING 246
SWIDTH 480 0
DWIDTH 16 0
BBX 14 20 1 0
BITMAP
1CE0
1CE0
1CE0
0000
0000
0780
18E0
3070
6038
6038
E01C
E01C
E01C
E01C
E01C
7018
7018
3830
1C60
07C0
ENDCHAR
STARTCHAR 00F7
ENCODING 247
SWIDTH 540 0
DWIDTH 18 0
BBX 17 13 0 4
BITMAP
01C000
01C000
01C000
000000
000000
000000
FFFF80
000000
000000
000000
01C000
01C000
01C000
ENDCHAR
STARTCHAR 00F8
ENCODING 248
SWIDTH 510 0
DWIDTH 17 0
BBX 15 16 1 0
BITMAP
0002
07C2
1874
3038
601C
603E
E05E
E08E
E10E
E20E
E40E
780C
700C
3818
5C30
8FC0
ENDCHAR
STARTCHAR 00F9
ENCODING 249
SWIDTH 510 0
DWIDTH 17 0
BBX 16 22 0 0
BITMAP
0700
0380
0180
0080
0040
0000
0000
F87C
381C
381C
381C
381C
381C
381C
381C
381C
381C
381C
383C
3C5F
1F9E
0F18
ENDCHAR
STARTCHAR 00FA
ENCODING 250
SWIDTH 510 0
DWIDTH 17 0
BBX 16 22 0 0
BITMAP
00E0
01C0
0180
0100
0200
0000
0000
F87C
381C
381C
381C
381C
381C
381C
381C
381C
381C
381C
383C
3C5F
1F9E
0F18
ENDCHAR
STARTCHAR 00FB
ENCODING 251
SWIDTH 510 0
DWIDTH 17 0
BBX 16 22 0 0
BITMAP
0380
07C0
0CC0
0860
1010
0000
0000
F87C
381C
381C
381C
381C
381C
381C
381C
381C
381C
381C
383C
3C5F
1F9E
0F18
ENDCHAR
STARTCHAR 00FC
ENCODING 252
SWIDTH 510 0
DWIDTH 17 0
BBX 16 20 0 0
BITMAP
0E70
0E70
0E70
0000
0000
F87C
381C
381C
381C
381C
381C
381C
381C
381C
381C
381C
383C
3C5F
1F9E
0F18
ENDCHAR
STARTCHAR 00FD
ENCODING 253
SWIDTH 480 0
DWIDTH 16 0
BBX 16 29 0 -7
BITMAP
0038
0070
0060
0040
0080
0000
0000
FE0F
7806
3804
1C04
1C08
0E08
0E18
0710
0710
03A0
03A0
01E0
01C0
00C0
0080
0080
0080
0100
0100
7200
7C00
3800
ENDCHAR
STARTCHAR 00FE
ENCODING 254
SWIDTH 510 0
DWIDTH 17 0
BBX 15 30 1 -7
BITMAP
1800
7800
F800
3800
3800
3800
3800
3800
38F0
3BF8
3E3C
3C1C
381E
380E
380E
380E
380E
380E
380C
381C
3818
3C30
3BE0
3800
3800
3800
3800
3800
3800
FE00
ENDCHAR
STARTCHAR 00FF
ENCODING 255
SWIDTH 480 0
DWIDTH 16 0
BBX 16 27 0 -7
BITMAP
0738
0738
0738
0000
0000
FE0F
7806
3804
1C04
1C08
0E08
0E18
0710
0710
03A0
03A0
01E0
01C0
00C0
0080
0080
0080
0100
0100
7200
7C00
3800
ENDCHAR
STARTCHAR 0100
ENCODING 256
SWIDTH 690 0
DWIDTH 23 0
BBX 23 26 1 0
BITMAP
01FF80
01FF80
000000
000000
001000
003800
003800
003C00
005C00
005C00
008E00
008E00
010E00
010700
020700
020380
020380
040380
07FFC0
0801C0
0801C0
1000E0
1000E0
200070
7000F8
FC03FE
ENDCHAR
STARTCHAR 0101
ENCODING 257
SWIDTH 450 0
DWIDTH 15 0
BBX 14 20 1 0
BITMAP
7FE0
7FE0
0000
0000
0000
0F80
39C0
70E0
70E0
60E0
01E0
06E0
18E0
30E0
60E0
E0E0
E0E0
F1E4
7EF8
3870
ENDCHAR
STARTCHAR 0102
ENCODING 258
SWIDTH 690 0
DWIDTH 23 0
BBX 23 28 1 0
BITMAP
010100
018300
00FE00
007C00
000000
000000
001000
003800
003800
003C00
005C00
005C00
008E00
008E00
010E00
010700
020700
020380
020380
040380
07FFC0
0801C0
0801C0
1000E0
1000E0
200070
7000F8
FC03FE
ENDCHAR
STARTCHAR 0103
ENCODING 259
SWIDTH 450 0
DWIDTH 15 0
BBX 14 21 1 0
BITMAP
2020
3060
1FC0
0F80
0000
0000
0F80
39C0
70E0
70E0
60E0
01E0
06E0
18E0
30E0
60E0
E0E0
E0E0
F1E4
7EF8
3870
ENDCHAR
STARTCHAR 0104
ENCODING 260
SWIDTH 690 0
DWIDTH 23 0
BBX 23 28 1 -6
BITMAP
001000
003800
003800
003C00
005C00
005C00
008E00
008E00
010E00
010700
020700
020380
020380
040380
07FFC0
0801C0
0801C0
1000E0
1000E0
200070
7000F8
FC03FE
000020
000060
000060
000060
000070
00003E
ENDCHAR
STARTCHAR 0105
ENCODING 261
SWIDTH 450 0
DWIDTH 15 0
BBX 15 21 1 -6
BITMAP
0F80
39C0
70E0
70E0
60E0
01E0
06E0
18E0
30E0
60E0
E0E0
E0E0
F1E4
7EF8
3870
0020
0060
0060
0060
0070
003E
ENDCHAR
STARTCHAR 0106
ENCODING 262
SWIDTH 660 0
DWIDTH 22 0
BBX 20 29 1 0
BITMAP
001C00
003800
003000
002000
004000
000000
000000
01FC40
0783C0
0E01C0
1C00C0
380060
780060
780020
700020
F00000
F00000
F00000
F00000
F00000
F00000
F00000
780000
780010
3C0020
1E0040
0F8180
07FF00
01FC00
ENDCHAR
STARTCHAR 0107
ENCODING 263
SWIDTH 420 0
DWIDTH 14 0
BBX 12 22 1 0
BITMAP
01C0
0380
0300
0200
0400
0000
0000
0F80
10E0
2070
6070
6030
C000
C000
E000
E000
E010
F010
7820
7FE0
3FC0
0F00
ENDCHAR
STARTCHAR 0108
ENCODING 264
SWIDTH 660 0
DWIDTH 22 0
BBX 20 29 1 0
BITMAP
007000
00F800
019800
010C00
020200
000000
000000
01FC40
0783C0
0E01C0
1C00C0
380060
780060
780020
700020
F00000
F00000
F00000
F00000
F00000
F00000
F00000
780000
780010
3C0020
1E0040
0F8180
07FF00
01FC00
ENDCHAR
STARTCHAR 0109
ENCODING 265
SWIDTH 420 0
DWIDTH 14 0
BBX 12 22 1 0
BITMAP
0700
0F80
1980
10C0
2020
0000
0000
0F80
10E0
2070
6070
6030
C000
C000
E000
E000
E010
F010
7820
7FE0
3FC0
0F00
ENDCHAR
STARTCHAR 010A
ENCODING 266
SWIDTH 660 0
DWIDTH 22 0
BBX 20 27 1 0
BITMAP
007000
007000
007000
000000
000000
01FC40
0783C0
0E01C0
1C00C0
380060
780060
780020
700020
F00000
F00000
F00000
F00000
F00000
F00000
F00000
780000
780010
3C0020
1E0040
0F8180
07FF00
01FC00
ENDCHAR
STARTCHAR 010B
ENCODING 267
SWIDTH 420 0
DWIDTH 14 0
BBX 12 21 1 0
BITMAP
0700
0700
0700
0000
0000
0000
0F80
10E0
2070
6070
6030
C000
C000
E000
E000
E010
F010
7820
7FE0
3FC0
0F00
ENDCHAR
STARTCHAR 010C
ENCODING 268
SWIDTH 660 0
DWIDTH 22 0
BBX 20 29 1 0
BITMAP
020200
018400
00CC00
00F800
007000
000000
000000
01FC40
0783C0
0E01C0
1C00C0
380060
780060
780020
700020
F00000
F00000
F00000
F00000
F00000
F00000
F00000
780000
780010
3C0020
1E0040
0F8180
07FF00
01FC00
ENDCHAR
STARTCHAR 010D
ENCODING 269
SWIDTH 420 0
DWIDTH 14 0
BBX 12 22 1 0
BITMAP
2020
1840
0CC0
0F80
0700
0000
0000
0F80
10E0
2070
6070
6030
C000
C000
E000
E000
E010
F010
7820
7FE0
3FC0
0F00
ENDCHAR
STARTCHAR 010E
ENCODING 270
SWIDTH 720 0
DWIDTH 24 0
BBX 22 29 1 0
BITMAP
020200
018400
00CC00
00F800
007000
000000
000000
FFFC00
3C0F80
1C03C0
1C01E0
1C00F0
1C0078
1C0078
1C003C
1C003C
1C003C
1C003C
1C003C
1C003C
1C003C
1C003C
1C0078
1C0078
1C00F0
1C01E0
1C03C0
3C0F80
FFFC00
ENDCHAR
STARTCHAR 010F
ENCODING 271
SWIDTH 630 0
DWIDTH 21 0
BBX 20 23 1 0
BITMAP
0018E0
0079F0
00F9F0
003810
003810
003830
003860
003880
07B800
18F800
307800
703800
603800
E03800
E03800
E03800
E03800
E03800
F03800
703800
7C7E00
3FBC00
0F3000
ENDCHAR
STARTCHAR 0110
ENCODING 272
SWIDTH 720 0
DWIDTH 24 0
BBX 22 22 1 0
BITMAP
FFFC00
3C0F80
1C03C0
1C01E0
1C00F0
1C0078
1C0078
1C003C
1C003C
1C003C
FFF03C
1C003C
1C003C
1C003C
1C0038
1C0078
1C0078
1C00F0
1C01E0
1C03C0
3C0F80
FFFC00
ENDCHAR
STARTCHAR 0111
ENCODING 273
SWIDTH 510 0
DWIDTH 17 0
BBX 16 23 2 0
BITMAP
0018
0078
00F8
0038
0038
07FF
0038
0038
07B8
18F8
3078
7038
6038
E038
E038
E038
E038
E038
F038
7038
7C7E
3FBC
0F30
ENDCHAR
STARTCHAR 0112
ENCODING 274
SWIDTH 600 0
DWIDTH 20 0
BBX 18 26 1 0
BITMAP
07FE00
07FE00
000000
000000
FFFF00
3C0300
1C0300
1C0100
1C0100
1C0000
1C0000
1C0800
1C0800
1C1800
1FF800
1C1800
1C0800
1C0800
1C0000
1C0000
1C0040
1C00C0
1C0080
1C0180
3C0380
FFFF00
ENDCHAR
STARTCHAR 0113
ENCODING 275
SWIDTH 420 0
DWIDTH 14 0
BBX 12 20 1 0
BITMAP
7FE0
7FE0
0000
0000
0000
0F80
11C0
20E0
4070
C070
FFF0
C000
C000
E000
E010
F010
7820
7FE0
3FC0
0F80
ENDCHAR
STARTCHAR 0114
ENCODING 276
SWIDTH 600 0
DWIDTH 20 0
BBX 18 28 1 0
BITMAP
040400
060C00
03F800
01F000
000000
000000
FFFF00
3C0300
1C0300
1C0100
1C0100
1C0000
1C0000
1C0800
1C0800
1C1800
1FF800
1C1800
1C0800
1C0800
1C0000
1C0000
1C0040
1C00C0
1C0080
1C0180
3C0380
FFFF00
ENDCHAR
STARTCHAR 0115
ENCODING 277
SWIDTH 420 0
DWIDTH 14 0
BBX 12 21 1 0
BITMAP
2020
3060
1FC0
0F80
0000
0000
0F80
11C0
20E0
4070
C070
FFF0
C000
C000
E000
E010
F010
7820
7FE0
3FC0
0F80
ENDCHAR
STARTCHAR 0116
ENCODING 278
SWIDTH 600 0
DWIDTH 20 0
BBX 18 27 1 0
BITMAP
00E000
00E000
00E000
000000
000000
FFFF00
3C0300
1C0300
1C0100
1C0100
1C0000
1C0000
1C0800
1C0800
1C1800
1FF800
1C1800
1C0800
1C0800
1C0000
1C0000
1C0040
1C00C0
1C0080
1C0180
3C0380
FFFF00
ENDCHAR
STARTCHAR 0117
ENCODING 279
SWIDTH 420 0
DWIDTH 14 0
BBX 12 21 1 0
BITMAP
0700
0700
0700
0000
0000
0000
0F80
11C0
20E0
4070
C070
FFF0
C000
C000
E000
E010
F010
7820
7FE0
3FC0
0F80
ENDCHAR
STARTCHAR 0118
ENCODING 280
SWIDTH 600 0
DWIDTH 20 0
BBX 18 28 1 -6
BITMAP
FFFF00
3C0300
1C0300
1C0100
1C0100
1C0000
1C0000
1C0800
1C0800
1C1800
1FF800
1C1800
1C0800
1C0800
1C0000
1C0000
1C0040
1C00C0
1C0080
1C0180
3C0380
FFFF00
000400
000C00
000C00
000C00
000E00
0007C0
ENDCHAR
STARTCHAR 0119
ENCODING 281
SWIDTH 420 0
DWIDTH 14 0
BBX 12 21 1 -6
BITMAP
0F80
11C0
20E0
4070
C070
FFF0
C000
C000
E000
E010
F010
7820
7FE0
3FC0
0F80
0400
0C00
0C00
0C00
0E00
07C0
ENDCHAR
STARTCHAR 011A
ENCODING 282
SWIDTH 600 0
DWIDTH 20 0
BBX 18 29 1 0
BITMAP
040400
030800
019800
01F000
00E000
000000
000000
FFFF00
3C0300
1C0300
1C0100
1C0100
1C0000
1C0000
1C0800
1C0800
1C1800
1FF800
1C1800
1C0800
1C0800
1C0000
1C0000
1C0040
1C00C0
1C0080
1C0180
3C0380
FFFF00
ENDCHAR
STARTCHAR 011B
ENCODING 283
SWIDTH 420 0
DWIDTH 14 0
BBX 12 22 1 0
BITMAP
2020
1840
0CC0
0F80
0700
0000
0000
0F80
11C0
20E0
4070
C070
FFF0
C000
C000
E000
E010
F010
7820
7FE0
3FC0
0F80
ENDCHAR
STARTCHAR 011C
ENCODING 284
SWIDTH 720 0
DWIDTH 24 0
BBX 23 29 1 0
BITMAP
007000
00F800
019800
010C00
020200
000000
000000
00FE20
0781E0
0E00E0
1C0060
3C0030
380030
780010
700000
F00000
F00000
F003FE
F000F8
F00070
F00070
F00070
780070
780070
3C0070
1E0070
0F0070
07C0E0
00FF80
ENDCHAR
STARTCHAR 011D
ENCODING 285
SWIDTH 480 0
DWIDTH 16 0
BBX 15 29 1 -7
BITMAP
0380
07C0
0CC0
0860
1010
0000
0000
0FC0
18FE
3070
7038
7038
7038
7038
3830
1C60
0FC0
3000
2000
7000
7FF8
3FFC
200E
4006
4006
C00C
F018
7FF0
1FC0
ENDCHAR
STARTCHAR 011E
ENCODING 286
SWIDTH 720 0
DWIDTH 24 0
BBX 23 28 1 0
BITMAP
008080
00C180
007F00
003E00
000000
000000
00FE20
0781E0
0E00E0
1C0060
3C0030
380030
780010
700000
F00000
F00000
F003FE
F000F8
F00070
F00070
F00070
780070
780070
3C0070
1E0070
0F0070
07C0E0
00FF80
ENDCHAR
STARTCHAR 011F
ENCODING 287
SWIDTH 480 0
DWIDTH 16 0
BBX 15 28 1 -7
BITMAP
1010
1830
0FE0
07C0
0000
0000
0FC0
18FE
3070
7038
7038
7038
7038
3830
1C60
0FC0
3000
2000
7000
7FF8
3FFC
200E
4006
4006
C00C
F018
7FF0
1FC0
ENDCHAR
STARTCHAR 0120
ENCODING 288
SWIDTH 720 0
DWIDTH 24 0
BBX 23 27 1 0
BITMAP
003800
003800
003800
000000
000000
00FE20
0781E0
0E00E0
1C0060
3C0030
380030
780010
700000
F00000
F00000
F003FE
F000F8
F00070
F00070
F00070
780070
780070
3C0070
1E0070
0F0070
07C0E0
00FF80
ENDCHAR
STARTCHAR 0121
ENCODING 289
SWIDTH 480 0
DWIDTH 16 0
BBX 15 28 1 -7
BITMAP
0380
0380
0380
0000
0000
0000
0FC0
18FE
3070
7038
7038
7038
7038
3830
1C60
0FC0
3000
2000
7000
7FF8
3FFC
200E
4006
4006
C00C
F018
7FF0
1FC0
ENDCHAR
STARTCHAR 0122
ENCODING 290
SWIDTH 720 0
DWIDTH 24 0
BBX 23 29 1 -7
BITMAP
00FE20
0781E0
0E00E0
1C0060
3C0030
380030
780010
700000
F00000
F00000
F003FE
F000F8
F00070
F00070
F00070
780070
780070
3C0070
1E0070
0F0070
07C0E0
00FF80
001000
003800
007C00
001C00
001C00
003800
00F000
ENDCHAR
STARTCHAR 0123
ENCODING 291
SWIDTH 480 0
DWIDTH 16 0
BBX 15 31 1 -7
BITMAP
0180
0200
0400
0780
0780
0380
0000
0000
0000
0FC0
18FE
3070
7038
7038
7038
7038
3830
1C60
0FC0
3000
2000
7000
7FF8
3FFC
200E
4006
4006
C00C
F018
7FF0
1FC0
ENDCHAR
STARTCHAR 0124
ENCODING 292
SWIDTH 720 0
DWIDTH 24 0
BBX 22 29 1 0
BITMAP
003800
007C00
00CC00
008600
010100
000000
000000
FF87FC
3E01F0
1C00E0
1C00E0
1C00E0
1C00E0
1C00E0
1C00E0
1C00E0
1C00E0
1FFFE0
1C00E0
1C00E0
1C00E0
1C00E0
1C00E0
1C00E0
1C00E0
1C00E0
1C00E0
3E01F0
FF87FC
ENDCHAR
STARTCHAR 0125
ENCODING 293
SWIDTH 480 0
DWIDTH 16 0
BBX 16 29 0 0
BITMAP
01C0
03E0
0660
0430
0808
0000
1800
7800
F800
3800
3800
3800
3800
3800
38F0
39F8
3A3C
3C1C
381C
381C
381C
381C
381C
381C
381C
381C
381C
381C
FE7F
ENDCHAR
STARTCHAR 0126
ENCODING 294
SWIDTH 720 0
DWIDTH 24 0
BBX 22 22 1 0
BITMAP
FF87FC
3E01F0
1C00E0
1C00E0
FFFFFC
1C00E0
1C00E0
1C00E0
1C00E0
1C00E0
1FFFE0
1C00E0
1C00E0
1C00E0
1C00E0
1C00E0
1C00E0
1C00E0
1C00E0
1C00E0
3E01F0
FF87FC
ENDCHAR
STARTCHAR 0127
ENCODING 295
SWIDTH 480 0
DWIDTH 16 0
BBX 17 23 -1 0
BITMAP
0C0000
3C0000
7C0000
1C0000
1C0000
FFE000
1C0000
1C0000
1C7800
1CFC00
1D1E00
1E0E00
1C0E00
1C0E00
1C0E00
1C0E00
1C0E00
1C0E00
1C0E00
1C0E00
1C0E00
1C0E00
7F3F80
ENDCHAR
STARTCHAR 0128
ENCODING 296
SWIDTH 330 0
DWIDTH 11 0
BBX 10 28 1 0
BITMAP
7840
FCC0
8FC0
8780
0000
0000
FF80
3E00
1C00
1C00
1C00
1C00
1C00
1C00
1C00
1C00
1C00
1C00
1C00
1C00
1C00
1C00
1C00
1C00
1C00
1C00
3E00
FF80
ENDCHAR
STARTCHAR 0129
ENCODING 297
SWIDTH 270 0
DWIDTH 9 0
BBX 10 22 0 0
BITMAP
7840
FCC0
8FC0
8780
0000
0000
0000
0C00
3C00
7C00
1C00
1C00
1C00
1C00
1C00
1C00
1C00
1C00
1C00
1C00
1C00
7F00
ENDCHAR
STARTCHAR 012A
ENCODING 298
SWIDTH 330 0
DWIDTH 11 0
BBX 10 26 1 0
BITMAP
FFC0
FFC0
0000
0000
FF80
3E00
1C00
1C00
1C00
1C00
1C00
1C00
1C00
1C00
1C00
1C00
1C00
1C00
1C00
1C00
1C00
1C00
1C00
1C00
3E00
FF80
ENDCHAR
STARTCHAR 012B
ENCODING 299
SWIDTH 270 0
DWIDTH 9 0
BBX 10 20 0 0
BITMAP
FFC0
FFC0
0000
0000
0000
0C00
3C00
7C00
1C00
1C00
1C00
1C00
1C00
1C00
1C00
1C00
1C00
1C00
1C00
7F00
ENDCHAR
STARTCHAR 012C
ENCODING 300
SWIDTH 330 0
DWIDTH 11 0
BBX 9 28 1 0
BITMAP
8080
C180
7F00
3E00
0000
0000
FF80
3E00
1C00
1C00
1C00
1C00
1C00
1C00
1C00
1C00
1C00
1C00
1C00
1C00
1C00
1C00
1C00
1C00
1C00
1C00
3E00
FF80
ENDCHAR
STARTCHAR 012D
ENCODING 301
SWIDTH 270 0
DWIDTH 9 0
BBX 9 22 0 0
BITMAP
8080
C180
7F00
3E00
0000
0000
0000
0C00
3C00
7C00
1C00
1C00
1C00
1C00
1C00
1C00
1C00
1C00
1C00
1C00
1C00
7F00
ENDCHAR
STARTCHAR 012E
ENCODING 302
SWIDTH 330 0
DWIDTH 11 0
BBX 9 28 1 -6
BITMAP
FF80
3E00
1C00
1C00
1C00
1C00
1C00
1C00
1C00
1C00
1C00
1C00
1C00
1C00
1C00
1C00
1C00
1C00
1C00
1C00
3E00
FF80
0800
1800
1800
1800
1C00
0F80
ENDCHAR
STARTCHAR 012F
ENCODING 303
SWIDTH 270 0
DWIDTH 9 0
BBX 8 29 1 -6
BITMAP
38
38
38
00
00
00
00
00
18
78
F8
38
38
38
38
38
38
38
38
38
38
38
FE
10
30
30
30
38
1F
ENDCHAR
STARTCHAR 0130
ENCODING 304
SWIDTH 330 0
DWIDTH 11 0
BBX 9 27 1 0
BITMAP
1C00
1C00
1C00
0000
0000
FF80
3E00
1C00
1C00
1C00
1C00
1C00
1C00
1C00
1C00
1C00
1C00
1C00
1C00
1C00
1C00
1C00
1C00
1C00
1C00
3E00
FF80
ENDCHAR
STARTCHAR 0131
ENCODING 305
SWIDTH 270 0
DWIDTH 9 0
BBX 7 15 1 0
BITMAP
18
78
F8
38
38
38
38
38
38
38
38
38
38
38
FE
ENDCHAR
STARTCHAR 0132
ENCODING 306
SWIDTH 690 0
DWIDTH 23 0
BBX 22 22 1 0
BITMAP
FF87FC
3E01F0
1C00E0
1C00E0
1C00E0
1C00E0
1C00E0
1C00E0
1C00E0
1C00E0
1C00E0
1C00E0
1C00E0
1C00E0
1C00E0
1C00E0
1C00E0
1C00E0
1C38C0
1C38C0
3E3C80
FF9F00
ENDCHAR
STARTCHAR 0133
ENCODING 307
SWIDTH 540 0
DWIDTH 18 0
BBX 14 30 1 -7
BITMAP
381C
381C
381C
0000
0000
0000
0000
0000
180C
783C
F87C
381C
381C
381C
381C
381C
381C
381C
381C
381C
381C
381C
FE1C
001C
001C
001C
0018
0718
0790
03E0
ENDCHAR
STARTCHAR 0134
ENCODING 308
SWIDTH 390 0
DWIDTH 13 0
BBX 12 29 1 0
BITMAP
0380
07C0
0CC0
0860
1010
0000
0000
1FF0
07C0
0380
0380
0380
0380
0380
0380
0380
0380
0380
0380
0380
0380
0380
0380
0380
0380
E300
E300
F200
7C00
ENDCHAR
STARTCHAR 0135
ENCODING 309
SWIDTH 240 0
DWIDTH 8 0
BBX 12 29 -3 -7
BITMAP
0380
07C0
0CC0
0860
1010
0000
0000
0180
0780
0F80
0380
0380
0380
0380
0380
0380
0380
0380
0380
0380
0380
0380
0380
0380
0380
0300
C300
F600
7C00
ENDCHAR
STARTCHAR 0136
ENCODING 310
SWIDTH 690 0
DWIDTH 23 0
BBX 22 29 1 -7
BITMAP
FF87F0
3E01C0
1C0100
1C0200
1C0400
1C0800
1C1000
1C2000
1C4000
1D8000
1FC000
1DE000
1CF000
1C7800
1C3C00
1C1E00
1C0F00
1C0780
1C03C0
1C01E0
3E01F0
FF87FC
000000
00E000
00F000
003000
003000
006000
01C000
ENDCHAR
STARTCHAR 0137
ENCODING 311
SWIDTH 510 0
DWIDTH 17 0
BBX 17 30 0 -7
BITMAP
180000
780000
F80000
380000
380000
380000
380000
380000
383E00
381800
382000
38C000
398000
3A0000
3F0000
3B8000
39C000
38E000
38E000
387000
383800
381C00
FE3F80
000000
038000
03C000
00C000
00C000
018000
070000
ENDCHAR
STARTCHAR 0138
ENCODING 312
SWIDTH 510 0
DWIDTH 17 0
BBX 16 15 1 0
BITMAP
FE7E
3838
3820
3840
3880
3900
3A00
3F00
3B80
39C0
38E0
3870
3838
383C
FE7F
ENDCHAR
STARTCHAR 0139
ENCODING 313
SWIDTH 600 0
DWIDTH 20 0
BBX 19 29 1 0
BITMAP
038000
070000
060000
040000
080000
000000
000000
FF8000
3E0000
1C0000
1C0000
1C0000
1C0000
1C0000
1C0000
1C0000
1C0000
1C0000
1C0000
1C0000
1C0000
1C0000
1C0000
1C0020
1C0060
1C0040
1C00C0
3C01C0
FFFF80
ENDCHAR
STARTCHAR 013A
ENCODING 314
SWIDTH 270 0
DWIDTH 9 0
BBX 7 29 1 0
BITMAP
1C
38
30
20
40
00
18
78
F8
38
38
38
38
38
38
38
38
38
38
38
38
38
38
38
38
38
38
38
FE
ENDCHAR
STARTCHAR 013B
ENCODING 315
SWIDTH 600 0
DWIDTH 20 0
BBX 19 29 1 -7
BITMAP
FF8000
3E0000
1C0000
1C0000
1C0000
1C0000
1C0000
1C0000
1C0000
1C0000
1C0000
1C0000
1C0000
1C0000
1C0000
1C0000
1C0020
1C0060
1C0040
1C00C0
3C01C0
FFFF80
000000
00E000
00F000
003000
003000
006000
01C000
ENDCHAR
STARTCHAR 013C
ENCODING 316
SWIDTH 270 0
DWIDTH 9 0
BBX 7 30 1 -7
BITMAP
18
78
F8
38
38
38
38
38
38
38
38
38
38
38
38
38
38
38
38
38
38
38
FE
00
38
3C
0C
0C
18
70
ENDCHAR
STARTCHAR 013D
ENCODING 317
SWIDTH 600 0
DWIDTH 20 0
BBX 19 22 1 0
BITMAP
FF8700
3E0F80
1C0F80
1C0780
1C0080
1C0080
1C0100
1C0600
1C0800
1C0000
1C0000
1C0000
1C0000
1C0000
1C0000
1C0000
1C0020
1C0060
1C0040
1C00C0
3C01C0
FFFF80
ENDCHAR
STARTCHAR 013E
ENCODING 318
SWIDTH 390 0
DWIDTH 13 0
BBX 12 23 1 0
BITMAP
18E0
79F0
F9F0
3810
3810
3820
3860
3880
3800
3800
3800
3800
3800
3800
3800
3800
3800
3800
3800
3800
3800
3800
FE00
ENDCHAR
STARTCHAR 013F
ENCODING 319
SWIDTH 600 0
DWIDTH 20 0
BBX 19 22 1 0
BITMAP
FF8000
3E0000
1C0000
1C0000
1C0000
1C0000
1C0000
1C0000
1C0000
1C3800
1C3800
1C3800
1C0000
1C0000
1C0000
1C0000
1C0020
1C0060
1C0040
1C00C0
3C01C0
FFFF80
ENDCHAR
STARTCHAR 0140
ENCODING 320
SWIDTH 330 0
DWIDTH 11 0
BBX 10 23 1 0
BITMAP
1800
7800
F800
3800
3800
3800
3800
3800
3800
3800
39C0
39C0
39C0
3800
3800
3800
3800
3800
3800
3800
3800
3800
FE00
ENDCHAR
STARTCHAR 0141
ENCODING 321
SWIDTH 600 0
DWIDTH 20 0
BBX 20 22 0 0
BITMAP
7FC000
1F0000
0E0000
0E0000
0E0000
0E0000
0E0000
0E4000
0E8000
0F0000
0E0000
0E0000
1E0000
2E0000
4E0000
8E0000
0E0010
0E0030
0E0020
0E0060
1E00E0
7FFFC0
ENDCHAR
STARTCHAR 0142
ENCODING 322
SWIDTH 270 0
DWIDTH 9 0
BBX 9 23 0 0
BITMAP
0C00
3C00
7C00
1C00
1C00
1C00
1C00
1C00
1C80
1F00
1C00
1C00
1C00
7C00
9C00
1C00
1C00
1C00
1C00
1C00
1C00
1C00
7F00
ENDCHAR
STARTCHAR 0143
ENCODING 323
SWIDTH 720 0
DWIDTH 24 0
BBX 23 29 0 0
BITMAP
000700
000E00
000C00
000800
001000
000000
000000
FC00FE
3E0038
1F0010
0F0010
0F8010
0BC010
09E010
08F010
08F010
087810
083C10
081E10
080E10
080F10
080790
0803D0
0801F0
0800F0
0800F0
080070
1C0030
7F0010
ENDCHAR
STARTCHAR 0144
ENCODING 324
SWIDTH 480 0
DWIDTH 16 0
BBX 16 22 0 0
BITMAP
00E0
01C0
0180
0100
0200
0000
0000
18F0
79F8
FA3C
3C1C
381C
381C
381C
381C
381C
381C
381C
381C
381C
781C
FE7F
ENDCHAR
STARTCHAR 0145
ENCODING 325
SWIDTH 720 0
DWIDTH 24 0
BBX 23 29 0 -7
BITMAP
FC00FE
3E0038
1F0010
0F0010
0F8010
0BC010
09E010
08F010
08F010
087810
083C10
081E10
080E10
080F10
080790
0803D0
0801F0
0800F0
0800F0
080070
1C0030
7F0010
000000
007000
007800
001800
001800
003000
00E000
ENDCHAR
STARTCHAR 0146
ENCODING 326
SWIDTH 480 0
DWIDTH 16 0
BBX 16 22 0 -7
BITMAP
18F0
79F8
FA3C
3C1C
381C
381C
381C
381C
381C
381C
381C
381C
381C
781C
FE7F
0000
0380
03C0
00C0
00C0
0180
0700
ENDCHAR
STARTCHAR 0147
ENCODING 327
SWIDTH 720 0
DWIDTH 24 0
BBX 23 29 0 0
BITMAP
008080
006100
003300
003E00
001C00
000000
000000
FC00FE
3E0038
1F0010
0F0010
0F8010
0BC010
09E010
08F010
08F010
087810
083C10
081E10
080E10
080F10
080790
0803D0
0801F0
0800F0
0800F0
080070
1C0030
7F0010
ENDCHAR
STARTCHAR 0148
ENCODING 328
SWIDTH 480 0
DWIDTH 16 0
BBX 16 22 0 0
BITMAP
0808
0610
0330
03E0
01C0
0000
0000
18F0
79F8
FA3C
3C1C
381C
381C
381C
381C
381C
381C
381C
381C
381C
781C
FE7F
ENDCHAR
STARTCHAR 0149
ENCODING 329
SWIDTH 600 0
DWIDTH 20 0
BBX 20 22 0 0
BITMAP
700000
F80000
F80000
080000
080000
100000
200000
418F00
079F80
0FA3C0
03C1C0
0381C0
0381C0
0381C0
0381C0
0381C0
0381C0
0381C0
0381C0
0381C0
0781C0
0FE7F0
ENDCHAR
STARTCHAR 014A
ENCODING 330
SWIDTH 690 0
DWIDTH 23 0
BBX 21 22 1 0
BITMAP
FC3F00
3C7FC0
1CC1E0
1D80E0
1F0070
1E0070
1C0078
1C0078
1C0038
1C0038
1C0038
1C0038
1C0038
1C0038
1C0038
1C0030
1C0030
1C1870
1C3C60
1C3C40
3E1C80
FF8F00
ENDCHAR
STARTCHAR 014B
ENCODING 331
SWIDTH 480 0
DWIDTH 16 0
BBX 14 22 0 -7
BITMAP
18F0
79F8
FA3C
3C1C
381C
381C
381C
381C
381C
381C
381C
381C
381C
381C
FE1C
001C
001C
001C
0018
0618
07B0
03E0
ENDCHAR
STARTCHAR 014C
ENCODING 332
SWIDTH 720 0
DWIDTH 24 0
BBX 22 26 1 0
BITMAP
03FF00
03FF00
000000
000000
00FC00
070380
0E01C0
1C00E0
380070
780078
780078
F00038
F0003C
F0003C
F0003C
F0003C
F0003C
F0003C
F00038
780038
780078
380070
1C00E0
0E01C0
070780
01FC00
ENDCHAR
STARTCHAR 014D
ENCODING 333
SWIDTH 480 0
DWIDTH 16 0
BBX 14 20 1 0
BITMAP
3FF0
3FF0
0000
0000
0000
0780
18E0
3070
6038
6038
E01C
E01C
E01C
E01C
E01C
7018
7018
3830
1C60
07C0
ENDCHAR
STARTCHAR 014E
ENCODING 334
SWIDTH 720 0
DWIDTH 24 0
BBX 22 28 1 0
BITMAP
010100
018300
00FE00
007C00
000000
000000
00FC00
070380
0E01C0
1C00E0
380070
780078
780078
F00038
F0003C
F0003C
F0003C
F0003C
F0003C
F0003C
F00038
780038
780078
380070
1C00E0
0E01C0
070780
01FC00
ENDCHAR
STARTCHAR 014F
ENCODING 335
SWIDTH 480 0
DWIDTH 16 0
BBX 14 21 1 0
BITMAP
2020
3060
1FC0
0F80
0000
0000
0780
18E0
3070
6038
6038
E01C
E01C
E01C
E01C
E01C
7018
7018
3830
1C60
07C0
ENDCHAR
STARTCHAR 0150
ENCODING 336
SWIDTH 720 0
DWIDTH 24 0
BBX 22 29 1 0
BITMAP
007380
006300
00E700
00C600
008400
000000
000000
00FC00
070380
0E01C0
1C00E0
380070
780078
780078
F00038
F0003C
F0003C
F0003C
F0003C
F0003C
F0003C
F00038
780038
780078
380070
1C00E0
0E01C0
070780
01FC00
ENDCHAR
STARTCHAR 0151
ENCODING 337
SWIDTH 480 0
DWIDTH 16 0
BBX 14 22 1 0
BITMAP
0E70
0C60
1CE0
18C0
1080
0000
0000
0780
18E0
3070
6038
6038
E01C
E01C
E01C
E01C
E01C
7018
7018
3830
1C60
07C0
ENDCHAR
STARTCHAR 0152
ENCODING 338
SWIDTH 870 0
DWIDTH 29 0
BBX 27 22 1 0
BITMAP
01FFFFC0
070780C0
1E0380C0
1C038040
38038040
78038000
78038000
F0038200
F0038200
F0038600
F003FE00
F0038600
F0038200
F0038200
F0038000
78038000
78038020
38038060
3C038040
1E0380C0
070781C0
01FFFF80
ENDCHAR
STARTCHAR 0153
ENCODING 339
SWIDTH 720 0
DWIDTH 24 0
BBX 22 15 1 0
BITMAP
0FC3E0
18E630
307C38
60381C
60381C
E01FFC
E01800
E01800
E01800
E01C04
F01C04
701E18
383FF8
1C67F0
0F83E0
ENDCHAR
STARTCHAR 0154
ENCODING 340
SWIDTH 660 0
DWIDTH 22 0
BBX 21 29 1 0
BITMAP
007000
00E000
00C000
008000
010000
000000
000000
FFF800
3E1E00
1C0F00
1C0700
1C0780
1C0380
1C0380
1C0780
1C0700
1C0F00
1C3C00
1FF000
1C7000
1C7800
1C3800
1C1C00
1C1E00
1C0E00
1C0700
1C0780
3E03C0
FF81F8
ENDCHAR
STARTCHAR 0155
ENCODING 341
SWIDTH 330 0
DWIDTH 11 0
BBX 11 22 0 0
BITMAP
01C0
0380
0300
0200
0400
0000
0000
19C0
7BE0
FCE0
3C00
3800
3800
3800
3800
3800
3800
3800
3800
3800
3800
FE00
ENDCHAR
STARTCHAR 0156
ENCODING 342
SWIDTH 660 0
DWIDTH 22 0
BBX 21 29 1 -7
BITMAP
FFF800
3E1E00
1C0F00
1C0700
1C0780
1C0380
1C0380
1C0780
1C0700
1C0F00
1C3C00
1FF000
1C7000
1C7800
1C3800
1C1C00
1C1E00
1C0E00
1C0700
1C0780
3E03C0
FF81F8
000000
00E000
00F000
003000
003000
006000
01C000
ENDCHAR
STARTCHAR 0157
ENCODING 343
SWIDTH 330 0
DWIDTH 11 0
BBX 11 22 0 -7
BITMAP
19C0
7BE0
FCE0
3C00
3800
3800
3800
3800
3800
3800
3800
3800
3800
3800
FE00
0000
1C00
1E00
0600
0600
0C00
3800
ENDCHAR
STARTCHAR 0158
ENCODING 344
SWIDTH 660 0
DWIDTH 22 0
BBX 21 29 1 0
BITMAP
080800
061000
033000
03E000
01C000
000000
000000
FFF800
3E1E00
1C0F00
1C0700
1C0780
1C0380
1C0380
1C0780
1C0700
1C0F00
1C3C00
1FF000
1C7000
1C7800
1C3800
1C1C00
1C1E00
1C0E00
1C0700
1C0780
3E03C0
FF81F8
ENDCHAR
STARTCHAR 0159
ENCODING 345
SWIDTH 330 0
DWIDTH 11 0
BBX 11 22 0 0
BITMAP
4040
3080
1980
1F00
0E00
0000
0000
19C0
7BE0
FCE0
3C00
3800
3800
3800
3800
3800
3800
3800
3800
3800
3800
FE00
ENDCHAR
STARTCHAR 015A
ENCODING 346
SWIDTH 540 0
DWIDTH 18 0
BBX 14 29 2 0
BITMAP
01C0
0380
0300
0200
0400
0000
0000
0F88
38F8
7038
E018
E018
E008
F008
F808
7E00
7F00
1FC0
0FE0
03F0
01F8
807C
803C
801C
C01C
C018
E038
F870
8FC0
ENDCHAR
STARTCHAR 015B
ENCODING 347
SWIDTH 360 0
DWIDTH 12 0
BBX 10 22 1 0
BITMAP
0380
0700
0600
0400
0800
0000
0000
3C80
6380
C180
C080
E080
F000
7C00
3F00
0F80
03C0
81C0
C0C0
C0C0
E180
9E00
ENDCHAR
STARTCHAR 015C
ENCODING 348
SWIDTH 540 0
DWIDTH 18 0
BBX 14 29 2 0
BITMAP
0380
07C0
0CC0
0860
1010
0000
0000
0F88
38F8
7038
E018
E018
E008
F008
F808
7E00
7F00
1FC0
0FE0
03F0
01F8
807C
803C
801C
C01C
C018
E038
F870
8FC0
ENDCHAR
STARTCHAR 015D
ENCODING 349
SWIDTH 360 0
DWIDTH 12 0
BBX 10 22 1 0
BITMAP
0E00
1F00
3300
2180
4040
0000
0000
3C80
6380
C180
C080
E080
F000
7C00
3F00
0F80
03C0
81C0
C0C0
C0C0
E180
9E00
ENDCHAR
STARTCHAR 015E
ENCODING 350
SWIDTH 540 0
DWIDTH 18 0
BBX 14 29 2 -7
BITMAP
0F88
38F8
7038
E018
E018
E008
F008
F808
7E00
7F00
1FC0
0FE0
03F0
01F8
807C
803C
801C
C01C
C018
E038
F870
8FC0
0100
0380
07C0
01C0
01C0
0380
0F00
ENDCHAR
STARTCHAR 015F
ENCODING 351
SWIDTH 360 0
DWIDTH 12 0
BBX 10 22 1 -7
BITMAP
3C80
6380
C180
C080
E080
F000
7C00
3F00
0F80
03C0
81C0
C0C0
C0C0
E180
9F00
0400
0E00
1F00
0700
0700
0E00
3C00
ENDCHAR
STARTCHAR 0160
ENCODING 352
SWIDTH 540 0
DWIDTH 18 0
BBX 14 29 2 0
BITMAP
2020
1840
0CC0
0F80
0700
0000
0000
0F88
38F8
7038
E018
E018
E008
F008
F808
7E00
7F00
1FC0
0FE0
03F0
01F8
807C
803C
801C
C01C
C018
E038
F870
8FC0
ENDCHAR
STARTCHAR 0161
ENCODING 353
SWIDTH 360 0
DWIDTH 12 0
BBX 10 22 1 0
BITMAP
4040
3080
1980
1F00
0E00
0000
0000
3C80
6380
C180
C080
E080
F000
7C00
3F00
0F80
03C0
81C0
C0C0
C0C0
E180
9E00
ENDCHAR
STARTCHAR 0162
ENCODING 354
SWIDTH 600 0
DWIDTH 20 0
BBX 18 30 1 -8
BITMAP
FFFFC0
C0E0C0
80E040
80E040
00E000
00E000
00E000
00E000
00E000
00E000
00E000
00E000
00E000
00E000
00E000
00E000
00E000
00E000
00E000
00E000
01F000
07FC00
000000
000000
00E000
00F000
00F000
001000
002000
00C000
ENDCHAR
STARTCHAR 0163
ENCODING 355
SWIDTH 270 0
DWIDTH 9 0
BBX 9 27 1 -7
BITMAP
0800
1800
1800
3800
7800
FF00
3800
3800
3800
3800
3800
3800
3800
3800
3800
3800
3800
3880
3F00
1E00
0000
3800
3C00
3C00
0400
0800
3000
ENDCHAR
STARTCHAR 0164
ENCODING 356
SWIDTH 630 0
DWIDTH 21 0
BBX 19 29 1 0
BITMAP
040400
030800
019800
01F000
00E000
000000
000000
FFFFE0
E0E0E0
C0E060
80E020
80E020
00E000
00E000
00E000
00E000
00E000
00E000
00E000
00E000
00E000
00E000
00E000
00E000
00E000
00E000
00E000
01F000
07FC00
ENDCHAR
STARTCHAR 0165
ENCODING 357
SWIDTH 420 0
DWIDTH 14 0
BBX 15 23 0 0
BITMAP
001C
003E
003E
0402
0C02
0C04
1C08
3C10
FF80
1C00
1C00
1C00
1C00
1C00
1C00
1C00
1C00
1C00
1C00
1C00
1C40
1F80
0F00
ENDCHAR
STARTCHAR 0166
ENCODING 358
SWIDTH 630 0
DWIDTH 21 0
BBX 19 22 1 0
BITMAP
FFFFE0
E0E0E0
C0E060
80E020
80E020
00E000
00E000
00E000
00E000
00E000
3FFF80
00E000
00E000
00E000
00E000
00E000
00E000
00E000
00E000
00E000
01F000
07FC00
ENDCHAR
STARTCHAR 0167
ENCODING 359
SWIDTH 270 0
DWIDTH 9 0
BBX 10 20 -1 0
BITMAP
0400
0C00
0C00
1C00
3C00
FF80
1C00
1C00
1C00
1C00
FF80
1C00
1C00
1C00
1C00
1C00
1C00
1C40
1F80
0F00
ENDCHAR
STARTCHAR 0168
ENCODING 360
SWIDTH 690 0
DWIDTH 23 0
BBX 23 28 0 0
BITMAP
00F080
01F980
011F80
010F00
000000
000000
FF80FE
3E0038
1C0010
1C0010
1C0010
1C0010
1C0010
1C0010
1C0010
1C0010
1C0010
1C0010
1C0010
1C0010
1C0010
1C0010
1C0010
1C0020
0E0020
070040
038180
00FE00
ENDCHAR
STARTCHAR 0169
ENCODING 361
SWIDTH 510 0
DWIDTH 17 0
BBX 16 22 0 0
BITMAP
0F08
1F98
11F8
10F0
0000
0000
0000
F87C
381C
381C
381C
381C
381C
381C
381C
381C
381C
381C
383C
3C5F
1F9E
0F18
ENDCHAR
STARTCHAR 016A
ENCODING 362
SWIDTH 690 0
DWIDTH 23 0
BBX 23 26 0 0
BITMAP
01FF80
01FF80
000000
000000
FF80FE
3E0038
1C0010
1C0010
1C0010
1C0010
1C0010
1C0010
1C0010
1C0010
1C0010
1C0010
1C0010
1C0010
1C0010
1C0010
1C0010
1C0020
0E0020
070040
038180
00FE00
ENDCHAR
STARTCHAR 016B
ENCODING 363
SWIDTH 510 0
DWIDTH 17 0
BBX 16 20 0 0
BITMAP
1FF8
1FF8
0000
0000
0000
F87C
381C
381C
381C
381C
381C
381C
381C
381C
381C
381C
383C
3C5F
1F9E
0F18
ENDCHAR
STARTCHAR 016C
ENCODING 364
SWIDTH 690 0
DWIDTH 23 0
BBX 23 28 0 0
BITMAP
010100
018300
00FE00
007C00
000000
000000
FF80FE
3E0038
1C0010
1C0010
1C0010
1C0010
1C0010
1C0010
1C0010
1C0010
1C0010
1C0010
1C0010
1C0010
1C0010
1C0010
1C0010
1C0020
0E0020
070040
038180
00FE00
ENDCHAR
STARTCHAR 016D
ENCODING 365
SWIDTH 510 0
DWIDTH 17 0
BBX 16 21 0 0
BITMAP
0808
0C18
07F0
03E0
0000
0000
F87C
381C
381C
381C
381C
381C
381C
381C
381C
381C
381C
383C
3C5F
1F9E
0F18
ENDCHAR
STARTCHAR 016E
ENCODING 366
SWIDTH 690 0
DWIDTH 23 0
BBX 23 30 0 0
BITMAP
003C00
006600
004200
004200
006600
003C00
000000
000000
FF80FE
3E0038
1C0010
1C0010
1C0010
1C0010
1C0010
1C0010
1C0010
1C0010
1C0010
1C0010
1C0010
1C0010
1C0010
1C0010
1C0010
1C0020
0E0020
070040
038180
00FE00
ENDCHAR
STARTCHAR 016F
ENCODING 367
SWIDTH 510 0
DWIDTH 17 0
BBX 16 23 0 0
BITMAP
03C0
0660
0420
0420
0660
03C0
0000
0000
F87C
381C
381C
381C
381C
381C
381C
381C
381C
381C
381C
383C
3C5F
1F9E
0F18
ENDCHAR
STARTCHAR 0170
ENCODING 368
SWIDTH 690 0
DWIDTH 23 0
BBX 23 29 0 0
BITMAP
0039C0
003180
007380
006300
004200
000000
000000
FF80FE
3E0038
1C0010
1C0010
1C0010
1C0010
1C0010
1C0010
1C0010
1C0010
1C0010
1C0010
1C0010
1C0010
1C0010
1C0010
1C0010
1C0020
0E0020
070040
038180
00FE00
ENDCHAR
STARTCHAR 0171
ENCODING 369
SWIDTH 510 0
DWIDTH 17 0
BBX 16 22 0 0
BITMAP
0738
0630
0E70
0C60
0840
0000
0000
F87C
381C
381C
381C
381C
381C
381C
381C
381C
381C
381C
383C
3C5F
1F9E
0F18
ENDCHAR
STARTCHAR 0172
ENCODING 370
SWIDTH 690 0
DWIDTH 23 0
BBX 23 28 0 -6
BITMAP
FF80FE
3E0038
1C0010
1C0010
1C0010
1C0010
1C0010
1C0010
1C0010
1C0010
1C0010
1C0010
1C0010
1C0010
1C0010
1C0010
1C0010
1C0020
0E0020
070040
038180
00FE00
000800
001800
001800
001800
001C00
000F80
ENDCHAR
STARTCHAR 0173
ENCODING 371
SWIDTH 510 0
DWIDTH 17 0
BBX 16 21 0 -6
BITMAP
F87C
381C
381C
381C
381C
381C
381C
381C
381C
381C
381C
383C
3C5F
1F9E
0F18
0010
0030
0030
0030
0038
001F
ENDCHAR
STARTCHAR 0174
ENCODING 372
SWIDTH 930 0
DWIDTH 31 0
BBX 29 29 1 0
BITMAP
00070000
000F8000
00198000
0010C000
00202000
00000000
00000000
FE3FC1F8
7C0F0070
380F0020
1C070060
1C070040
1C038040
0E0380C0
0E038080
0E03C080
0707C180
0705C100
0704E100
038CE100
0388F200
03887200
01D07200
01D03C00
01F03C00
00E03C00
00E01800
00601800
00401800
ENDCHAR
STARTCHAR 0175
ENCODING 373
SWIDTH 690 0
DWIDTH 23 0
BBX 23 22 0 0
BITMAP
003800
007C00
00CC00
008600
010100
000000
000000
FC7F1E
781C04
381C08
380E08
1C0E08
1C1E10
1C1710
0E3710
0E23A0
0763A0
0743A0
0741C0
0381C0
0380C0
010080
ENDCHAR
STARTCHAR 0176
ENCODING 374
SWIDTH 720 0
DWIDTH 24 0
BBX 22 29 1 0
BITMAP
007000
00F800
019800
010C00
020200
000000
000000
FF01FC
7C00F0
1C0040
1C00C0
0E0080
070100
070200
038200
01C400
01C400
00E800
007000
007000
007000
007000
007000
007000
007000
007000
007000
00F800
03FE00
ENDCHAR
STARTCHAR 0177
ENCODING 375
SWIDTH 480 0
DWIDTH 16 0
BBX 16 29 0 -7
BITMAP
01C0
03E0
0660
0430
0808
0000
0000
FE0F
7806
3804
1C04
1C08
0E08
0E18
0710
0710
03A0
03A0
01E0
01C0
00C0
0080
0080
0080
0100
0100
7200
7C00
3800
ENDCHAR
STARTCHAR 0178
ENCODING 376
SWIDTH 720 0
DWIDTH 24 0
BBX 22 27 1 0
BITMAP
01CE00
01CE00
01CE00
000000
000000
FF01FC
7C00F0
1C0040
1C00C0
0E0080
070100
070200
038200
01C400
01C400
00E800
007000
007000
007000
007000
007000
007000
007000
007000
007000
00F800
03FE00
ENDCHAR
STARTCHAR 0179
ENCODING 377
SWIDTH 600 0
DWIDTH 20 0
BBX 19 29 0 0
BITMAP
003800
007000
006000
004000
008000
000000
000000
1FFFC0
180380
300700
200700
200E00
001C00
003C00
003800
007000
00E000
00E000
01C000
038000
038000
070000
0E0000
0E0020
1C0020
380060
700040
7000C0
FFFFC0
ENDCHAR
STARTCHAR 017A
ENCODING 378
SWIDTH 420 0
DWIDTH 14 0
BBX 13 22 0 0
BITMAP
01C0
0380
0300
0200
0400
0000
0000
7FF8
6070
4070
00E0
01C0
0380
0380
0700
0E00
0E00
1C00
3808
7008
7018
FFF8
ENDCHAR
STARTCHAR 017B
ENCODING 379
SWIDTH 600 0
DWIDTH 20 0
BBX 19 27 0 0
BITMAP
00E000
00E000
00E000
000000
000000
1FFFC0
180380
300700
200700
200E00
001C00
003C00
003800
007000
00E000
00E000
01C000
038000
038000
070000
0E0000
0E0020
1C0020
380060
700040
7000C0
FFFFC0
ENDCHAR
STARTCHAR 017C
ENCODING 380
SWIDTH 420 0
DWIDTH 14 0
BBX 13 20 0 0
BITMAP
0700
0700
0700
0000
0000
7FF8
6070
4070
00E0
01C0
0380
0380
0700
0E00
0E00
1C00
3808
7008
7018
FFF8
ENDCHAR
STARTCHAR 017D
ENCODING 381
SWIDTH 600 0
DWIDTH 20 0
BBX 19 29 0 0
BITMAP
040400
030800
019800
01F000
00E000
000000
000000
1FFFC0
180380
300700
200700
200E00
001C00
003C00
003800
007000
00E000
00E000
01C000
038000
038000
070000
0E0000
0E0020
1C0020
380060
700040
7000C0
FFFFC0
ENDCHAR
STARTCHAR 017E
ENCODING 382
SWIDTH 420 0
DWIDTH 14 0
BBX 13 22 0 0
BITMAP
2020
1840
0CC0
0F80
0700
0000
0000
7FF8
6070
4070
00E0
01C0
0380
0380
0700
0E00
0E00
1C00
3808
7008
7018
FFF8
ENDCHAR
STARTCHAR 017F
ENCODING 383
SWIDTH 270 0
DWIDTH 9 0
BBX 12 23 1 0
BITMAP
03C0
0CE0
1870
1830
3800
3800
3800
3800
3800
3800
3800
3800
3800
3800
3800
3800
3800
3800
3800
3800
3800
3800
FE00
ENDCHAR
STARTCHAR 018F
ENCODING 399
SWIDTH 720 0
DWIDTH 24 0
BBX 22 22 1 0
BITMAP
08FE00
0F8780
0E01C0
0C00E0
1800F0
180078
100078
100038
00003C
00003C
FFFFFC
F0003C
F0003C
F0003C
F0003C
780078
780078
3C00F0
1C00E0
0E01C0
078780
01FE00
ENDCHAR
STARTCHAR 0192
ENCODING 402
SWIDTH 510 0
DWIDTH 17 0
BBX 16 29 0 -7
BITMAP
000E
001B
003B
0038
0070
0070
0070
00F0
07FC
00E0
00E0
00E0
01C0
01C0
01C0
01C0
03C0
0380
0380
0380
0300
0700
0700
0600
0600
0E00
CC00
D800
7000
ENDCHAR
STARTCHAR 01A0
ENCODING 416
SWIDTH 720 0
DWIDTH 24 0
BBX 22 25 1 0
BITMAP
000010
000038
000038
00FC18
0703F0
0E0180
1C00E0
380070
780070
780078
F00038
F0003C
F0003C
F0003C
F0003C
F0003C
F0003C
F0003C
780078
780078
380070
1C00E0
0E01C0
070380
01FC00
ENDCHAR
STARTCHAR 01A1
ENCODING 417
SWIDTH 510 0
DWIDTH 17 0
BBX 16 16 1 0
BITMAP
0002
0F87
18E7
3073
603E
6038
E01C
E01C
E01C
E01C
E01C
7018
7018
3830
1C60
0FC0
ENDCHAR
STARTCHAR 01AF
ENCODING 431
SWIDTH 780 0
DWIDTH 26 0
BBX 27 26 0 0
BITMAP
000000C0
000000E0
000000E0
00000060
FF80FFC0
3E003800
1C001000
1C001000
1C001000
1C001000
1C001000
1C001000
1C001000
1C001000
1C001000
1C001000
1C001000
1C001000
1C001000
1C001000
1C001000
1C002000
0E002000
07004000
03818000
00FE0000
ENDCHAR
STARTCHAR 01B0
ENCODING 432
SWIDTH 540 0
DWIDTH 18 0
BBX 18 16 0 0
BITMAP
000080
F87DC0
381DC0
381CC0
381F80
381C00
381C00
381C00
381C00
381C00
381C00
381C00
383C00
3C5F00
1F9E00
0F1800
ENDCHAR
STARTCHAR 01CD
ENCODING 461
SWIDTH 690 0
DWIDTH 23 0
BBX 23 29 1 0
BITMAP
010100
00C200
006600
007C00
003800
000000
000000
001000
003800
003800
003C00
005C00
005C00
008E00
008E00
010E00
010700
020700
020380
020380
040380
07FFC0
0801C0
0801C0
1000E0
1000E0
200070
7000F8
FC03FE
ENDCHAR
STARTCHAR 01CE
ENCODING 462
SWIDTH 450 0
DWIDTH 15 0
BBX 14 22 1 0
BITMAP
2020
1840
0CC0
0F80
0700
0000
0000
0F80
39C0
70E0
70E0
60E0
01E0
06E0
18E0
30E0
60E0
E0E0
E0E0
F1E4
7EF8
3870
ENDCHAR
STARTCHAR 01CF
ENCODING 463
SWIDTH 330 0
DWIDTH 11 0
BBX 9 29 1 0
BITMAP
8080
6100
3300
3E00
1C00
0000
0000
FF80
3E00
1C00
1C00
1C00
1C00
1C00
1C00
1C00
1C00
1C00
1C00
1C00
1C00
1C00
1C00
1C00
1C00
1C00
1C00
3E00
FF80
ENDCHAR
STARTCHAR 01D0
ENCODING 464
SWIDTH 270 0
DWIDTH 9 0
BBX 9 22 0 0
BITMAP
8080
6100
3300
3E00
1C00
0000
0000
0C00
3C00
7C00
1C00
1C00
1C00
1C00
1C00
1C00
1C00
1C00
1C00
1C00
1C00
7F00
ENDCHAR
STARTCHAR 01D1
ENCODING 465
SWIDTH 720 0
DWIDTH 24 0
BBX 22 29 1 0
BITMAP
010100
00C200
006600
007C00
003800
000000
000000
00FC00
070380
0E01C0
1C00E0
380070
780078
780078
F00038
F0003C
F0003C
F0003C
F0003C
F0003C
F0003C
F00038
780038
780078
380070
1C00E0
0E01C0
070780
01FC00
ENDCHAR
STARTCHAR 01D2
ENCODING 466
SWIDTH 480 0
DWIDTH 16 0
BBX 14 22 1 0
BITMAP
1010
0C20
0660
07C0
0380
0000
0000
0780
18E0
3070
6038
6038
E01C
E01C
E01C
E01C
E01C
7018
7018
3830
1C60
07C0
ENDCHAR
STARTCHAR 01D3
ENCODING 467
SWIDTH 690 0
DWIDTH 23 0
BBX 23 29 0 0
BITMAP
010100
00C200
006600
007C00
003800
000000
000000
FF80FE
3E0038
1C0010
1C0010
1C0010
1C0010
1C0010
1C0010
1C0010
1C0010
1C0010
1C0010
1C0010
1C0010
1C0010
1C0010
1C0010
1C0020
0E0020
070040
038180
00FE00
ENDCHAR
STARTCHAR 01D4
ENCODING 468
SWIDTH 510 0
DWIDTH 17 0
BBX 16 22 0 0
BITMAP
1010
0C20
0660
07C0
0380
0000
0000
F87C
381C
381C
381C
381C
381C
381C
381C
381C
381C
381C
383C
3C5F
1F9E
0F18
ENDCHAR
STARTCHAR 01D5
ENCODING 469
SWIDTH 690 0
DWIDTH 23 0
BBX 23 29 0 0
BITMAP
00FF00
00FF00
000000
00C300
00C300
000000
000000
FF80FE
3E0038
1C0010
1C0010
1C0010
1C0010
1C0010
1C0010
1C0010
1C0010
1C0010
1C0010
1C0010
1C0010
1C0010
1C0010
1C0010
1C0020
0E0020
070040
038180
00FE00
ENDCHAR
STARTCHAR 01D6
ENCODING 470
SWIDTH 510 0
DWIDTH 17 0
BBX 16 25 0 0
BITMAP
1FF8
1FF8
0000
0000
0000
0E70
0E70
0E70
0000
0000
F87C
381C
381C
381C
381C
381C
381C
381C
381C
381C
381C
383C
3C5F
1F9E
0F18
ENDCHAR
STARTCHAR 01D7
ENCODING 471
SWIDTH 690 0
DWIDTH 23 0
BBX 23 29 0 0
BITMAP
000E00
000C00
001800
00C300
00C300
000000
000000
FF80FE
3E0038
1C0010
1C0010
1C0010
1C0010
1C0010
1C0010
1C0010
1C0010
1C0010
1C0010
1C0010
1C0010
1C0010
1C0010
1C0010
1C0020
0E0020
070040
038180
00FE00
ENDCHAR
STARTCHAR 01D8
ENCODING 472
SWIDTH 510 0
DWIDTH 17 0
BBX 16 27 0 0
BITMAP
00E0
01C0
0180
0100
0200
0000
0000
0E70
0E70
0E70
0000
0000
F87C
381C
381C
381C
381C
381C
381C
381C
381C
381C
381C
383C
3C5F
1F9E
0F18
ENDCHAR
STARTCHAR 01D9
ENCODING 473
SWIDTH 690 0
DWIDTH 23 0
BBX 23 29 0 0
BITMAP
00C600
007C00
003800
00C300
00C300
000000
000000
FF80FE
3E0038
1C0010
1C0010
1C0010
1C0010
1C0010
1C0010
1C0010
1C0010
1C0010
1C0010
1C0010
1C0010
1C0010
1C0010
1C0010
1C0020
0E0020
070040
038180
00FE00
ENDCHAR
STARTCHAR 01DA
ENCODING 474
SWIDTH 510 0
DWIDTH 17 0
BBX 16 27 0 0
BITMAP
0808
0610
0330
03E0
01C0
0000
0000
0E70
0E70
0E70
0000
0000
F87C
381C
381C
381C
381C
381C
381C
381C
381C
381C
381C
383C
3C5F
1F9E
0F18
ENDCHAR
STARTCHAR 01DB
ENCODING 475
SWIDTH 690 0
DWIDTH 23 0
BBX 23 29 0 0
BITMAP
007000
003000
001800
00C300
00C300
000000
000000
FF80FE
3E0038
1C0010
1C0010
1C0010
1C0010
1C0010
1C0010
1C0010
1C0010
1C0010
1C0010
1C0010
1C0010
1C0010
1C0010
1C0010
1C0020
0E0020
070040
038180
00FE00
ENDCHAR
STARTCHAR 01DC
ENCODING 476
SWIDTH 510 0
DWIDTH 17 0
BBX 16 27 0 0
BITMAP
0700
0380
0180
0080
0040
0000
0000
0E70
0E70
0E70
0000
0000
F87C
381C
381C
381C
381C
381C
381C
381C
381C
381C
381C
383C
3C5F
1F9E
0F18
ENDCHAR
STARTCHAR 01FA
ENCODING 506
SWIDTH 690 0
DWIDTH 23 0
BBX 23 33 1 0
BITMAP
001C00
003800
003000
002000
004000
000000
007800
00CC00
008400
008400
00CC00
007800
003800
003800
003C00
005C00
005C00
008E00
008E00
010E00
010700
020700
020380
020380
040380
07FFC0
0801C0
0801C0
1000E0
1000E0
200070
7000F8
FC03FE
ENDCHAR
STARTCHAR 01FB
ENCODING 507
SWIDTH 450 0
DWIDTH 15 0
BBX 14 29 1 0
BITMAP
0380
0700
0600
0400
0800
0000
0F00
1980
1080
1080
1980
0F00
0000
0000
0F80
39C0
70E0
70E0
60E0
01E0
06E0
18E0
30E0
60E0
E0E0
E0E0
F1E4
7EF8
3870
ENDCHAR
STARTCHAR 01FC
ENCODING 508
SWIDTH 870 0
DWIDTH 29 0
BBX 28 29 0 0
BITMAP
00038000
00070000
00060000
00040000
00080000
00000000
00000000
00FFFFC0
001F00C0
001700C0
00170040
00270040
00270000
00470000
00470100
00870100
00870300
0107FF00
01070300
03FF0100
04070100
04070000
08070000
08070010
10070030
10070020
30070060
700F00E0
FC3FFFC0
ENDCHAR
STARTCHAR 01FD
ENCODING 509
SWIDTH 660 0
DWIDTH 22 0
BBX 20 22 1 0
BITMAP
003800
007000
006000
004000
008000
000000
000000
0F8F80
39D8E0
70F0E0
70E070
70E070
01FFF0
0EE000
38E000
70E000
E0E010
E0F030
E07860
F1FFE0
7F3FC0
3C1F00
ENDCHAR
STARTCHAR 01FE
ENCODING 510
SWIDTH 720 0
DWIDTH 24 0
BBX 22 29 1 0
BITMAP
001C00
003800
003000
002000
004000
000000
000000
00FC08
070390
0E01E0
1C00E0
3800F0
7801F8
780138
F0023C
F0043C
F0083C
F0103C
F0203C
F0403C
F0403C
708038
790078
7A0078
3C0070
1C00E0
1E01C0
170380
20FC00
ENDCHAR
STARTCHAR 01FF
ENCODING 511
SWIDTH 510 0
DWIDTH 17 0
BBX 15 22 1 0
BITMAP
01C0
0380
0300
0200
0400
0000
0002
07C2
1874
3038
601C
603E
E05E
E08E
E10E
E20E
E40E
780C
700C
3818
5C30
8FC0
ENDCHAR
STARTCHAR 0259
ENCODING 601
SWIDTH 420 0
DWIDTH 14 0
BBX 12 15 1 0
BITMAP
0F00
3FC0
7FE0
61E0
C0F0
8070
0070
0030
0030
FFF0
E030
E060
7060
30C0
1F00
ENDCHAR
STARTCHAR 02C6
ENCODING 710
SWIDTH 330 0
DWIDTH 11 0
BBX 9 5 1 18
BITMAP
1C00
3E00
6600
4300
8080
ENDCHAR
STARTCHAR 02C7
ENCODING 711
SWIDTH 330 0
DWIDTH 11 0
BBX 9 5 1 17
BITMAP
8080
6100
3300
3E00
1C00
ENDCHAR
STARTCHAR 02C9
ENCODING 713
SWIDTH 330 0
DWIDTH 11 0
BBX 10 2 1 20
BITMAP
FFC0
FFC0
ENDCHAR
STARTCHAR 02D8
ENCODING 728
SWIDTH 330 0
DWIDTH 11 0
BBX 9 4 1 18
BITMAP
8080
C180
7F00
3E00
ENDCHAR
STARTCHAR 02D9
ENCODING 729
SWIDTH 300 0
DWIDTH 10 0
BBX 3 3 3 19
BITMAP
E0
E0
E0
ENDCHAR
STARTCHAR 02DA
ENCODING 730
SWIDTH 330 0
DWIDTH 11 0
BBX 6 6 2 17
BITMAP
78
CC
84
84
CC
78
ENDCHAR
STARTCHAR 02DB
ENCODING 731
SWIDTH 330 0
DWIDTH 11 0
BBX 6 6 3 -6
BITMAP
40
C0
C0
C0
E0
7C
ENDCHAR
STARTCHAR 02DC
ENCODING 732
SWIDTH 330 0
DWIDTH 11 0
BBX 10 4 1 19
BITMAP
7840
FCC0
8FC0
8780
ENDCHAR
STARTCHAR 02DD
ENCODING 733
SWIDTH 330 0
DWIDTH 11 0
BBX 9 5 1 17
BITMAP
7380
6300
E700
C600
8400
ENDCHAR
STARTCHAR 0300
ENCODING 768
SWIDTH 0 0
DWIDTH 0 0
BBX 5 5 -7 24
BITMAP
E0
70
30
10
08
ENDCHAR
STARTCHAR 0301
ENCODING 769
SWIDTH 0 0
DWIDTH 0 0
BBX 5 5 -7 24
BITMAP
38
70
60
40
80
ENDCHAR
STARTCHAR 0303
ENCODING 771
SWIDTH 0 0
DWIDTH 0 0
BBX 11 4 -13 24
BITMAP
7820
7E60
CFC0
8380
ENDCHAR
STARTCHAR 0309
ENCODING 777
SWIDTH 0 0
DWIDTH 0 0
BBX 5 5 -7 24
BITMAP
70
88
88
10
20
ENDCHAR
STARTCHAR 0323
ENCODING 803
SWIDTH 0 0
DWIDTH 0 0
BBX 3 3 -15 -5
BITMAP
E0
E0
E0
ENDCHAR
STARTCHAR 037E
ENCODING 894
SWIDTH 270 0
DWIDTH 9 0
BBX 5 20 2 -5
BITMAP
E0
E0
E0
00
00
00
00
00
00
00
00
00
70
F8
F8
08
08
10
20
C0
ENDCHAR
STARTCHAR 0384
ENCODING 900
SWIDTH 300 0
DWIDTH 10 0
BBX 5 5 3 17
BITMAP
38
70
60
40
80
ENDCHAR
STARTCHAR 0385
ENCODING 901
SWIDTH 330 0
DWIDTH 11 0
BBX 11 5 -1 17
BITMAP
0300
0600
E6E0
E4E0
E8E0
ENDCHAR
STARTCHAR 0386
ENCODING 902
SWIDTH 690 0
DWIDTH 23 0
BBX 23 22 1 0
BITMAP
1C1000
383800
303800
203C00
405C00
005C00
008E00
008E00
010E00
010700
020700
020380
020380
040380
07FFC0
0801C0
0801C0
1000E0
1000E0
200070
7000F8
FC03FE
ENDCHAR
STARTCHAR 0387
ENCODING 903
SWIDTH 270 0
DWIDTH 9 0
BBX 4 4 2 12
BITMAP
60
F0
F0
60
ENDCHAR
STARTCHAR 0388
ENCODING 904
SWIDTH 690 0
DWIDTH 23 0
BBX 25 22 -2 0
BITMAP
3BFFFE00
70F00E00
60700600
40700200
80700200
00700000
00700000
00701000
00701000
00703000
007FF000
00703000
00701000
00701000
00700000
00700000
00700080
00700180
00700100
00700300
00F00700
03FFFE00
ENDCHAR
STARTCHAR 0389
ENCODING 905
SWIDTH 810 0
DWIDTH 27 0
BBX 28 22 -2 0
BITMAP
3BFE1FF0
70F807C0
60700380
40700380
80700380
00700380
00700380
00700380
00700380
00700380
007FFF80
00700380
00700380
00700380
00700380
00700380
00700380
00700380
00700380
00700380
00F807C0
03FE1FF0
ENDCHAR
STARTCHAR 038A
ENCODING 906
SWIDTH 420 0
DWIDTH 14 0
BBX 15 22 -2 0
BITMAP
3BFE
70F8
6070
4070
8070
0070
0070
0070
0070
0070
0070
0070
0070
0070
0070
0070
0070
0070
0070
0070
00F8
03FE
ENDCHAR
STARTCHAR 038C
ENCODING 908
SWIDTH 720 0
DWIDTH 24 0
BBX 24 22 -1 0
BITMAP
383F00
71C0E0
638070
470038
8E001C
1E001E
1E001E
3C000E
3C000F
3C000F
3C000F
3C000F
3C000F
3C000F
3C000E
1E000E
1E001E
0E001C
070038
038070
01C1E0
007F00
ENDCHAR
STARTCHAR 038E
ENCODING 910
SWIDTH 810 0
DWIDTH 27 0
BBX 29 22 -3 0
BITMAP
3BFE03F8
70F800E0
607800C0
40380080
801C0080
001C0100
000E0200
00070200
00070400
00038800
00039800
0001D000
0000E000
0000E000
0000E000
0000E000
0000E000
0000E000
0000E000
0000E000
0001F000
0007FC00
ENDCHAR
STARTCHAR 038F
ENCODING 911
SWIDTH 750 0
DWIDTH 25 0
BBX 24 22 0 0
BITMAP
387F00
71C1E0
6780F0
4F0078
9E003C
1E003C
3C001E
3C001E
3C001E
3C001E
3C001E
3C001E
3C001C
1E003C
0E0038
0F0070
0380E0
41E381
606303
7FE3FF
7FE3FF
7FE3FF
ENDCHAR
STARTCHAR 0390
ENCODING 912
SWIDTH 270 0
DWIDTH 9 0
BBX 11 22 -1 0
BITMAP
0300
0600
E6E0
E4E0
E8E0
0000
0000
0600
1E00
3E00
0E00
0E00
0E00
0E00
0E00
0E00
0E00
0E00
0E40
0E40
0F80
0780
ENDCHAR
STARTCHAR 0391
ENCODING 913
SWIDTH 690 0
DWIDTH 23 0
BBX 23 22 1 0
BITMAP
001000
003800
003800
003C00
005C00
005C00
008E00
008E00
010E00
010700
020700
020380
020380
040380
07FFC0
0801C0
0801C0
1000E0
1000E0
200070
7000F8
FC03FE
ENDCHAR
STARTCHAR 0392
ENCODING 914
SWIDTH 660 0
DWIDTH 22 0
BBX 20 22 1 0
BITMAP
FFFE00
3C0780
1C03C0
1C01C0
1C00E0
1C00E0
1C00E0
1C01E0
1C01C0
1C0780
1FFE00
1C0380
1C01E0
1C00E0
1C00F0
1C0070
1C0070
1C00F0
1C00E0
1C01E0
3C07C0
FFFE00
ENDCHAR
STARTCHAR 0393
ENCODING 915
SWIDTH 570 0
DWIDTH 19 0
BBX 17 22 1 0
BITMAP
FFFF80
3C0380
1C0180
1C0080
1C0080
1C0000
1C0000
1C0000
1C0000
1C0000
1C0000
1C0000
1C0000
1C0000
1C0000
1C0000
1C0000
1C0000
1C0000
1C0000
3E0000
FF8000
ENDCHAR
STARTCHAR 0394
ENCODING 916
SWIDTH 630 0
DWIDTH 21 0
BBX 19 22 1 0
BITMAP
004000
00C000
00E000
01E000
01E000
017000
027000
023800
043800
041C00
0C1C00
081C00
080E00
100E00
100700
200700
200380
600380
400380
4001C0
8001C0
FFFFE0
ENDCHAR
STARTCHAR 0395
ENCODING 917
SWIDTH 600 0
DWIDTH 20 0
BBX 18 22 1 0
BITMAP
FFFF00
3C0300
1C0300
1C0100
1C0100
1C0000
1C0000
1C0800
1C0800
1C1800
1FF800
1C1800
1C0800
1C0800
1C0000
1C0000
1C0040
1C00C0
1C0080
1C0180
3C0380
FFFF00
ENDCHAR
STARTCHAR 0396
ENCODING 918
SWIDTH 600 0
DWIDTH 20 0
BBX 19 22 0 0
BITMAP
1FFFC0
180380
300700
200700
200E00
001C00
003C00
003800
007000
00E000
00E000
01C000
038000
038000
070000
0E0000
0E0020
1C0020
380060
700040
7000C0
FFFFC0
ENDCHAR
STARTCHAR 0397
ENCODING 919
SWIDTH 720 0
DWIDTH 24 0
BBX 22 22 1 0
BITMAP
FF87FC
3E01F0
1C00E0
1C00E0
1C00E0
1C00E0
1C00E0
1C00E0
1C00E0
1C00E0
1FFFE0
1C00E0
1C00E0
1C00E0
1C00E0
1C00E0
1C00E0
1C00E0
1C00E0
1C00E0
3E01F0
FF87FC
ENDCHAR
STARTCHAR 0398
ENCODING 920
SWIDTH 720 0
DWIDTH 24 0
BBX 22 22 1 0
BITMAP
00FC00
070380
0E01C0
1C00E0
380070
780078
790278
F1023C
F1863C
F1FE3C
F1FE3C
F1FE3C
F1863C
F1023C
710238
780078
780078
380070
1C00E0
0E01C0
070380
01FC00
ENDCHAR
STARTCHAR 0399
ENCODING 921
SWIDTH 330 0
DWIDTH 11 0
BBX 9 22 1 0
BITMAP
FF80
3E00
1C00
1C00
1C00
1C00
1C00
1C00
1C00
1C00
1C00
1C00
1C00
1C00
1C00
1C00
1C00
1C00
1C00
1C00
3E00
FF80
ENDCHAR
STARTCHAR 039A
ENCODING 922
SWIDTH 690 0
DWIDTH 23 0
BBX 22 22 1 0
BITMAP
FF87F0
3E01C0
1C0100
1C0200
1C0400
1C0800
1C1000
1C2000
1C4000
1D8000
1FC000
1DE000
1CF000
1C7800
1C3C00
1C1E00
1C0F00
1C0780
1C03C0
1C01E0
3E01F0
FF87FC
ENDCHAR
STARTCHAR 039B
ENCODING 923
SWIDTH 720 0
DWIDTH 24 0
BBX 23 22 1 0
BITMAP
001000
001000
001800
003800
003C00
005C00
005E00
008E00
008E00
010700
010700
010380
020380
0201C0
0401C0
0401C0
0800E0
0800E0
180070
100070
380078
FE01FE
ENDCHAR
STARTCHAR 039C
ENCODING 924
SWIDTH 870 0
DWIDTH 29 0
BBX 27 22 1 0
BITMAP
FC0007E0
3C000780
1E000F00
1E000F00
1E000F00
17001700
17001700
13802700
13802700
11C04700
11C04700
11C0C700
10E08700
10E08700
10710700
10710700
103A0700
103A0700
103E0700
101C0700
381C0F80
FE083FE0
ENDCHAR
STARTCHAR 039D
ENCODING 925
SWIDTH 720 0
DWIDTH 24 0
BBX 23 22 0 0
BITMAP
FC00FE
3E0038
1F0010
0F0010
0F8010
0BC010
09E010
08F010
08F010
087810
083C10
081E10
080E10
080F10
080790
0803D0
0801F0
0800F0
0800F0
080070
1C0030
7F0010
ENDCHAR
STARTCHAR 039E
ENCODING 926
SWIDTH 630 0
DWIDTH 21 0
BBX 19 22 1 0
BITMAP
7FFFC0
7FFFC0
7FFFC0
6000C0
400040
400040
000000
080200
080200
0FFE00
0FFE00
0FFE00
080200
080200
000000
000000
800020
800020
C00060
FFFFE0
FFFFE0
FFFFE0
ENDCHAR
STARTCHAR 039F
ENCODING 927
SWIDTH 720 0
DWIDTH 24 0
BBX 22 22 1 0
BITMAP
00FC00
070380
0E01C0
1C00E0
380070
780078
780078
F00038
F0003C
F0003C
F0003C
F0003C
F0003C
F0003C
F00038
780038
780078
380070
1C00E0
0E01C0
070780
01FC00
ENDCHAR
STARTCHAR 03A0
ENCODING 928
SWIDTH 720 0
DWIDTH 24 0
BBX 22 22 1 0
BITMAP
FFFFFC
3C00F0
1C00E0
1C00E0
1C00E0
1C00E0
1C00E0
1C00E0
1C00E0
1C00E0
1C00E0
1C00E0
1C00E0
1C00E0
1C00E0
1C00E0
1C00E0
1C00E0
1C00E0
1C00E0
3E01F0
FF87FC
ENDCHAR
STARTCHAR 03A1
ENCODING 929
SWIDTH 540 0
DWIDTH 18 0
BBX 16 22 1 0
BITMAP
FFF0
3C3C
1C1E
1C0E
1C0F
1C07
1C07
1C0F
1C0F
1C0E
1C3C
1FF8
1C00
1C00
1C00
1C00
1C00
1C00
1C00
1C00
3E00
FF80
ENDCHAR
STARTCHAR 03A3
ENCODING 931
SWIDTH 570 0
DWIDTH 19 0
BBX 18 22 0 0
BITMAP
FFFF80
700380
380180
380080
1C0080
0E0000
070000
070000
038000
01C000
00C000
008000
008000
010000
020000
040040
0800C0
1000C0
3001C0
3FFF80
7FFF80
FFFF80
ENDCHAR
STARTCHAR 03A4
ENCODING 932
SWIDTH 630 0
DWIDTH 21 0
BBX 19 22 1 0
BITMAP
FFFFE0
E0E0E0
C0E060
80E020
80E020
00E000
00E000
00E000
00E000
00E000
00E000
00E000
00E000
00E000
00E000
00E000
00E000
00E000
00E000
00E000
01F000
07FC00
ENDCHAR
STARTCHAR 03A5
ENCODING 933
SWIDTH 720 0
DWIDTH 24 0
BBX 22 22 1 0
BITMAP
FF01FC
7C00F0
1C0040
1C00C0
0E0080
070100
070200
038200
01C400
01C400
00E800
007000
007000
007000
007000
007000
007000
007000
007000
007000
00F800
03FE00
ENDCHAR
STARTCHAR 03A6
ENCODING 934
SWIDTH 720 0
DWIDTH 24 0
BBX 21 22 2 0
BITMAP
03FE00
00F800
007000
03FE00
0E7380
3C71E0
7870F0
707070
F07078
F07078
F07078
F07078
F07078
F07078
707070
7870F0
3C71E0
1E73C0
03FE00
007000
00F800
03FE00
ENDCHAR
STARTCHAR 03A7
ENCODING 935
SWIDTH 690 0
DWIDTH 23 0
BBX 23 22 0 0
BITMAP
FFC0FE
3F0038
0F0030
070020
038040
03C080
01C100
00E200
007400
007800
003800
001C00
002E00
004E00
008700
010380
0201C0
0401C0
0C00E0
180070
7800F8
FE03FE
ENDCHAR
STARTCHAR 03A8
ENCODING 936
SWIDTH 720 0
DWIDTH 24 0
BBX 23 22 1 0
BITMAP
E1FF0E
707C1C
303818
383838
383838
383838
383838
383838
383838
183870
1C3870
0E38E0
03FF00
003800
003800
003800
003800
003800
003800
003800
007C00
01FF00
ENDCHAR
STARTCHAR 03A9
ENCODING 937
SWIDTH 750 0
DWIDTH 25 0
BBX 23 22 1 0
BITMAP
00FE00
0383C0
0F01E0
1E00F0
3C0078
3C0078
78003C
78003C
78003C
78003C
78003C
78003C
780038
3C0078
1C0070
1E00E0
0701C0
83C702
C0C606
FFC7FE
FFC7FE
FFC7FE
ENDCHAR
STARTCHAR 03AA
ENCODING 938
SWIDTH 330 0
DWIDTH 11 0
BBX 9 27 1 0
BITMAP
7380
7380
7380
0000
0000
FF80
3E00
1C00
1C00
1C00
1C00
1C00
1C00
1C00
1C00
1C00
1C00
1C00
1C00
1C00
1C00
1C00
1C00
1C00
1C00
3E00
FF80
ENDCHAR
STARTCHAR 03AB
ENCODING 939
SWIDTH 720 0
DWIDTH 24 0
BBX 22 27 1 0
BITMAP
01CE00
01CE00
01CE00
000000
000000
FF01FC
7C00F0
1C0040
1C00C0
0E0080
070100
070200
038200
01C400
01C400
00E800
007000
007000
007000
007000
007000
007000
007000
007000
007000
00F800
03FE00
ENDCHAR
STARTCHAR 03AC
ENCODING 940
SWIDTH 510 0
DWIDTH 17 0
BBX 16 22 1 0
BITMAP
00E0
01C0
0180
0100
0200
0000
0000
1E1C
391C
70B8
6078
E078
E078
E030
E070
E070
E070
E070
60F1
70D1
31DE
1F0E
ENDCHAR
STARTCHAR 03AD
ENCODING 941
SWIDTH 420 0
DWIDTH 14 0
BBX 12 22 1 0
BITMAP
0700
0E00
0C00
0800
1000
0000
0000
0F80
38E0
70E0
7060
7000
7000
3800
0780
3800
6000
E030
E030
E070
70E0
1F80
ENDCHAR
STARTCHAR 03AE
ENCODING 942
SWIDTH 510 0
DWIDTH 17 0
BBX 15 29 0 -7
BITMAP
0070
00E0
00C0
0080
0100
0000
0000
7878
9CFC
9D1E
1E0E
1C0E
1C0E
1C0E
1C0E
1C0E
1C0E
1C0E
1C0E
1C0E
1C0E
1C0E
000E
000E
000E
000E
000E
000E
000E
ENDCHAR
STARTCHAR 03AF
ENCODING 943
SWIDTH 270 0
DWIDTH 9 0
BBX 8 22 1 0
BITMAP
0E
1C
18
10
20
00
00
18
78
F8
38
38
38
38
38
38
38
38
39
39
3E
1E
ENDCHAR
STARTCHAR 03B0
ENCODING 944
SWIDTH 480 0
DWIDTH 16 0
BBX 15 22 0 0
BITMAP
00C0
0180
39B8
3938
3A38
0000
0000
7860
9C38
9C1C
9C0C
1C0E
1C0E
1C0E
1C0E
1C0E
1C0E
1C0C
1C1C
0C18
0E30
03C0
ENDCHAR
STARTCHAR 03B1
ENCODING 945
SWIDTH 510 0
DWIDTH 17 0
BBX 16 15 1 0
BITMAP
1E1C
391C
70B8
6078
E078
E078
E030
E070
E070
E070
E070
60F1
70D1
31DE
1F0E
ENDCHAR
STARTCHAR 03B2
ENCODING 946
SWIDTH 510 0
DWIDTH 17 0
BBX 15 30 1 -7
BITMAP
07C0
1C70
3838
701C
701C
701C
701C
7018
7030
73E0
73F8
703C
701C
701E
700E
700E
700E
700E
700C
701C
7018
7C30
73E0
7000
7000
7000
7000
7000
7000
E000
ENDCHAR
STARTCHAR 03B3
ENCODING 947
SWIDTH 450 0
DWIDTH 15 0
BBX 14 22 1 -7
BITMAP
781C
7818
CC38
8430
8430
0660
0260
0260
02C0
02C0
0280
0380
0100
0100
0300
0300
0300
0700
0700
0700
0700
0600
ENDCHAR
STARTCHAR 03B4
ENCODING 948
SWIDTH 480 0
DWIDTH 16 0
BBX 14 23 1 0
BITMAP
0FE0
10F8
2078
2038
3000
1800
0E00
0300
01C0
07E0
1C70
3078
7038
603C
E01C
E01C
E01C
E01C
E018
7038
7030
3860
0F80
ENDCHAR
STARTCHAR 03B5
ENCODING 949
SWIDTH 420 0
DWIDTH 14 0
BBX 12 15 1 0
BITMAP
0F80
38E0
70E0
7060
7000
7000
3800
0780
3800
6000
E030
E030
E070
70E0
1F80
ENDCHAR
STARTCHAR 03B6
ENCODING 950
SWIDTH 420 0
DWIDTH 14 0
BBX 13 30 1 -7
BITMAP
1800
3070
20F0
33E0
1F00
0C00
0800
1000
3000
2000
6000
4000
C000
C000
C000
C000
C000
C000
E000
F000
7FE0
3FF0
1FF8
0018
0008
0008
0008
0310
03F0
03C0
ENDCHAR
STARTCHAR 03B7
ENCODING 951
SWIDTH 510 0
DWIDTH 17 0
BBX 15 22 0 -7
BITMAP
7878
9CFC
9D1E
1E0E
1C0E
1C0E
1C0E
1C0E
1C0E
1C0E
1C0E
1C0E
1C0E
1C0E
1C0E
000E
000E
000E
000E
000E
000E
000E
ENDCHAR
STARTCHAR 03B8
ENCODING 952
SWIDTH 480 0
DWIDTH 16 0
BBX 14 22 1 0
BITMAP
0780
1860
3030
3030
7038
6018
601C
E01C
E01C
E01C
FFFC
E01C
E01C
E01C
E01C
E018
6018
7038
3030
3860
1C60
0780
ENDCHAR
STARTCHAR 03B9
ENCODING 953
SWIDTH 270 0
DWIDTH 9 0
BBX 8 15 1 0
BITMAP
18
78
F8
38
38
38
38
38
38
38
38
39
39
3E
1E
ENDCHAR
STARTCHAR 03BA
ENCODING 954
SWIDTH 510 0
DWIDTH 17 0
BBX 16 15 1 0
BITMAP
181E
783E
F84E
3880
3900
3A00
3F00
3F00
3B80
39C0
39C0
38E0
3870
3838
383F
ENDCHAR
STARTCHAR 03BB
ENCODING 955
SWIDTH 480 0
DWIDTH 16 0
BBX 15 23 1 0
BITMAP
3800
7C00
CC00
8400
8600
0600
0200
0200
0300
0700
0700
0700
0E80
0E80
1C80
1C80
1C40
3840
3842
7042
7026
703C
E01C
ENDCHAR
STARTCHAR 03BC
ENCODING 956
SWIDTH 540 0
DWIDTH 18 0
BBX 16 22 2 -7
BITMAP
7038
7038
7038
7038
7038
7038
7038
7038
7038
7038
7038
7079
78B9
7F3E
5E1E
4000
6000
6000
E000
E000
E000
E000
ENDCHAR
STARTCHAR 03BD
ENCODING 957
SWIDTH 450 0
DWIDTH 15 0
BBX 15 15 0 0
BITMAP
180E
780E
F80E
3C0C
1C0C
1C08
0E10
0E10
0E20
0720
0740
0740
0380
0380
0300
ENDCHAR
STARTCHAR 03BE
ENCODING 958
SWIDTH 450 0
DWIDTH 15 0
BBX 13 30 1 -7
BITMAP
1800
20E0
21E0
33C0
1F00
0800
1000
1000
19F0
0FE0
1800
3000
6000
4000
8000
8000
8000
8000
C000
E000
7FE0
3FF0
1FF8
0018
0008
0008
0008
0010
03F0
03C0
ENDCHAR
STARTCHAR 03BF
ENCODING 959
SWIDTH 480 0
DWIDTH 16 0
BBX 14 15 1 0
BITMAP
0780
18E0
3070
6038
6038
E01C
E01C
E01C
E01C
E01C
7018
7018
3830
1C60
07C0
ENDCHAR
STARTCHAR 03C0
ENCODING 960
SWIDTH 510 0
DWIDTH 17 0
BBX 17 15 0 0
BITMAP
3FFF00
7FFF00
443000
843000
043000
043000
0C7000
0C7000
087000
187000
187000
387080
787980
783F00
701E00
ENDCHAR
STARTCHAR 03C1
ENCODING 961
SWIDTH 480 0
DWIDTH 16 0
BBX 13 22 2 -7
BITMAP
0F80
11E0
60F0
6070
E078
E038
E038
E038
E038
E038
E030
E070
F060
F0C0
EF80
E000
E000
E000
E000
E000
E000
E000
ENDCHAR
STARTCHAR 03C2
ENCODING 962
SWIDTH 390 0
DWIDTH 13 0
BBX 13 22 1 -7
BITMAP
07C0
0FE0
10E0
2000
4000
8000
8000
8000
8000
8000
C000
E000
7FE0
3FF0
0FF8
0008
0008
0008
0008
0010
07E0
07C0
ENDCHAR
STARTCHAR 03C3
ENCODING 963
SWIDTH 540 0
DWIDTH 18 0
BBX 17 15 1 0
BITMAP
07FF80
1FFF80
3C6000
703000
F01800
E01C00
E00C00
E00E00
E00E00
E00E00
700E00
701C00
381C00
1C3800
07E000
ENDCHAR
STARTCHAR 03C4
ENCODING 964
SWIDTH 390 0
DWIDTH 13 0
BBX 13 15 0 0
BITMAP
3FF8
7FF8
4380
8300
0300
0700
0700
0700
0700
0700
0700
0708
0798
07F0
03E0
ENDCHAR
STARTCHAR 03C5
ENCODING 965
SWIDTH 480 0
DWIDTH 16 0
BBX 15 15 0 0
BITMAP
7860
9C38
9C1C
9C0C
1C0E
1C0E
1C0E
1C0E
1C0E
1C0E
1C0C
1C1C
0C18
0E30
03C0
ENDCHAR
STARTCHAR 03C6
ENCODING 966
SWIDTH 570 0
DWIDTH 19 0
BBX 17 22 1 -7
BITMAP
0C7800
38FC00
718E00
718700
E18780
E18380
E18380
E18380
E18380
E18380
618300
718700
318E00
1D9C00
07F000
018000
018000
018000
018000
018000
018000
018000
ENDCHAR
STARTCHAR 03C7
ENCODING 967
SWIDTH 450 0
DWIDTH 15 0
BBX 15 22 1 -7
BITMAP
381C
7838
FC38
CC70
8470
84E0
02E0
03C0
03C0
0380
0380
0700
0700
0F00
0F80
1C80
1C82
3882
38C6
707C
707C
E038
ENDCHAR
STARTCHAR 03C8
ENCODING 968
SWIDTH 630 0
DWIDTH 21 0
BBX 20 22 1 -7
BITMAP
E060F0
7060E0
3861C0
3861C0
3861C0
3861C0
3861C0
186380
1C6380
1C6380
1C6380
0C6300
066600
036C00
01F800
006000
006000
006000
006000
006000
006000
006000
ENDCHAR
STARTCHAR 03C9
ENCODING 969
SWIDTH 630 0
DWIDTH 21 0
BBX 19 15 1 0
BITMAP
071C00
1C0700
380380
7041C0
70E0C0
E0E0E0
E0E0E0
E0E0E0
E0E0E0
E040E0
E040E0
6040C0
70A1C0
31B380
1E0F00
ENDCHAR
STARTCHAR 03CA
ENCODING 970
SWIDTH 270 0
DWIDTH 9 0
BBX 8 20 1 0
BITMAP
E7
E7
E7
00
00
18
78
F8
38
38
38
38
38
38
38
38
39
39
3E
1E
ENDCHAR
STARTCHAR 03CB
ENCODING 971
SWIDTH 480 0
DWIDTH 16 0
BBX 15 20 0 0
BITMAP
0E70
0E70
0E70
0000
0000
7860
9C38
9C1C
9C0C
1C0E
1C0E
1C0E
1C0E
1C0E
1C0E
1C0C
1C1C
0C18
0E30
03C0
ENDCHAR
STARTCHAR 03CC
ENCODING 972
SWIDTH 480 0
DWIDTH 16 0
BBX 14 22 1 0
BITMAP
01C0
0380
0300
0200
0400
0000
0000
0780
18E0
3070
6038
6038
E01C
E01C
E01C
E01C
E01C
7018
7018
3830
1C60
07C0
ENDCHAR
STARTCHAR 03CD
ENCODING 973
SWIDTH 480 0
DWIDTH 16 0
BBX 15 22 0 0
BITMAP
0070
00E0
00C0
0080
0100
0000
0000
7860
9C38
9C1C
9C0C
1C0E
1C0E
1C0E
1C0E
1C0E
1C0E
1C0C
1C1C
0C18
0E30
03C0
ENDCHAR
STARTCHAR 03CE
ENCODING 974
SWIDTH 630 0
DWIDTH 21 0
BBX 19 22 1 0
BITMAP
007000
00E000
00C000
008000
010000
000000
000000
071C00
1C0700
380380
7041C0
70E0C0
E0E0E0
E0E0E0
E0E0E0
E0E0E0
E040E0
E040E0
6040C0
70A1C0
31B380
1E0F00
ENDCHAR
STARTCHAR 0401
ENCODING 1025
SWIDTH 600 0
DWIDTH 20 0
BBX 18 27 1 0
BITMAP
073800
073800
073800
000000
000000
FFFF00
3C0300
1C0300
1C0100
1C0100
1C0000
1C0000
1C0800
1C0800
1C1800
1FF800
1C1800
1C0800
1C0800
1C0000
1C0000
1C0040
1C00C0
1C0080
1C0180
3C0380
FFFF00
ENDCHAR
STARTCHAR 0402
ENCODING 1026
SWIDTH 750 0
DWIDTH 25 0
BBX 23 22 1 0
BITMAP
FFFF80
E1C380
C1C180
81C080
81C080
01C000
01C000
01C3E0
01CFF8
01D878
01E03C
01C03C
01C01E
01C01E
01C01E
01C01E
01C01E
01C01E
01C01C
01C03C
03E038
0FF8F0
ENDCHAR
STARTCHAR 0403
ENCODING 1027
SWIDTH 570 0
DWIDTH 19 0
BBX 17 29 1 0
BITMAP
007000
00E000
00C000
008000
010000
000000
000000
FFFF80
3C0380
1C0180
1C0080
1C0080
1C0000
1C0000
1C0000
1C0000
1C0000
1C0000
1C0000
1C0000
1C0000
1C0000
1C0000
1C0000
1C0000
1C0000
1C0000
3E0000
FF8000
ENDCHAR
STARTCHAR 0404
ENCODING 1028
SWIDTH 660 0
DWIDTH 22 0
BBX 20 22 1 0
BITMAP
00FC20
0787E0
0E01E0
1C00E0
380060
780020
780020
700000
F00000
F00000
FFF800
F00000
F00000
F00000
F00000
780000
780000
3C0010
1C0020
0E00C0
078180
00FE00
ENDCHAR
STARTCHAR 0405
ENCODING 1029
SWIDTH 540 0
DWIDTH 18 0
BBX 14 22 2 0
BITMAP
0F88
38F8
7038
E018
E018
E008
F008
F808
7E00
7F00
1FC0
0FE0
03F0
01F8
807C
803C
801C
C01C
C018
E038
F870
8FC0
ENDCHAR
STARTCHAR 0406
ENCODING 1030
SWIDTH 330 0
DWIDTH 11 0
BBX 9 22 1 0
BITMAP
FF80
3E00
1C00
1C00
1C00
1C00
1C00
1C00
1C00
1C00
1C00
1C00
1C00
1C00
1C00
1C00
1C00
1C00
1C00
1C00
3E00
FF80
ENDCHAR
STARTCHAR 0407
ENCODING 1031
SWIDTH 330 0
DWIDTH 11 0
BBX 9 27 1 0
BITMAP
7380
7380
7380
0000
0000
FF80
3E00
1C00
1C00
1C00
1C00
1C00
1C00
1C00
1C00
1C00
1C00
1C00
1C00
1C00
1C00
1C00
1C00
1C00
1C00
3E00
FF80
ENDCHAR
STARTCHAR 0408
ENCODING 1032
SWIDTH 390 0
DWIDTH 13 0
BBX 12 22 1 0
BITMAP
1FF0
07C0
0380
0380
0380
0380
0380
0380
0380
0380
0380
0380
0380
0380
0380
0380
0380
0380
E300
E300
F200
7C00
ENDCHAR
STARTCHAR 0409
ENCODING 1033
SWIDTH 870 0
DWIDTH 29 0
BBX 28 22 0 0
BITMAP
0FFFF800
0381E000
0181C000
0181C000
0181C000
0181C000
0181C000
0181C000
0181C000
0181C000
0181FF00
0181C3C0
0181C0E0
0181C0F0
0181C070
0101C070
0301C070
0301C070
0301C0E0
E601C0E0
FC03C3C0
780FFE00
ENDCHAR
STARTCHAR 040A
ENCODING 1034
SWIDTH 870 0
DWIDTH 29 0
BBX 27 22 1 0
BITMAP
FF9FF000
3E07C000
1C038000
1C038000
1C038000
1C038000
1C038000
1C038000
1C038000
1C038000
1FFFFE00
1C038780
1C0381C0
1C0381C0
1C0380E0
1C0380E0
1C0380E0
1C0380E0
1C0381C0
1C0381C0
3E078780
FF9FFC00
ENDCHAR
STARTCHAR 040B
ENCODING 1035
SWIDTH 720 0
DWIDTH 24 0
BBX 24 22 0 0
BITMAP
FFFF80
E1C380
C1C180
81C080
81C080
01C000
01C000
01C3E0
01CFF0
01D878
01F038
01E038
01C038
01C038
01C038
01C038
01C038
01C038
01C038
01C038
03E07C
0FF9FF
ENDCHAR
STARTCHAR 040C
ENCODING 1036
SWIDTH 660 0
DWIDTH 22 0
BBX 21 29 1 0
BITMAP
003800
007000
006000
004000
008000
000000
000000
FF81E0
3E03F0
1C0670
1C0400
1C0C00
1C0800
1C0800
1C1800
1C3000
1C6000
1FC000
1CE000
1C7000
1C7000
1C3800
1C1C00
1C0E00
1C0E00
1C0700
1C0380
3E03C0
FF81F8
ENDCHAR
STARTCHAR 040E
ENCODING 1038
SWIDTH 690 0
DWIDTH 23 0
BBX 23 29 0 0
BITMAP
0300C0
0381C0
0381C0
01C380
00FE00
000000
000000
FFC0FE
3E0038
0E0030
0F0020
070040
038040
038040
01C080
01C080
00E100
007100
007200
003A00
003A00
001C00
001C00
000800
000800
001000
073000
07E000
03C000
ENDCHAR
STARTCHAR 040F
ENCODING 1039
SWIDTH 720 0
DWIDTH 24 0
BBX 22 28 1 -6
BITMAP
FF87FC
3E01F0
1C00E0
1C00E0
1C00E0
1C00E0
1C00E0
1C00E0
1C00E0
1C00E0
1C00E0
1C00E0
1C00E0
1C00E0
1C00E0
1C00E0
1C00E0
1C00E0
1C00E0
1C00E0
3C00F0
FFFFFC
00FE00
003800
003800
001000
001000
001000
ENDCHAR
STARTCHAR 0410
ENCODING 1040
SWIDTH 690 0
DWIDTH 23 0
BBX 23 22 1 0
BITMAP
001000
003800
003800
003C00
005C00
005C00
008E00
008E00
010E00
010700
020700
020380
020380
040380
07FFC0
0801C0
0801C0
1000E0
1000E0
200070
7000F8
FC03FE
ENDCHAR
STARTCHAR 0411
ENCODING 1041
SWIDTH 570 0
DWIDTH 19 0
BBX 17 22 1 0
BITMAP
FFFF00
3C0700
1C0300
1C0100
1C0100
1C0000
1C0000
1C0000
1C0000
1C0000
1FF800
1C1E00
1C0700
1C0700
1C0380
1C0380
1C0380
1C0380
1C0700
1C0F00
3C1E00
FFF800
ENDCHAR
STARTCHAR 0412
ENCODING 1042
SWIDTH 660 0
DWIDTH 22 0
BBX 20 22 1 0
BITMAP
FFFE00
3C0780
1C03C0
1C01C0
1C00E0
1C00E0
1C00E0
1C01E0
1C01C0
1C0780
1FFE00
1C0380
1C01E0
1C00E0
1C00F0
1C0070
1C0070
1C00F0
1C00E0
1C01E0
3C07C0
FFFE00
ENDCHAR
STARTCHAR 0413
ENCODING 1043
SWIDTH 570 0
DWIDTH 19 0
BBX 17 22 1 0
BITMAP
FFFF80
3C0380
1C0180
1C0080
1C0080
1C0000
1C0000
1C0000
1C0000
1C0000
1C0000
1C0000
1C0000
1C0000
1C0000
1C0000
1C0000
1C0000
1C0000
1C0000
3E0000
FF8000
ENDCHAR
STARTCHAR 0414
ENCODING 1044
SWIDTH 690 0
DWIDTH 23 0
BBX 22 28 0 -6
BITMAP
1FFFFC
0380F0
0180E0
0180E0
0180E0
0180E0
0180E0
0180E0
0100E0
0100E0
0300E0
0300E0
0300E0
0300E0
0200E0
0600E0
0600E0
0400E0
0C00E0
1800E0
3000E0
FFFFFC
F8007C
E0001C
E0000C
C0000C
800004
800004
ENDCHAR
STARTCHAR 0415
ENCODING 1045
SWIDTH 600 0
DWIDTH 20 0
BBX 18 22 1 0
BITMAP
FFFF00
3C0300
1C0300
1C0100
1C0100
1C0000
1C0000
1C0800
1C0800
1C1800
1FF800
1C1800
1C0800
1C0800
1C0000
1C0000
1C0040
1C00C0
1C0080
1C0180
3C0380
FFFF00
ENDCHAR
STARTCHAR 0416
ENCODING 1046
SWIDTH 900 0
DWIDTH 30 0
BBX 29 22 1 0
BITMAP
783FE0F0
FC0F81F8
E6070338
02070200
03070600
01070400
01070400
01870C00
00870800
00C71800
007FF000
00E73800
00E73800
01C71C00
03C71E00
03870E00
07070700
07070700
0E070380
1E0703C0
3C0F81E0
FC3FE1F8
ENDCHAR
STARTCHAR 0417
ENCODING 1047
SWIDTH 510 0
DWIDTH 17 0
BBX 15 22 1 0
BITMAP
47F0
7878
703C
601E
401E
401E
001E
003C
003C
00F8
07C0
00F8
003C
003C
001E
001E
001E
001E
803C
403C
3078
0FE0
ENDCHAR
STARTCHAR 0418
ENCODING 1048
SWIDTH 720 0
DWIDTH 24 0
BBX 22 22 1 0
BITMAP
FF87FC
3E01F0
1C00E0
1C00E0
1C00E0
1C01E0
1C03E0
1C06E0
1C0CE0
1C18E0
1C10E0
1C20E0
1C60E0
1CC0E0
1D80E0
1F00E0
1E00E0
1C00E0
1C00E0
1C00E0
3E01F0
FF87FC
ENDCHAR
STARTCHAR 0419
ENCODING 1049
SWIDTH 720 0
DWIDTH 24 0
BBX 22 29 1 0
BITMAP
060180
070380
070380
038700
01FE00
000000
000000
FF87FC
3E01F0
1C00E0
1C00E0
1C00E0
1C01E0
1C03E0
1C06E0
1C0CE0
1C18E0
1C10E0
1C20E0
1C60E0
1CC0E0
1D80E0
1F00E0
1E00E0
1C00E0
1C00E0
1C00E0
3E01F0
FF87FC
ENDCHAR
STARTCHAR 041A
ENCODING 1050
SWIDTH 660 0
DWIDTH 22 0
BBX 21 22 1 0
BITMAP
FF81E0
3E03F0
1C0670
1C0400
1C0C00
1C0800
1C0800
1C1800
1C3000
1C6000
1FC000
1CE000
1C7000
1C7000
1C3800
1C1C00
1C0E00
1C0E00
1C0700
1C0380
3E03C0
FF81F8
ENDCHAR
STARTCHAR 041B
ENCODING 1051
SWIDTH 660 0
DWIDTH 22 0
BBX 21 22 0 0
BITMAP
0FFFF8
0381E0
0181C0
0181C0
0181C0
0181C0
0181C0
0181C0
0181C0
0181C0
0181C0
0181C0
0181C0
0181C0
0181C0
0101C0
0301C0
0301C0
0301C0
E601C0
FC03E0
780FF8
ENDCHAR
STARTCHAR 041C
ENCODING 1052
SWIDTH 870 0
DWIDTH 29 0
BBX 27 22 1 0
BITMAP
FC0007E0
3C000780
1E000F00
1E000F00
1E000F00
17001700
17001700
13802700
13802700
11C04700
11C04700
11C0C700
10E08700
10E08700
10710700
10710700
103A0700
103A0700
103E0700
101C0700
381C0F80
FE083FE0
ENDCHAR
STARTCHAR 041D
ENCODING 1053
SWIDTH 720 0
DWIDTH 24 0
BBX 22 22 1 0
BITMAP
FF87FC
3E01F0
1C00E0
1C00E0
1C00E0
1C00E0
1C00E0
1C00E0
1C00E0
1C00E0
1FFFE0
1C00E0
1C00E0
1C00E0
1C00E0
1C00E0
1C00E0
1C00E0
1C00E0
1C00E0
3E01F0
FF87FC
ENDCHAR
STARTCHAR 041E
ENCODING 1054
SWIDTH 720 0
DWIDTH 24 0
BBX 22 22 1 0
BITMAP
00FC00
070380
0E01C0
1C00E0
380070
780078
780078
F00038
F0003C
F0003C
F0003C
F0003C
F0003C
F0003C
F00038
780038
780078
380070
1C00E0
0E01C0
070780
01FC00
ENDCHAR
STARTCHAR 041F
ENCODING 1055
SWIDTH 720 0
DWIDTH 24 0
BBX 22 22 1 0
BITMAP
FFFFFC
3C00F0
1C00E0
1C00E0
1C00E0
1C00E0
1C00E0
1C00E0
1C00E0
1C00E0
1C00E0
1C00E0
1C00E0
1C00E0
1C00E0
1C00E0
1C00E0
1C00E0
1C00E0
1C00E0
3E01F0
FF87FC
ENDCHAR
STARTCHAR 0420
ENCODING 1056
SWIDTH 540 0
DWIDTH 18 0
BBX 16 22 1 0
BITMAP
FFF0
3C3C
1C1E
1C0E
1C0F
1C07
1C07
1C0F
1C0F
1C0E
1C3C
1FF8
1C00
1C00
1C00
1C00
1C00
1C00
1C00
1C00
3E00
FF80
ENDCHAR
STARTCHAR 0421
ENCODING 1057
SWIDTH 660 0
DWIDTH 22 0
BBX 20 22 1 0
BITMAP
01FC40
0783C0
0E01C0
1C00C0
380060
780060
780020
700020
F00000
F00000
F00000
F00000
F00000
F00000
F00000
780000
780010
3C0020
1E0040
0F8180
07FF00
01FC00
ENDCHAR
STARTCHAR 0422
ENCODING 1058
SWIDTH 630 0
DWIDTH 21 0
BBX 19 22 1 0
BITMAP
FFFFE0
E0E0E0
C0E060
80E020
80E020
00E000
00E000
00E000
00E000
00E000
00E000
00E000
00E000
00E000
00E000
00E000
00E000
00E000
00E000
00E000
01F000
07FC00
ENDCHAR
STARTCHAR 0423
ENCODING 1059
SWIDTH 690 0
DWIDTH 23 0
BBX 23 22 0 0
BITMAP
FFC0FE
3E0038
0E0030
0F0020
070040
038040
038040
01C080
01C080
00E100
007100
007200
003A00
003A00
001C00
001C00
000800
000800
001000
073000
07E000
03C000
ENDCHAR
STARTCHAR 0424
ENCODING 1060
SWIDTH 780 0
DWIDTH 26 0
BBX 23 22 2 0
BITMAP
01FF00
007C00
003800
03FF80
1E38F0
3C3878
78383C
70383C
F0381E
F0381E
F0381E
F0381E
F0381E
F0381E
78383C
78383C
3C3878
1E38F0
03FF80
003800
007C00
01FF00
ENDCHAR
STARTCHAR 0425
ENCODING 1061
SWIDTH 690 0
DWIDTH 23 0
BBX 23 22 0 0
BITMAP
FFC0FE
3F0038
0F0030
070020
038040
03C080
01C100
00E200
007400
007800
003800
001C00
002E00
004E00
008700
010380
0201C0
0401C0
0C00E0
180070
7800F8
FE03FE
ENDCHAR
STARTCHAR 0426
ENCODING 1062
SWIDTH 720 0
DWIDTH 24 0
BBX 22 28 1 -6
BITMAP
FF87FC
3E01F0
1C00E0
1C00E0
1C00E0
1C00E0
1C00E0
1C00E0
1C00E0
1C00E0
1C00E0
1C00E0
1C00E0
1C00E0
1C00E0
1C00E0
1C00E0
1C00E0
1C00E0
1C00E0
3C00F0
FFFFFC
00007C
00001C
00001C
00000C
000004
000004
ENDCHAR
STARTCHAR 0427
ENCODING 1063
SWIDTH 630 0
DWIDTH 21 0
BBX 20 22 0 0
BITMAP
FF9FF0
3E07C0
1C0380
1C0380
1C0380
1C0380
1C0380
1C0380
1C0380
1C0380
1C0380
1E0F80
0FFB80
07C380
000380
000380
000380
000380
000380
000380
0007C0
001FF0
ENDCHAR
STARTCHAR 0428
ENCODING 1064
SWIDTH 990 0
DWIDTH 33 0
BBX 31 22 1 0
BITMAP
FF9FF3FE
3E07C0F8
1C038070
1C038070
1C038070
1C038070
1C038070
1C038070
1C038070
1C038070
1C038070
1C038070
1C038070
1C038070
1C038070
1C038070
1C038070
1C038070
1C038070
1C038070
3C038078
FFFFFFFE
ENDCHAR
STARTCHAR 0429
ENCODING 1065
SWIDTH 990 0
DWIDTH 33 0
BBX 31 28 1 -6
BITMAP
FF9FF3FE
3E07C0F8
1C038070
1C038070
1C038070
1C038070
1C038070
1C038070
1C038070
1C038070
1C038070
1C038070
1C038070
1C038070
1C038070
1C038070
1C038070
1C038070
1C038070
1C038070
3C038078
FFFFFFFE
0000003E
0000000E
00000006
00000006
00000006
00000002
ENDCHAR
STARTCHAR 042A
ENCODING 1066
SWIDTH 690 0
DWIDTH 23 0
BBX 21 22 1 0
BITMAP
FFF800
E1E000
C1C000
81C000
81C000
01C000
01C000
01C000
01C000
01C000
01FF80
01C1E0
01C070
01C070
01C038
01C038
01C038
01C038
01C070
01C0F0
03C1E0
0FFF80
ENDCHAR
STARTCHAR 042B
ENCODING 1067
SWIDTH 870 0
DWIDTH 29 0
BBX 27 22 1 0
BITMAP
FF803FE0
3E000F80
1C000700
1C000700
1C000700
1C000700
1C000700
1C000700
1C000700
1C000700
1FF80700
1C1E0700
1C070700
1C070700
1C038700
1C038700
1C038700
1C038700
1C070700
1C0F0700
3C1E0F80
FFF83FE0
ENDCHAR
STARTCHAR 042C
ENCODING 1068
SWIDTH 570 0
DWIDTH 19 0
BBX 17 22 1 0
BITMAP
FF8000
3E0000
1C0000
1C0000
1C0000
1C0000
1C0000
1C0000
1C0000
1C0000
1FF800
1C1E00
1C0700
1C0700
1C0380
1C0380
1C0380
1C0380
1C0700
1C0F00
3C1E00
FFF800
ENDCHAR
STARTCHAR 042D
ENCODING 1069
SWIDTH 660 0
DWIDTH 22 0
BBX 20 22 1 0
BITMAP
43F000
7E1E00
780700
700380
6001C0
4001E0
4001E0
0000E0
0000F0
0000F0
01FFF0
0000F0
0000F0
0000F0
0000E0
0001E0
0001E0
8003C0
400380
300700
181E00
07F000
ENDCHAR
STARTCHAR 042E
ENCODING 1070
SWIDTH 1020 0
DWIDTH 34 0
BBX 32 22 1 0
BITMAP
FF803F80
3E00E0E0
1C01C070
1C038038
1C07001C
1C0F001E
1C0E001E
1C1E000F
1C1E000F
1C1E000F
1FFE000F
1C1E000F
1C1E000F
1C1E000F
1C0E000E
1C0F000E
1C0F001E
1C07001C
1C038038
1C01C070
3E00E0E0
FF803F80
ENDCHAR
STARTCHAR 042F
ENCODING 1071
SWIDTH 660 0
DWIDTH 22 0
BBX 21 22 0 0
BITMAP
00FFF8
03C3E0
0781C0
0F01C0
0F01C0
0E01C0
0E01C0
0F01C0
0701C0
0781C0
01E1C0
007FC0
0071C0
00F1C0
00E1C0
01C1C0
03C1C0
0381C0
0701C0
0F01C0
3E03E0
FC0FF8
ENDCHAR
STARTCHAR 0430
ENCODING 1072
SWIDTH 450 0
DWIDTH 15 0
BBX 14 15 1 0
BITMAP
0F80
39C0
70E0
70E0
60E0
01E0
06E0
18E0
30E0
60E0
E0E0
E0E0
F1E4
7EF8
3870
ENDCHAR
STARTCHAR 0431
ENCODING 1073
SWIDTH 510 0
DWIDTH 17 0
BBX 15 23 1 0
BITMAP
0002
03FC
0FFC
1FF0
3800
3000
6000
4000
47C0
D870
B038
A01C
E01C
E00E
E00E
E00E
E00E
600E
700C
700C
3818
1C30
07C0
ENDCHAR
STARTCHAR 0432
ENCODING 1074
SWIDTH 480 0
DWIDTH 16 0
BBX 13 15 1 0
BITMAP
FFC0
38E0
3870
3870
3870
3870
38E0
3F80
38E0
3830
3838
3838
3838
3870
FFC0
ENDCHAR
STARTCHAR 0433
ENCODING 1075
SWIDTH 420 0
DWIDTH 14 0
BBX 12 15 1 0
BITMAP
FFE0
3820
3810
3810
3800
3800
3800
3800
3800
3800
3800
3800
3800
3800
FE00
ENDCHAR
STARTCHAR 0434
ENCODING 1076
SWIDTH 510 0
DWIDTH 17 0
BBX 16 19 0 -4
BITMAP
1FFF
0C1C
041C
041C
041C
041C
041C
041C
081C
081C
081C
101C
101C
201C
FFFF
E007
C003
8001
8001
ENDCHAR
STARTCHAR 0435
ENCODING 1077
SWIDTH 420 0
DWIDTH 14 0
BBX 12 15 1 0
BITMAP
0F80
11C0
20E0
4070
C070
FFF0
C000
C000
E000
E010
F010
7820
7FE0
3FC0
0F80
ENDCHAR
STARTCHAR 0436
ENCODING 1078
SWIDTH 690 0
DWIDTH 23 0
BBX 23 15 0 0
BITMAP
78FE3C
787C7C
74385C
043840
023880
023880
033980
01FF00
0739C0
0739C0
0E38E0
1E38E0
1C3870
3C7C78
F8FE3E
ENDCHAR
STARTCHAR 0437
ENCODING 1079
SWIDTH 390 0
DWIDTH 13 0
BBX 12 15 0 0
BITMAP
4F80
71C0
60E0
40E0
40E0
00C0
0180
0600
01C0
0060
0070
0070
8070
60E0
1F80
ENDCHAR
STARTCHAR 0438
ENCODING 1080
SWIDTH 540 0
DWIDTH 18 0
BBX 16 15 1 0
BITMAP
FE7F
381C
381C
381C
383C
387C
38DC
399C
3B1C
3E1C
3C1C
381C
381C
381C
FE7F
ENDCHAR
STARTCHAR 0439
ENCODING 1081
SWIDTH 540 0
DWIDTH 18 0
BBX 16 22 1 0
BITMAP
1818
1C38
1C38
0E70
07C0
0000
0000
FE7F
381C
381C
381C
383C
387C
38DC
399C
3B1C
3E1C
3C1C
381C
381C
381C
FE7F
ENDCHAR
STARTCHAR 043A
ENCODING 1082
SWIDTH 480 0
DWIDTH 16 0
BBX 15 15 1 0
BITMAP
FE1C
383C
385C
3840
3880
3980
3F00
3B80
39C0
39C0
38E0
38F0
3870
3838
FE3E
ENDCHAR
STARTCHAR 043B
ENCODING 1083
SWIDTH 480 0
DWIDTH 16 0
BBX 16 15 0 0
BITMAP
1FFF
041C
041C
041C
041C
041C
041C
041C
041C
041C
041C
041C
EC1C
F81C
F07F
ENDCHAR
STARTCHAR 043C
ENCODING 1084
SWIDTH 630 0
DWIDTH 21 0
BBX 19 15 1 0
BITMAP
F803E0
3C0780
3C0780
3C0780
2E0B80
2E0B80
271380
271380
271380
23A380
23A380
21C380
21C380
21C380
F88FE0
ENDCHAR
STARTCHAR 043D
ENCODING 1085
SWIDTH 540 0
DWIDTH 18 0
BBX 16 15 1 0
BITMAP
FE7F
381C
381C
381C
381C
381C
381C
3FFC
381C
381C
381C
381C
381C
381C
FE7F
ENDCHAR
STARTCHAR 043E
ENCODING 1086
SWIDTH 480 0
DWIDTH 16 0
BBX 14 15 1 0
BITMAP
0780
18E0
3070
6038
6038
E01C
E01C
E01C
E01C
E01C
7018
7018
3830
1C60
07C0
ENDCHAR
STARTCHAR 043F
ENCODING 1087
SWIDTH 540 0
DWIDTH 18 0
BBX 16 15 1 0
BITMAP
FFFF
381C
381C
381C
381C
381C
381C
381C
381C
381C
381C
381C
381C
381C
FE7F
ENDCHAR
STARTCHAR 0440
ENCODING 1088
SWIDTH 480 0
DWIDTH 16 0
BBX 15 22 0 -7
BITMAP
18F0
7BF8
FE3C
3C1C
381E
380E
380E
380E
380E
380E
380C
381C
3818
3C30
3BE0
3800
3800
3800
3800
3800
3800
FE00
ENDCHAR
STARTCHAR 0441
ENCODING 1089
SWIDTH 420 0
DWIDTH 14 0
BBX 12 15 1 0
BITMAP
0F80
10E0
2070
6070
6030
C000
C000
E000
E000
E010
F010
7820
7FE0
3FC0
0F00
ENDCHAR
STARTCHAR 0442
ENCODING 1090
SWIDTH 420 0
DWIDTH 14 0
BBX 15 15 0 0
BITMAP
7FFC
4384
C382
8382
0380
0380
0380
0380
0380
0380
0380
0380
0380
0380
0FE0
ENDCHAR
STARTCHAR 0443
ENCODING 1091
SWIDTH 480 0
DWIDTH 16 0
BBX 16 22 0 -7
BITMAP
FE0F
7806
3804
1C04
1C08
0E08
0E18
0710
0710
03A0
03A0
01E0
01C0
00C0
0080
0080
0080
0100
0100
7200
7C00
3800
ENDCHAR
STARTCHAR 0444
ENCODING 1092
SWIDTH 630 0
DWIDTH 21 0
BBX 19 30 1 -7
BITMAP
006000
03E000
07E000
00E000
00E000
00E000
00E000
00E000
1EEF00
39F180
70E1C0
60E0C0
E0E0E0
E0E0E0
E0E0E0
E0E0E0
E0E0E0
E0E0E0
E0E0E0
60E0C0
70E1C0
31F380
1EEF00
00E000
00E000
00E000
00E000
00E000
00E000
03F800
ENDCHAR
STARTCHAR 0445
ENCODING 1093
SWIDTH 480 0
DWIDTH 16 0
BBX 15 15 1 0
BITMAP
FC7E
7818
3830
1C20
0E40
0F80
0700
0380
05C0
0CE0
08E0
1070
2038
603C
F8FE
ENDCHAR
STARTCHAR 0446
ENCODING 1094
SWIDTH 540 0
DWIDTH 18 0
BBX 16 19 1 -4
BITMAP
FE7F
381C
381C
381C
381C
381C
381C
381C
381C
381C
381C
381C
381C
381C
FFFF
0007
0003
0001
0001
ENDCHAR
STARTCHAR 0447
ENCODING 1095
SWIDTH 510 0
DWIDTH 17 0
BBX 15 15 1 0
BITMAP
FEFE
3838
3838
3838
3838
3838
3838
3878
1FB8
0038
0038
0038
0038
0038
00FE
ENDCHAR
STARTCHAR 0448
ENCODING 1096
SWIDTH 750 0
DWIDTH 25 0
BBX 23 15 1 0
BITMAP
FEFEFE
383838
383838
383838
383838
383838
383838
383838
383838
383838
383838
383838
383838
383838
FFFFFE
ENDCHAR
STARTCHAR 0449
ENCODING 1097
SWIDTH 750 0
DWIDTH 25 0
BBX 23 19 1 -4
BITMAP
FEFEFE
383838
383838
383838
383838
383838
383838
383838
383838
383838
383838
383838
383838
383838
FFFFFE
00000E
000006
000002
000002
ENDCHAR
STARTCHAR 044A
ENCODING 1098
SWIDTH 510 0
DWIDTH 17 0
BBX 16 15 0 0
BITMAP
7FC0
4700
C700
8700
0700
0700
0700
07F8
070E
0707
0707
0707
0707
070E
1FF8
ENDCHAR
STARTCHAR 044B
ENCODING 1099
SWIDTH 660 0
DWIDTH 22 0
BBX 21 15 0 0
BITMAP
FE03F8
3800E0
3800E0
3800E0
3800E0
3800E0
3800E0
3FC0E0
3870E0
3838E0
3838E0
3838E0
3838E0
3870E0
FFC3F8
ENDCHAR
STARTCHAR 044C
ENCODING 1100
SWIDTH 450 0
DWIDTH 15 0
BBX 13 15 1 0
BITMAP
FE00
3800
3800
3800
3800
3800
3800
3FC0
3870
3838
3838
3838
3838
3870
FFC0
ENDCHAR
STARTCHAR 044D
ENCODING 1101
SWIDTH 420 0
DWIDTH 14 0
BBX 13 15 0 0
BITMAP
4F00
71C0
60E0
4070
4070
0038
0038
07F8
0038
0038
0030
8030
4060
30C0
1F00
ENDCHAR
STARTCHAR 044E
ENCODING 1102
SWIDTH 750 0
DWIDTH 25 0
BBX 23 15 1 0
BITMAP
FE07E0
380C70
381838
38301C
38301E
38700E
38700E
3FF00E
38700E
38700E
38780C
38380C
381C18
380E30
FE07C0
ENDCHAR
STARTCHAR 044F
ENCODING 1103
SWIDTH 450 0
DWIDTH 15 0
BBX 15 15 0 0
BITMAP
07FE
1C38
3838
3838
3838
1C38
0E38
03F8
0738
0738
0E38
1C38
3838
7838
F0FE
ENDCHAR
STARTCHAR 0451
ENCODING 1105
SWIDTH 420 0
DWIDTH 14 0
BBX 12 20 1 0
BITMAP
1CE0
1CE0
1CE0
0000
0000
0F80
11C0
20E0
4070
C070
FFF0
C000
C000
E000
E010
F010
7820
7FE0
3FC0
0F80
ENDCHAR
STARTCHAR 0452
ENCODING 1106
SWIDTH 480 0
DWIDTH 16 0
BBX 14 30 0 -7
BITMAP
3800
F800
3800
3800
FFF0
3800
3800
3800
38E0
3BF0
3A38
3C38
381C
381C
381C
381C
381C
381C
381C
381C
381C
7C1C
FE18
0018
0038
0030
0030
0060
01C0
0300
ENDCHAR
STARTCHAR 0453
ENCODING 1107
SWIDTH 420 0
DWIDTH 14 0
BBX 12 22 1 0
BITMAP
0380
0700
0600
0400
0800
0000
0000
FFE0
3820
3810
3810
3800
3800
3800
3800
3800
3800
3800
3800
3800
3800
FE00
ENDCHAR
STARTCHAR 0454
ENCODING 1108
SWIDTH 420 0
DWIDTH 14 0
BBX 13 15 1 0
BITMAP
0F90
1C70
3830
7010
7010
E000
E000
FF00
E000
E000
6000
6008
3010
1860
07C0
ENDCHAR
STARTCHAR 0455
ENCODING 1109
SWIDTH 360 0
DWIDTH 12 0
BBX 10 15 1 0
BITMAP
3C80
6380
C180
C080
E080
F000
7C00
3F00
0F80
03C0
81C0
C0C0
C0C0
E180
9E00
ENDCHAR
STARTCHAR 0456
ENCODING 1110
SWIDTH 270 0
DWIDTH 9 0
BBX 7 23 1 0
BITMAP
38
38
38
00
00
00
00
00
18
78
F8
38
38
38
38
38
38
38
38
38
38
38
FE
ENDCHAR
STARTCHAR 0457
ENCODING 1111
SWIDTH 270 0
DWIDTH 9 0
BBX 8 21 1 0
BITMAP
E7
E7
E7
00
00
00
18
78
F8
38
38
38
38
38
38
38
38
38
38
38
FE
ENDCHAR
STARTCHAR 0458
ENCODING 1112
SWIDTH 270 0
DWIDTH 9 0
BBX 9 30 -3 -7
BITMAP
0380
0380
0380
0000
0000
0000
0000
0000
0180
0780
0F80
0380
0380
0380
0380
0380
0380
0380
0380
0380
0380
0380
0380
0380
0380
0380
0300
E300
F200
7C00
ENDCHAR
STARTCHAR 0459
ENCODING 1113
SWIDTH 720 0
DWIDTH 24 0
BBX 23 15 0 0
BITMAP
0FFF80
020E00
020E00
020E00
020E00
020E00
020E00
020FF0
020E1C
020E0E
020E0E
020E0E
E40E0E
FC0E1C
783FF0
ENDCHAR
STARTCHAR 045A
ENCODING 1114
SWIDTH 720 0
DWIDTH 24 0
BBX 22 15 1 0
BITMAP
FE7F00
381C00
381C00
381C00
381C00
381C00
381C00
3FFFE0
381C38
381C1C
381C1C
381C1C
381C1C
381C38
FE7FE0
ENDCHAR
STARTCHAR 045B
ENCODING 1115
SWIDTH 480 0
DWIDTH 16 0
BBX 16 23 0 0
BITMAP
1800
7800
F800
3800
3800
FFF0
3800
3800
38F0
39F8
3A3C
3C1C
381C
381C
381C
381C
381C
381C
381C
381C
381C
381C
FE7F
ENDCHAR
STARTCHAR 045C
ENCODING 1116
SWIDTH 480 0
DWIDTH 16 0
BBX 15 22 1 0
BITMAP
00E0
01C0
0180
0100
0200
0000
0000
FE1C
383C
385C
3840
3880
3980
3F00
3B80
39C0
39C0
38E0
38F0
3870
3838
FE3E
ENDCHAR
STARTCHAR 045E
ENCODING 1118
SWIDTH 510 0
DWIDTH 17 0
BBX 16 29 0 -7
BITMAP
180C
1C1C
1C1C
0E38
07E0
0000
0000
FE0F
7C06
3C04
1C0C
0E08
0E08
0710
0710
03B0
03A0
03A0
01C0
01C0
0080
0080
0080
0100
0100
0200
7200
7C00
3800
ENDCHAR
STARTCHAR 045F
ENCODING 1119
SWIDTH 540 0
DWIDTH 18 0
BBX 16 19 1 -4
BITMAP
FE7F
381C
381C
381C
381C
381C
381C
381C
381C
381C
381C
381C
381C
381C
FFFF
03E0
01C0
0080
0080
ENDCHAR
STARTCHAR 0490
ENCODING 1168
SWIDTH 450 0
DWIDTH 15 0
BBX 13 26 1 0
BITMAP
0008
0008
0018
0038
FFF8
3C00
1C00
1C00
1C00
1C00
1C00
1C00
1C00
1C00
1C00
1C00
1C00
1C00
1C00
1C00
1C00
1C00
1C00
1C00
3E00
FF80
ENDCHAR
STARTCHAR 0491
ENCODING 1169
SWIDTH 360 0
DWIDTH 12 0
BBX 11 18 1 0
BITMAP
0020
0020
0060
FFE0
3800
3800
3800
3800
3800
3800
3800
3800
3800
3800
3800
3800
3800
FE00
ENDCHAR
STARTCHAR 0492
ENCODING 1170
SWIDTH 570 0
DWIDTH 19 0
BBX 17 22 1 0
BITMAP
FFFF80
3C0380
1C0180
1C0080
1C0080
1C0000
1C0000
1C0000
1C0000
1C0000
FFF000
1C0000
1C0000
1C0000
1C0000
1C0000
1C0000
1C0000
1C0000
1C0000
3E0000
FF8000
ENDCHAR
STARTCHAR 0493
ENCODING 1171
SWIDTH 420 0
DWIDTH 14 0
BBX 12 15 1 0
BITMAP
FFE0
3820
3810
3810
3800
3800
3800
FF00
3800
3800
3800
3800
3800
3800
FE00
ENDCHAR
STARTCHAR 0496
ENCODING 1174
SWIDTH 900 0
DWIDTH 30 0
BBX 29 28 1 -6
BITMAP
783FE0F0
FC0F81F8
E6070338
02070200
03070600
03070400
01070400
01870C00
00870800
00C71800
007FF000
00E73800
00E73800
01C71C00
03871C00
03870E00
07070700
07070700
0E070380
1E0703C0
3C0F81E0
FC3FE1F8
00000078
00000018
00000018
00000008
00000008
00000008
ENDCHAR
STARTCHAR 0497
ENCODING 1175
SWIDTH 690 0
DWIDTH 23 0
BBX 21 19 1 -4
BITMAP
F1FC78
F0F8F8
E870B8
087080
047100
047100
067300
03FE00
0E7380
1E7380
1C71C0
3C71E0
3870E0
78F8F0
F1FC78
000018
000008
000008
000008
ENDCHAR
STARTCHAR 049A
ENCODING 1178
SWIDTH 660 0
DWIDTH 22 0
BBX 21 28 1 -6
BITMAP
FF81E0
3E03F0
1C0670
1C0400
1C0C00
1C0800
1C0800
1C1800
1C3000
1C6000
1FC000
1CE000
1C7000
1C7000
1C3800
1C1C00
1C0E00
1C0E00
1C0700
1C0380
3E03C0
FF81F8
000078
000038
000018
000008
000008
000008
ENDCHAR
STARTCHAR 049B
ENCODING 1179
SWIDTH 480 0
DWIDTH 16 0
BBX 15 19 1 -4
BITMAP
FE1C
383C
385C
3840
3880
3980
3F00
3B80
39C0
39C0
38E0
38F0
3870
3838
FE3E
0006
0002
0002
0002
ENDCHAR
STARTCHAR 049C
ENCODING 1180
SWIDTH 660 0
DWIDTH 22 0
BBX 21 22 1 0
BITMAP
FF81E0
3E03F0
1C0670
1C0C00
1C8C00
1C8800
1C9800
1C9000
1CB000
1CE000
1FC000
1CC000
1CE000
1CF000
1CB800
1CB800
1C9C00
1C8E00
1C0700
1C0380
3E03C0
FF81F8
ENDCHAR
STARTCHAR 049D
ENCODING 1181
SWIDTH 480 0
DWIDTH 16 0
BBX 15 15 1 0
BITMAP
FE1C
383C
395C
3940
3980
3980
3F00
39C0
39E0
39E0
3970
3970
3878
383C
FE1E
ENDCHAR
STARTCHAR 04A2
ENCODING 1186
SWIDTH 720 0
DWIDTH 24 0
BBX 22 28 1 -6
BITMAP
FF87FC
3E01F0
1C00E0
1C00E0
1C00E0
1C00E0
1C00E0
1C00E0
1C00E0
1C00E0
1FFFE0
1C00E0
1C00E0
1C00E0
1C00E0
1C00E0
1C00E0
1C00E0
1C00E0
1C00E0
3E01F0
FF87FC
00007C
00001C
00000C
00000C
000004
000004
ENDCHAR
STARTCHAR 04A3
ENCODING 1187
SWIDTH 540 0
DWIDTH 18 0
BBX 16 19 1 -4
BITMAP
FE7F
381C
381C
381C
381C
381C
381C
3FFC
381C
381C
381C
381C
381C
381C
FE7F
0007
0003
0001
0001
ENDCHAR
STARTCHAR 04AE
ENCODING 1198
SWIDTH 720 0
DWIDTH 24 0
BBX 22 22 1 0
BITMAP
FF01FC
7C00F0
1C0040
1C00C0
0E0080
070100
070200
038200
01C400
01C400
00E800
007000
007000
007000
007000
007000
007000
007000
007000
007000
00F800
03FE00
ENDCHAR
STARTCHAR 04AF
ENCODING 1199
SWIDTH 510 0
DWIDTH 17 0
BBX 17 22 0 -7
BITMAP
FE0F80
7C0600
380200
1C0400
1C0400
0E0800
0E0800
0E1000
071000
071000
03A000
03A000
01C000
01C000
01C000
01C000
01C000
01C000
01C000
01C000
03E000
0FF800
ENDCHAR
STARTCHAR 04B0
ENCODING 1200
SWIDTH 720 0
DWIDTH 24 0
BBX 22 22 1 0
BITMAP
FF01FC
7C00F0
1C0040
1C00C0
0E0080
070100
070200
038200
01C400
01C400
00E800
007000
1FFFC0
007000
007000
007000
007000
007000
007000
007000
00F800
03FE00
ENDCHAR
STARTCHAR 04B1
ENCODING 1201
SWIDTH 510 0
DWIDTH 17 0
BBX 17 22 0 -7
BITMAP
FE0F80
7C0600
380600
1C0400
1C0400
0E0800
0E0800
0F1000
071000
071000
03A000
03A000
01C000
01C000
FFFF80
01C000
01C000
01C000
01C000
01C000
03E000
0FF800
ENDCHAR
STARTCHAR 04B2
ENCODING 1202
SWIDTH 690 0
DWIDTH 23 0
BBX 24 28 0 -6
BITMAP
FFC0FE
3F0038
0F0030
070020
038040
03C080
01C100
00E200
007400
007800
003800
001C00
002E00
004E00
008700
010380
0201C0
0401C0
0C00E0
180070
7800FC
FE03FF
00001F
000007
000003
000003
000001
000001
ENDCHAR
STARTCHAR 04B3
ENCODING 1203
SWIDTH 480 0
DWIDTH 16 0
BBX 15 19 1 -4
BITMAP
FC7E
7818
3810
1C20
0E40
0F80
0700
0380
05C0
0CE0
08E0
1070
2038
603C
F8FE
000E
0006
0002
0002
ENDCHAR
STARTCHAR 04B8
ENCODING 1208
SWIDTH 630 0
DWIDTH 21 0
BBX 20 22 0 0
BITMAP
FF9FF0
3E07C0
1C0380
1C0380
1C2380
1C2380
1C2380
1C2380
1C2380
1C2380
1C2380
1E2780
0FFB80
03E380
002380
002380
002380
002380
000380
000380
0007C0
001FF0
ENDCHAR
STARTCHAR 04B9
ENCODING 1209
SWIDTH 510 0
DWIDTH 17 0
BBX 15 15 1 0
BITMAP
FEFE
3838
3838
3838
3938
3938
3938
3978
1FB8
0138
0138
0038
0038
0038
00FE
ENDCHAR
STARTCHAR 04BA
ENCODING 1210
SWIDTH 630 0
DWIDTH 21 0
BBX 20 22 1 0
BITMAP
FF8000
3E0000
1C0000
1C0000
1C0000
1C0000
1C0000
1C0000
1C3E00
1DFF00
1F0780
1C0380
1C0380
1C0380
1C0380
1C0380
1C0380
1C0380
1C0380
1C0380
3E07C0
FF9FF0
ENDCHAR
STARTCHAR 04BB
ENCODING 1211
SWIDTH 480 0
DWIDTH 16 0
BBX 16 23 0 0
BITMAP
1800
7800
F800
3800
3800
3800
3800
3800
38F0
39F8
3A3C
3C1C
381C
381C
381C
381C
381C
381C
381C
381C
381C
381C
FE7F
ENDCHAR
STARTCHAR 04D8
ENCODING 1240
SWIDTH 720 0
DWIDTH 24 0
BBX 22 22 1 0
BITMAP
08FE00
0F8780
0E01C0
0C00E0
1800F0
180078
100078
100038
00003C
00003C
FFFFFC
F0003C
F0003C
F0003C
F0003C
780078
780078
3C00F0
1C00E0
0E01C0
078780
01FE00
ENDCHAR
STARTCHAR 04D9
ENCODING 1241
SWIDTH 420 0
DWIDTH 14 0
BBX 12 15 1 0
BITMAP
0F00
3FC0
7FE0
61E0
C0F0
8070
0070
0030
0030
FFF0
E030
E060
7060
30C0
1F00
ENDCHAR
STARTCHAR 04E8
ENCODING 1256
SWIDTH 720 0
DWIDTH 24 0
BBX 22 22 1 0
BITMAP
00FE00
070380
0E01C0
1C00E0
380070
780078
700078
F00038
F0003C
F0003C
FFFFFC
F0003C
F0003C
F0003C
F00038
780078
780078
380070
1C00E0
0E01C0
070380
01FC00
ENDCHAR
STARTCHAR 04E9
ENCODING 1257
SWIDTH 480 0
DWIDTH 16 0
BBX 14 15 1 0
BITMAP
0FC0
18E0
3070
6038
6038
E01C
E01C
FFFC
E01C
E01C
7018
7018
3830
1C60
0FC0
ENDCHAR
STARTCHAR 05B0
ENCODING 1456
SWIDTH 330 0
DWIDTH 11 0
BBX 2 5 4 -7
BITMAP
C0
C0
00
C0
C0
ENDCHAR
STARTCHAR 05B1
ENCODING 1457
SWIDTH 330 0
DWIDTH 11 0
BBX 8 5 1 -7
BITMAP
DB
DB
00
33
33
ENDCHAR
STARTCHAR 05B2
ENCODING 1458
SWIDTH 330 0
DWIDTH 11 0
BBX 9 5 1 -7
BITMAP
FD80
FD80
0000
0180
0180
ENDCHAR
STARTCHAR 05B3
ENCODING 1459
SWIDTH 330 0
DWIDTH 11 0
BBX 11 5 0 -7
BITMAP
FC60
FC60
1000
3060
3060
ENDCHAR
STARTCHAR 05B4
ENCODING 1460
SWIDTH 330 0
DWIDTH 11 0
BBX 2 2 4 -5
BITMAP
C0
C0
ENDCHAR
STARTCHAR 05B5
ENCODING 1461
SWIDTH 330 0
DWIDTH 11 0
BBX 5 2 3 -5
BITMAP
D8
D8
ENDCHAR
STARTCHAR 05B6
ENCODING 1462
SWIDTH 330 0
DWIDTH 11 0
BBX 5 5 3 -7
BITMAP
D8
D8
00
60
60
ENDCHAR
STARTCHAR 05B7
ENCODING 1463
SWIDTH 330 0
DWIDTH 11 0
BBX 7 2 2 -5
BITMAP
FE
FE
ENDCHAR
STARTCHAR 05B8
ENCODING 1464
SWIDTH 330 0
DWIDTH 11 0
BBX 6 5 2 -7
BITMAP
FC
FC
20
30
30
ENDCHAR
STARTCHAR 05B9
ENCODING 1465
SWIDTH 330 0
DWIDTH 11 0
BBX 2 2 4 20
BITMAP
C0
C0
ENDCHAR
STARTCHAR 05BA
ENCODING 1466
SWIDTH 330 0
DWIDTH 11 0
BBX 2 2 4 20
BITMAP
C0
C0
ENDCHAR
STARTCHAR 05BB
ENCODING 1467
SWIDTH 330 0
DWIDTH 11 0
BBX 8 6 1 -7
BITMAP
C0
C0
18
18
03
03
ENDCHAR
STARTCHAR 05BC
ENCODING 1468
SWIDTH 330 0
DWIDTH 11 0
BBX 2 2 4 8
BITMAP
C0
C0
ENDCHAR
STARTCHAR 05BD
ENCODING 1469
SWIDTH 330 0
DWIDTH 11 0
BBX 2 5 5 -7
BITMAP
C0
C0
C0
C0
C0
ENDCHAR
STARTCHAR 05BE
ENCODING 1470
SWIDTH 360 0
DWIDTH 12 0
BBX 8 3 2 14
BITMAP
FF
FF
FF
ENDCHAR
STARTCHAR 05BF
ENCODING 1471
SWIDTH 330 0
DWIDTH 11 0
BBX 7 2 2 19
BITMAP
FE
FE
ENDCHAR
STARTCHAR 05C0
ENCODING 1472
SWIDTH 300 0
DWIDTH 10 0
BBX 2 21 4 -2
BITMAP
C0
C0
C0
C0
C0
C0
C0
C0
C0
C0
C0
C0
C0
C0
C0
C0
C0
C0
C0
C0
C0
ENDCHAR
STARTCHAR 05C1
ENCODING 1473
SWIDTH 330 0
DWIDTH 11 0
BBX 2 2 11 20
BITMAP
C0
C0
ENDCHAR
STARTCHAR 05C2
ENCODING 1474
SWIDTH 330 0
DWIDTH 11 0
BBX 2 2 -2 20
BITMAP
C0
C0
ENDCHAR
STARTCHAR 05C3
ENCODING 1475
SWIDTH 270 0
DWIDTH 9 0
BBX 4 17 3 0
BITMAP
60
F0
F0
60
00
00
00
00
00
00
00
00
00
60
F0
F0
60
ENDCHAR
STARTCHAR 05D0
ENCODING 1488
SWIDTH 480 0
DWIDTH 16 0
BBX 13 18 2 0
BITMAP
4180
C1F0
C1F8
E0F8
7020
7840
3C40
1E80
2F80
4780
C3C0
C1C0
C1E0
E0F0
6078
7038
7018
F010
ENDCHAR
STARTCHAR 05D1
ENCODING 1489
SWIDTH 450 0
DWIDTH 15 0
BBX 13 18 1 0
BITMAP
4000
FFC0
FFE0
FFF0
0070
0030
0030
0030
0030
0030
0030
0030
0030
0020
0020
7FF8
FFF8
FFF0
ENDCHAR
STARTCHAR 05D2
ENCODING 1490
SWIDTH 330 0
DWIDTH 11 0
BBX 10 18 1 0
BITMAP
2000
7C00
7E00
3E00
0600
0200
0200
0200
0200
0200
0300
0300
0780
0580
19C0
79C0
F9C0
F080
ENDCHAR
STARTCHAR 05D3
ENCODING 1491
SWIDTH 420 0
DWIDTH 14 0
BBX 12 18 1 0
BITMAP
4000
FFF0
FFF0
7FF0
0020
0040
0080
0080
0180
0180
0180
0180
0180
0180
0180
0180
0180
0100
ENDCHAR
STARTCHAR 05D4
ENCODING 1492
SWIDTH 480 0
DWIDTH 16 0
BBX 13 18 1 0
BITMAP
4000
FFF8
FFF8
7FF8
0008
0010
0020
0020
0020
0020
6030
C030
C030
C030
C030
C030
C030
8020
ENDCHAR
STARTCHAR 05D5
ENCODING 1493
SWIDTH 270 0
DWIDTH 9 0
BBX 6 18 1 0
BITMAP
C0
F8
FC
7C
0C
04
04
04
04
04
04
04
04
04
04
04
04
04
ENDCHAR
STARTCHAR 05D6
ENCODING 1494
SWIDTH 270 0
DWIDTH 9 0
BBX 7 18 1 0
BITMAP
40
FC
FE
7E
10
10
30
30
30
30
30
38
38
38
18
18
18
30
ENDCHAR
STARTCHAR 05D7
ENCODING 1495
SWIDTH 480 0
DWIDTH 16 0
BBX 13 18 1 0
BITMAP
4000
FFF8
FFF8
FFF8
4008
4010
C010
8020
8020
C020
C030
C030
C030
C030
C030
C030
C030
8020
ENDCHAR
STARTCHAR 05D8
ENCODING 1496
SWIDTH 480 0
DWIDTH 16 0
BBX 13 18 1 0
BITMAP
4000
F8E0
F9F0
FBF0
4318
4608
4408
4008
4008
4008
4008
4008
6018
6010
2010
3FF0
3FE0
3FE0
ENDCHAR
STARTCHAR 05D9
ENCODING 1497
SWIDTH 270 0
DWIDTH 9 0
BBX 7 10 1 8
BITMAP
40
FC
FE
7E
06
02
02
02
04
08
ENDCHAR
STARTCHAR 05DA
ENCODING 1498
SWIDTH 450 0
DWIDTH 15 0
BBX 12 24 1 -6
BITMAP
4000
FFF0
FFF0
FFF0
0060
0040
0040
0040
0040
0060
0060
0060
0060
0060
0060
0060
0060
0060
0060
0060
0060
0060
0060
0040
ENDCHAR
STARTCHAR 05DB
ENCODING 1499
SWIDTH 420 0
DWIDTH 14 0
BBX 11 18 1 0
BITMAP
4000
FF00
FF80
FFC0
00C0
0060
0020
0020
0020
0020
0020
0020
0020
0060
00C0
7FC0
FF80
FF00
ENDCHAR
STARTCHAR 05DC
ENCODING 1500
SWIDTH 420 0
DWIDTH 14 0
BBX 13 25 0 0
BITMAP
C000
E000
6000
2000
2000
4000
4000
4000
7FF0
7FF8
3FF8
0018
0008
0008
0008
0008
0010
0030
0060
00C0
0180
0100
0300
0300
0300
ENDCHAR
STARTCHAR 05DD
ENCODING 1501
SWIDTH 510 0
DWIDTH 17 0
BBX 13 18 2 0
BITMAP
4000
FFE0
FFF0
FFF8
1018
2018
4008
C008
8008
8008
8008
8008
8008
8008
8008
FFF8
FFF8
FFF8
ENDCHAR
STARTCHAR 05DE
ENCODING 1502
SWIDTH 480 0
DWIDTH 16 0
BBX 13 18 1 0
BITMAP
C000
F880
F8E0
79E0
1BF0
0C30
1818
1018
2008
4008
4008
4008
C008
8008
8008
87F0
8FF0
8FF0
ENDCHAR
STARTCHAR 05DF
ENCODING 1503
SWIDTH 270 0
DWIDTH 9 0
BBX 6 24 1 -6
BITMAP
40
F8
FC
7C
0C
08
08
18
18
10
10
18
18
18
18
18
18
18
18
18
18
18
18
10
ENDCHAR
STARTCHAR 05E0
ENCODING 1504
SWIDTH 300 0
DWIDTH 10 0
BBX 7 18 1 0
BITMAP
20
7C
7E
3E
06
06
04
04
04
04
04
04
06
06
06
7E
FE
FE
ENDCHAR
STARTCHAR 05E1
ENCODING 1505
SWIDTH 480 0
DWIDTH 16 0
BBX 12 18 2 0
BITMAP
4000
FF80
FFC0
FFE0
4060
4030
8010
8010
8010
8010
8010
8010
8010
C030
6060
7FE0
3FC0
1F80
ENDCHAR
STARTCHAR 05E2
ENCODING 1506
SWIDTH 450 0
DWIDTH 15 0
BBX 13 18 1 0
BITMAP
4040
F8F8
F8F8
7878
2018
2010
2010
3020
3820
1C60
0C40
0440
0440
04C0
07C0
7FC0
FF80
F800
ENDCHAR
STARTCHAR 05E3
ENCODING 1507
SWIDTH 450 0
DWIDTH 15 0
BBX 11 24 2 -6
BITMAP
4000
FF80
FFC0
FFC0
60C0
4040
4040
4040
E060
F860
F860
F860
8060
0060
0060
0060
0060
0060
0060
0060
0060
0060
0060
0040
ENDCHAR
STARTCHAR 05E4
ENCODING 1508
SWIDTH 450 0
DWIDTH 15 0
BBX 11 18 2 0
BITMAP
4000
FF00
FF80
7FC0
4040
4060
C020
F020
F820
F820
C020
0020
0020
0060
00C0
7FC0
FF80
FF00
ENDCHAR
STARTCHAR 05E5
ENCODING 1509
SWIDTH 480 0
DWIDTH 16 0
BBX 14 24 1 -6
BITMAP
4040
F8F8
FCFC
7C7C
0C30
0860
08C0
1180
1300
1200
1400
1C00
1800
1800
1800
1800
1800
1800
1800
1800
1800
1800
1800
1000
ENDCHAR
STARTCHAR 05E6
ENCODING 1510
SWIDTH 450 0
DWIDTH 15 0
BBX 13 18 1 0
BITMAP
4040
F8F8
F8F8
7878
0820
0840
0840
0880
0C80
0F80
0780
03C0
01E0
0070
0038
3FF8
7FF8
7FF0
ENDCHAR
STARTCHAR 05E7
ENCODING 1511
SWIDTH 480 0
DWIDTH 16 0
BBX 12 24 2 -6
BITMAP
4000
FFE0
FFE0
FFF0
0030
0010
0010
8010
8010
8010
8060
80C0
8300
8600
8400
8C00
8C00
8C00
8000
8000
8000
8000
8000
8000
ENDCHAR
STARTCHAR 05E8
ENCODING 1512
SWIDTH 450 0
DWIDTH 15 0
BBX 12 18 1 0
BITMAP
4000
FFC0
FFE0
FFF0
0030
0030
0010
0010
0010
0010
0010
0010
0010
0010
0010
0010
0010
0010
ENDCHAR
STARTCHAR 05E9
ENCODING 1513
SWIDTH 600 0
DWIDTH 20 0
BBX 18 18 1 0
BITMAP
C18200
F1E780
F9F7C0
78F3C0
4040C0
40C080
408080
408100
410300
410200
430400
620400
260C00
241800
381800
3FF800
1FF000
1FF000
ENDCHAR
STARTCHAR 05EA
ENCODING 1514
SWIDTH 510 0
DWIDTH 17 0
BBX 15 18 0 0
BITMAP
1000
3FF8
3FFC
1FFE
040E
0802
0802
1002
1002
1002
1002
1002
1002
1802
1802
7802
F802
F802
ENDCHAR
STARTCHAR 05F0
ENCODING 1520
SWIDTH 540 0
DWIDTH 18 0
BBX 15 18 1 0
BITMAP
C060
F87C
FC7E
7C3E
0C06
0402
0402
0402
0402
0402
0402
0402
0402
0402
0402
0402
0402
0402
ENDCHAR
STARTCHAR 05F1
ENCODING 1521
SWIDTH 540 0
DWIDTH 18 0
BBX 15 18 1 0
BITMAP
4060
F87C
FC7E
7C3E
0C06
0402
0402
0402
0802
1002
0002
0002
0002
0002
0002
0002
0002
0002
ENDCHAR
STARTCHAR 05F2
ENCODING 1522
SWIDTH 540 0
DWIDTH 18 0
BBX 15 10 1 8
BITMAP
4020
F87C
FC7E
7C3E
0C06
0402
0402
0402
0804
1008
ENDCHAR
STARTCHAR 05F3
ENCODING 1523
SWIDTH 210 0
DWIDTH 7 0
BBX 4 8 2 9
BITMAP
70
F0
F0
E0
E0
C0
C0
80
ENDCHAR
STARTCHAR 05F4
ENCODING 1524
SWIDTH 360 0
DWIDTH 12 0
BBX 10 8 1 9
BITMAP
71C0
F3C0
F3C0
E380
E380
C300
C300
8200
ENDCHAR
STARTCHAR 060C
ENCODING 1548
SWIDTH 330 0
DWIDTH 11 0
BBX 5 10 3 5
BITMAP
10
30
60
40
C0
E0
F8
F8
78
70
ENDCHAR
STARTCHAR 061B
ENCODING 1563
SWIDTH 330 0
DWIDTH 11 0
BBX 5 16 3 5
BITMAP
10
30
60
40
C0
E0
F8
F8
78
70
00
00
30
78
78
30
ENDCHAR
STARTCHAR 061F
ENCODING 1567
SWIDTH 360 0
DWIDTH 12 0
BBX 9 19 1 5
BITMAP
1E00
7100
6180
E380
E780
F780
FB00
7800
7C00
3C00
0C00
0400
0400
0400
0000
0C00
1E00
1E00
0C00
ENDCHAR
STARTCHAR 0621
ENCODING 1569
SWIDTH 420 0
DWIDTH 14 0
BBX 11 12 2 3
BITMAP
0E00
1F00
3F00
6200
4000
C060
F3E0
FFC0
7F80
3C00
3800
2000
ENDCHAR
STARTCHAR 0622
ENCODING 1570
SWIDTH 210 0
DWIDTH 7 0
BBX 7 23 0 4
BITMAP
E2
9C
00
08
18
18
18
18
18
18
18
18
1C
1C
0C
0C
0C
0C
0C
0C
0C
08
08
ENDCHAR
STARTCHAR 0623
ENCODING 1571
SWIDTH 210 0
DWIDTH 7 0
BBX 5 25 1 4
BITMAP
30
40
60
30
C0
00
10
30
30
30
30
30
30
30
38
38
38
18
18
18
18
18
18
10
10
ENDCHAR
STARTCHAR 0624
ENCODING 1572
SWIDTH 420 0
DWIDTH 14 0
BBX 13 23 1 -3
BITMAP
0300
0400
0600
0300
0C00
0000
0070
00F0
00F8
0198
0188
01C8
01F8
00F8
0078
0008
0018
0030
0070
00E0
C3E0
3FC0
0F00
ENDCHAR
STARTCHAR 0625
ENCODING 1573
SWIDTH 210 0
DWIDTH 7 0
BBX 6 27 0 -3
BITMAP
08
18
18
18
18
18
18
18
18
1C
1C
0C
0C
0C
0C
0C
0C
0C
08
08
00
00
30
40
60
30
C0
ENDCHAR
STARTCHAR 0626
ENCODING 1574
SWIDTH 630 0
DWIDTH 21 0
BBX 19 19 1 -1
BITMAP
300000
400000
600000
3001C0
C007E0
0007E0
000C20
201000
402000
402000
803FC0
803FC0
801FC0
8000C0
C00380
E03F80
FFFF00
7FFC00
1FE000
ENDCHAR
STARTCHAR 0627
ENCODING 1575
SWIDTH 210 0
DWIDTH 7 0
BBX 3 20 3 4
BITMAP
40
C0
C0
C0
C0
C0
C0
C0
C0
E0
E0
60
60
60
60
60
60
60
40
40
ENDCHAR
STARTCHAR 0628
ENCODING 1576
SWIDTH 720 0
DWIDTH 24 0
BBX 23 17 1 -2
BITMAP
400004
800004
80000E
800006
800002
C00002
F00002
7FFFFE
3FFFFE
0FFFFE
000000
000000
000000
001000
003C00
003800
000800
ENDCHAR
STARTCHAR 0629
ENCODING 1577
SWIDTH 270 0
DWIDTH 9 0
BBX 9 18 0 5
BITMAP
0400
4F00
FE00
E200
2000
0000
0000
1000
1C00
1E00
1F00
3780
2380
6180
6380
7F80
7F00
3E00
ENDCHAR
STARTCHAR 062A
ENCODING 1578
SWIDTH 720 0
DWIDTH 24 0
BBX 23 15 1 5
BITMAP
000400
004F00
00FE00
00E200
002000
400004
800004
80000E
800006
800002
C00002
F00002
7FFFFE
3FFFFE
0FFFFE
ENDCHAR
STARTCHAR 062B
ENCODING 1579
SWIDTH 720 0
DWIDTH 24 0
BBX 23 19 1 5
BITMAP
002000
007800
007000
001000
000400
004F00
00FE00
00E200
002000
400004
800004
80000E
800006
800002
C00002
F00002
7FFFFE
3FFFFE
0FFFFE
ENDCHAR
STARTCHAR 062C
ENCODING 1580
SWIDTH 570 0
DWIDTH 19 0
BBX 17 21 1 -7
BITMAP
1FFF00
7FFF00
FFFF00
83F800
078000
1C0000
300000
200000
404000
80F000
80E000
802000
800000
800000
C00000
E00000
780000
7F0000
3FFF80
0FFE00
01FC00
ENDCHAR
STARTCHAR 062D
ENCODING 1581
SWIDTH 570 0
DWIDTH 19 0
BBX 17 21 1 -7
BITMAP
1FFF00
7FFF00
FFFF00
83F800
078000
1C0000
300000
200000
400000
800000
800000
800000
800000
800000
C00000
E00000
780000
7F0000
3FFF80
0FFE00
01FC00
ENDCHAR
STARTCHAR 062E
ENCODING 1582
SWIDTH 570 0
DWIDTH 19 0
BBX 17 28 1 -7
BITMAP
010000
03C000
03C000
008000
000000
000000
000000
1FFF00
7FFF00
FFFF00
83F800
078000
1C0000
300000
200000
400000
800000
800000
800000
800000
800000
C00000
E00000
780000
7F0000
3FFF80
0FFE00
01FC00
ENDCHAR
STARTCHAR 062F
ENCODING 1583
SWIDTH 330 0
DWIDTH 11 0
BBX 9 14 2 5
BITMAP
0800
0C00
0E00
0700
0300
0100
0180
0080
0080
0080
8080
FF80
FF80
FF80
ENDCHAR
STARTCHAR 0630
ENCODING 1584
SWIDTH 330 0
DWIDTH 11 0
BBX 9 21 2 5
BITMAP
2000
7800
7000
1000
0000
0000
0000
0800
0C00
0E00
0700
0300
0100
0180
0080
0080
0080
8080
FF80
FF80
FF80
ENDCHAR
STARTCHAR 0631
ENCODING 1585
SWIDTH 480 0
DWIDTH 16 0
BBX 15 17 1 -3
BITMAP
0008
000C
000C
000E
0006
0006
0002
0002
0002
0006
0006
000C
001C
0078
C1F0
3FE0
0F80
ENDCHAR
STARTCHAR 0632
ENCODING 1586
SWIDTH 480 0
DWIDTH 16 0
BBX 15 24 1 -3
BITMAP
0020
0078
0078
0010
0000
0000
0000
0008
000C
000C
000E
0006
0006
0002
0002
0002
0006
0006
000C
001C
0078
C1F0
3FE0
0F80
ENDCHAR
STARTCHAR 0633
ENCODING 1587
SWIDTH 810 0
DWIDTH 27 0
BBX 26 16 1 -2
BITMAP
00020080
00020480
000704C0
20070440
40030440
40030640
8001FFC0
8001FFC0
8001F9C0
80010000
80030000
C0060000
E03E0000
7FFC0000
7FF80000
1FE00000
ENDCHAR
STARTCHAR 0634
ENCODING 1588
SWIDTH 810 0
DWIDTH 27 0
BBX 26 27 1 -2
BITMAP
00001000
00003C00
00003C00
00000800
00000200
00002780
00007F00
00007900
00001000
00000000
00000000
00020080
00020480
000704C0
20070440
40030440
40030640
8001FFC0
8001FFC0
8001F9C0
80010000
80030000
C0060000
E03E0000
7FFC0000
7FF80000
1FE00000
ENDCHAR
STARTCHAR 0635
ENCODING 1589
SWIDTH 1080 0
DWIDTH 36 0
BBX 35 16 1 -2
BITMAP
0002000F80
0002003FC0
000700FFE0
200701E0E0
4003038060
40031E00E0
8001FFFFE0
8001FFFFE0
8001FFFFE0
8001000000
8003000000
C006000000
E03E000000
7FFC000000
7FF8000000
1FE0000000
ENDCHAR
STARTCHAR 0636
ENCODING 1590
SWIDTH 1080 0
DWIDTH 36 0
BBX 35 22 1 -2
BITMAP
0000020000
0000078000
0000078000
0000010000
0000000000
0000000000
0002000F80
0002003FC0
000700FFE0
200701E0E0
4003038060
40031E00E0
8001FFFFE0
8001FFFFE0
8001FFFFE0
8001000000
8003000000
C006000000
E03E000000
7FFC000000
7FF8000000
1FE0000000
ENDCHAR
STARTCHAR 0637
ENCODING 1591
SWIDTH 570 0
DWIDTH 19 0
BBX 20 21 -1 5
BITMAP
020000
020000
038000
038000
018000
010000
010000
018000
008000
008000
008000
008000
0083C0
009FE0
00BFF0
00F070
01C030
070070
FFFFF0
FFFFF0
FFFFF0
ENDCHAR
STARTCHAR 0638
ENCODING 1592
SWIDTH 570 0
DWIDTH 19 0
BBX 20 21 -1 5
BITMAP
020000
020000
038000
038000
018400
010F00
010F00
018200
008000
008000
008000
008000
0083C0
009FE0
00BFF0
00F070
01C030
070070
FFFFF0
FFFFF0
FFFFF0
ENDCHAR
STARTCHAR 0639
ENCODING 1593
SWIDTH 540 0
DWIDTH 18 0
BBX 16 27 1 -7
BITMAP
1E00
3F00
7F80
7000
C000
8000
8018
C078
F1F0
7FE0
7F80
3E00
1800
3000
6000
4000
8000
8000
8000
8000
8000
C000
E000
7C00
3FFF
1FFC
03F8
ENDCHAR
STARTCHAR 063A
ENCODING 1594
SWIDTH 540 0
DWIDTH 18 0
BBX 16 34 1 -7
BITMAP
0800
0E00
1C00
0400
0000
0000
0000
1E00
3F00
7F80
7000
C000
8000
8018
C078
F1F0
7FE0
7F80
3E00
1800
3000
6000
4000
8000
8000
8000
8000
8000
C000
E000
7C00
3FFF
1FFC
03F8
ENDCHAR
STARTCHAR 0640
ENCODING 1600
SWIDTH 210 0
DWIDTH 7 0
BBX 8 3 -1 5
BITMAP
FF
FF
FF
ENDCHAR
STARTCHAR 0641
ENCODING 1601
SWIDTH 780 0
DWIDTH 26 0
BBX 25 17 1 5
BITMAP
00002000
00003800
00007000
00001000
00000000
00000000
00000000
40000E00
80001F00
80001F80
80003180
80003980
C0003F80
F0000F80
7FFFFF80
3FFFFF80
07FFFF80
ENDCHAR
STARTCHAR 0642
ENCODING 1602
SWIDTH 570 0
DWIDTH 19 0
BBX 18 25 1 -2
BITMAP
000400
004F00
00FE00
00E200
002000
000000
000000
000000
000E00
001F00
001F80
003180
4031C0
403FC0
803FC0
800F40
800040
800040
800040
8000C0
C001C0
F00F80
7FFF00
3FFE00
0FF000
ENDCHAR
STARTCHAR 0643
ENCODING 1603
SWIDTH 600 0
DWIDTH 20 0
BBX 19 21 1 5
BITMAP
000200
000380
0003C0
0003C0
0001C0
001180
007180
00C180
0080C0
01F8C0
01F8C0
0018C0
4018C0
8070C0
87E040
800060
800060
E00060
FFFFE0
7FFFE0
1FFFE0
ENDCHAR
STARTCHAR 0644
ENCODING 1604
SWIDTH 510 0
DWIDTH 17 0
BBX 16 26 1 0
BITMAP
0010
001C
001E
001E
000E
000C
0004
0004
0006
0006
0006
0002
1002
2002
4003
4003
8001
8001
8001
8001
8001
C007
F01E
7FFE
3FFC
1FF0
ENDCHAR
STARTCHAR 0645
ENCODING 1605
SWIDTH 330 0
DWIDTH 11 0
BBX 10 20 1 -7
BITMAP
0600
0F00
1F80
1180
00C0
07C0
3FC0
7FC0
F000
C000
C000
C000
C000
4000
6000
6000
6000
2000
2000
2000
ENDCHAR
STARTCHAR 0646
ENCODING 1606
SWIDTH 510 0
DWIDTH 17 0
BBX 16 21 1 -2
BITMAP
0100
03C0
0380
0080
0000
0002
0002
0007
2007
4003
4001
8001
8001
8001
8001
8003
C007
E03E
7FFE
7FFC
1FE0
ENDCHAR
STARTCHAR 0647
ENCODING 1607
SWIDTH 270 0
DWIDTH 9 0
BBX 7 11 1 5
BITMAP
20
38
3C
3C
4E
46
C6
CE
FE
FC
78
ENDCHAR
STARTCHAR 0648
ENCODING 1608
SWIDTH 420 0
DWIDTH 14 0
BBX 13 17 1 -3
BITMAP
0070
00F0
00F8
0198
0188
01C8
01F8
00F8
0078
0008
0018
0030
0070
00E0
C3E0
3FC0
0F00
ENDCHAR
STARTCHAR 0649
ENCODING 1609
SWIDTH 630 0
DWIDTH 21 0
BBX 19 16 1 -1
BITMAP
0001C0
0007E0
0007E0
000C20
201000
402000
402000
803FC0
803FC0
801FC0
8000C0
C00380
E03F80
FFFF00
7FFC00
1FE000
ENDCHAR
STARTCHAR 064A
ENCODING 1610
SWIDTH 630 0
DWIDTH 21 0
BBX 19 22 1 -7
BITMAP
0001C0
0007E0
0007E0
000C20
201000
402000
402000
803FC0
803FC0
801FC0
8000C0
C00380
E03F80
FFFF00
7FFC00
1FE000
000000
002000
027800
07F800
071000
010000
ENDCHAR
STARTCHAR 064B
ENCODING 1611
SWIDTH 210 0
DWIDTH 7 0
BBX 6 5 1 20
BITMAP
04
38
C4
38
C0
ENDCHAR
STARTCHAR 064C
ENCODING 1612
SWIDTH 240 0
DWIDTH 8 0
BBX 7 6 1 20
BITMAP
06
0A
EA
2E
2A
70
ENDCHAR
STARTCHAR 064D
ENCODING 1613
SWIDTH 210 0
DWIDTH 7 0
BBX 6 5 1 -4
BITMAP
04
38
C4
38
C0
ENDCHAR
STARTCHAR 064E
ENCODING 1614
SWIDTH 210 0
DWIDTH 7 0
BBX 6 3 1 20
BITMAP
04
38
C0
ENDCHAR
STARTCHAR 064F
ENCODING 1615
SWIDTH 210 0
DWIDTH 7 0
BBX 4 7 2 20
BITMAP
30
50
50
70
30
40
80
ENDCHAR
STARTCHAR 0650
ENCODING 1616
SWIDTH 210 0
DWIDTH 7 0
BBX 6 3 1 -1
BITMAP
04
38
C0
ENDCHAR
STARTCHAR 0651
ENCODING 1617
SWIDTH 210 0
DWIDTH 7 0
BBX 7 5 1 20
BITMAP
02
12
96
BC
E0
ENDCHAR
STARTCHAR 0652
ENCODING 1618
SWIDTH 150 0
DWIDTH 5 0
BBX 5 4 1 20
BITMAP
70
98
88
F0
ENDCHAR
STARTCHAR 0653
ENCODING 1619
SWIDTH 210 0
DWIDTH 7 0
BBX 6 2 0 23
BITMAP
E0
1C
ENDCHAR
STARTCHAR 0654
ENCODING 1620
SWIDTH 210 0
DWIDTH 7 0
BBX 4 5 1 24
BITMAP
30
40
60
30
C0
ENDCHAR
STARTCHAR 0655
ENCODING 1621
SWIDTH 210 0
DWIDTH 7 0
BBX 4 5 1 -3
BITMAP
30
40
60
30
C0
ENDCHAR
STARTCHAR 0660
ENCODING 1632
SWIDTH 510 0
DWIDTH 17 0
BBX 5 8 6 7
BITMAP
40
60
70
F8
F8
F0
30
10
ENDCHAR
STARTCHAR 0661
ENCODING 1633
SWIDTH 510 0
DWIDTH 17 0
BBX 7 19 5 5
BITMAP
40
60
F0
F0
78
38
3C
1C
1C
0E
0E
06
06
06
06
04
04
04
04
ENDCHAR
STARTCHAR 0662
ENCODING 1634
SWIDTH 510 0
DWIDTH 17 0
BBX 11 19 3 5
BITMAP
4020
6020
E060
F860
7FE0
3FC0
1F80
1C00
0E00
0E00
0600
0700
0700
0300
0300
0300
0300
0100
0100
ENDCHAR
STARTCHAR 0663
ENCODING 1635
SWIDTH 510 0
DWIDTH 17 0
BBX 14 19 2 5
BITMAP
4084
40CC
71FC
FFFC
FFF8
7E00
3800
3800
1C00
1C00
0C00
0C00
0E00
0600
0600
0400
0400
0400
0400
ENDCHAR
STARTCHAR 0664
ENCODING 1636
SWIDTH 510 0
DWIDTH 17 0
BBX 7 19 6 5
BITMAP
04
0C
1C
30
20
40
E0
F8
FC
78
18
10
20
40
40
F0
FE
FE
3C
ENDCHAR
STARTCHAR 0665
ENCODING 1637
SWIDTH 510 0
DWIDTH 17 0
BBX 12 12 3 8
BITMAP
0F00
1F80
3FE0
23E0
6070
4030
C010
C010
E060
FFE0
FFC0
3F00
ENDCHAR
STARTCHAR 0666
ENCODING 1638
SWIDTH 510 0
DWIDTH 17 0
BBX 10 19 3 5
BITMAP
8000
C100
FE00
FE00
FE00
7E00
0200
0200
0200
0200
0200
0300
0300
0380
03C0
01C0
01C0
00C0
0040
ENDCHAR
STARTCHAR 0667
ENCODING 1639
SWIDTH 510 0
DWIDTH 17 0
BBX 13 19 2 5
BITMAP
8008
C010
C010
E030
E030
F070
F060
7840
38C0
1880
0C80
0D00
0500
0700
0700
0200
0200
0200
0200
ENDCHAR
STARTCHAR 0668
ENCODING 1640
SWIDTH 510 0
DWIDTH 17 0
BBX 13 19 2 5
BITMAP
0200
0200
0200
0200
0700
0700
0900
0980
0980
09C0
18E0
10F0
3078
7078
E078
E038
C018
8018
8008
ENDCHAR
STARTCHAR 0669
ENCODING 1641
SWIDTH 510 0
DWIDTH 17 0
BBX 10 19 3 5
BITMAP
0E00
3F00
7F80
6380
C180
C180
FF80
FF80
7F80
0180
0180
0180
0180
0180
01C0
01C0
00C0
00C0
0040
ENDCHAR
STARTCHAR 066A
ENCODING 1642
SWIDTH 510 0
DWIDTH 17 0
BBX 13 23 2 3
BITMAP
3018
7830
7830
3060
0060
00C0
00C0
0180
0180
0300
0300
0700
0600
0600
0C00
0C00
1800
1800
3000
3060
60F0
60F0
C060
ENDCHAR
STARTCHAR 066B
ENCODING 1643
SWIDTH 330 0
DWIDTH 11 0
BBX 4 8 3 1
BITMAP
60
F0
F0
70
30
20
40
40
ENDCHAR
STARTCHAR 066C
ENCODING 1644
SWIDTH 330 0
DWIDTH 11 0
BBX 5 10 3 5
BITMAP
10
30
60
40
C0
E0
F8
F8
78
70
ENDCHAR
STARTCHAR 066D
ENCODING 1645
SWIDTH 510 0
DWIDTH 17 0
BBX 11 11 3 13
BITMAP
0E00
6EC0
7DC0
3F80
CE60
FBE0
4E40
3F80
77C0
6EC0
0E00
ENDCHAR
STARTCHAR 066E
ENCODING 1646
SWIDTH 720 0
DWIDTH 24 0
BBX 23 10 1 5
BITMAP
400004
800004
80000E
800006
800002
C00002
F00002
7FFFFE
3FFFFE
0FFFFE
ENDCHAR
STARTCHAR 066F
ENCODING 1647
SWIDTH 570 0
DWIDTH 19 0
BBX 18 17 1 -2
BITMAP
000E00
001F00
001F80
003180
4031C0
403FC0
803FC0
800F40
800040
800040
800040
8000C0
C001C0
F00F80
7FFF00
3FFE00
0FF000
ENDCHAR
STARTCHAR 0670
ENCODING 1648
SWIDTH 0 0
DWIDTH 0 0
BBX 2 8 -1 18
BITMAP
80
80
C0
40
40
40
40
40
ENDCHAR
STARTCHAR 0671
ENCODING 1649
SWIDTH 210 0
DWIDTH 7 0
BBX 7 25 0 4
BITMAP
0E
32
FC
80
00
08
18
18
18
18
18
18
18
18
1C
1C
0C
0C
0C
0C
0C
0C
0C
08
08
ENDCHAR
STARTCHAR 0672
ENCODING 1650
SWIDTH 210 0
DWIDTH 7 0
BBX 5 25 2 4
BITMAP
30
40
38
E0
00
20
60
60
60
60
60
60
60
60
70
70
30
30
30
30
30
30
30
20
20
ENDCHAR
STARTCHAR 0673
ENCODING 1651
SWIDTH 210 0
DWIDTH 7 0
BBX 5 26 2 -2
BITMAP
20
60
60
60
60
60
60
60
60
70
70
30
30
30
30
30
30
30
20
20
00
00
30
40
38
E0
ENDCHAR
STARTCHAR 0674
ENCODING 1652
SWIDTH 210 0
DWIDTH 7 0
BBX 4 5 1 24
BITMAP
30
40
60
30
C0
ENDCHAR
STARTCHAR 0675
ENCODING 1653
SWIDTH 210 0
DWIDTH 7 0
BBX 7 20 2 4
BITMAP
46
C8
CC
C6
D8
C0
C0
C0
C0
E0
E0
60
60
60
60
60
60
60
40
40
ENDCHAR
STARTCHAR 0676
ENCODING 1654
SWIDTH 420 0
DWIDTH 14 0
BBX 14 23 1 -3
BITMAP
000C
0010
0018
000C
0030
0000
0070
00F0
00F8
0198
0188
01C8
01F8
00F8
0078
0008
0018
0030
0070
00E0
C3E0
3FC0
0F00
ENDCHAR
STARTCHAR 0677
ENCODING 1655
SWIDTH 420 0
DWIDTH 14 0
BBX 14 23 1 -3
BITMAP
030C
0510
0518
070C
0330
0400
0870
00F0
00F8
0198
0188
01C8
01F8
00F8
0078
0008
0018
0030
0070
00E0
C3E0
3FC0
0F00
ENDCHAR
STARTCHAR 0678
ENCODING 1656
SWIDTH 630 0
DWIDTH 21 0
BBX 20 24 1 -1
BITMAP
000030
000040
000060
000030
0000C0
000000
000000
000000
0001C0
0007E0
0007E0
000C20
201000
402000
402000
803FC0
803FC0
801FC0
8000C0
C00380
E03F80
FFFF00
7FFC00
1FE000
ENDCHAR
STARTCHAR 0679
ENCODING 1657
SWIDTH 720 0
DWIDTH 24 0
BBX 23 22 1 5
BITMAP
004000
006000
004000
002000
002000
002000
002000
002F80
003080
01FF80
000000
000000
400004
800004
80000E
800006
800002
C00002
F00002
7FFFFE
3FFFFE
0FFFFE
ENDCHAR
STARTCHAR 067A
ENCODING 1658
SWIDTH 720 0
DWIDTH 24 0
BBX 23 21 1 5
BITMAP
002000
003800
007800
001000
001000
003C00
003C00
000800
000000
000000
000000
400004
800004
80000E
800006
800002
C00002
F00002
7FFFFE
3FFFFE
0FFFFE
ENDCHAR
STARTCHAR 067B
ENCODING 1659
SWIDTH 720 0
DWIDTH 24 0
BBX 23 20 1 -5
BITMAP
400004
800004
80000E
800006
800002
C00002
F00002
7FFFFE
3FFFFE
0FFFFE
000000
000000
001000
001C00
003C00
000800
000800
001E00
001E00
000400
ENDCHAR
STARTCHAR 067C
ENCODING 1660
SWIDTH 720 0
DWIDTH 24 0
BBX 23 18 1 2
BITMAP
000400
004F00
00FE00
00E200
002000
400004
800004
80000E
800006
800002
C00002
F00002
7FFFFE
3FFFFE
0FFFFE
004C00
004400
007800
ENDCHAR
STARTCHAR 067D
ENCODING 1661
SWIDTH 720 0
DWIDTH 24 0
BBX 23 21 1 5
BITMAP
000800
008E00
01FE00
01E400
004000
001000
001C00
003C00
000800
000000
000000
400004
800004
80000E
800006
800002
C00002
F00002
7FFFFE
3FFFFE
0FFFFE
ENDCHAR
STARTCHAR 067E
ENCODING 1662
SWIDTH 720 0
DWIDTH 24 0
BBX 23 21 1 -6
BITMAP
400004
800004
80000E
800006
800002
C00002
F00002
7FFFFE
3FFFFE
0FFFFE
000000
000000
000400
004700
007F00
00F200
002000
000800
000E00
001E00
000400
ENDCHAR
STARTCHAR 067F
ENCODING 1663
SWIDTH 720 0
DWIDTH 24 0
BBX 23 20 1 5
BITMAP
000800
009E00
01FC00
01E400
004400
004F00
00FE00
00E200
002000
000000
400004
800004
80000E
800006
800002
C00002
F00002
7FFFFE
3FFFFE
0FFFFE
ENDCHAR
STARTCHAR 0680
ENCODING 1664
SWIDTH 720 0
DWIDTH 24 0
BBX 23 22 1 -7
BITMAP
400004
800004
80000E
800006
800002
C00002
F00002
7FFFFE
3FFFFE
0FFFFE
000000
000000
000000
000800
009E00
01FC00
01E400
004400
004F00
00FE00
00E200
002000
ENDCHAR
STARTCHAR 0681
ENCODING 1665
SWIDTH 570 0
DWIDTH 19 0
BBX 17 30 1 -7
BITMAP
00C000
010000
018000
00C000
030000
000000
000000
000000
000000
1FFF00
7FFF00
FFFF00
83F800
078000
1C0000
300000
200000
400000
800000
800000
800000
800000
800000
C00000
E00000
780000
7F0000
3FFF80
0FFE00
01FC00
ENDCHAR
STARTCHAR 0682
ENCODING 1666
SWIDTH 570 0
DWIDTH 19 0
BBX 17 33 1 -7
BITMAP
020000
038000
078000
010000
010000
03C000
03C000
008000
000000
000000
000000
000000
1FFF00
7FFF00
FFFF00
83F800
078000
1C0000
300000
200000
400000
800000
800000
800000
800000
800000
C00000
E00000
780000
7F0000
3FFF80
0FFE00
01FC00
ENDCHAR
STARTCHAR 0683
ENCODING 1667
SWIDTH 570 0
DWIDTH 19 0
BBX 17 21 1 -7
BITMAP
1FFF00
7FFF00
FFFF00
83F800
078000
1C0000
300000
200000
401000
811C00
83FC00
838800
808000
800000
C00000
E00000
780000
7F0000
3FFF80
0FFE00
01FC00
ENDCHAR
STARTCHAR 0684
ENCODING 1668
SWIDTH 570 0
DWIDTH 19 0
BBX 17 21 1 -7
BITMAP
1FFF00
7FFF00
FFFF00
83F800
078000
1C0000
300000
210000
41C000
83C000
808000
808000
81E000
81E000
C04000
E00000
780000
7F0000
3FFF80
0FFE00
01FC00
ENDCHAR
STARTCHAR 0685
ENCODING 1669
SWIDTH 570 0
DWIDTH 19 0
BBX 17 33 1 -7
BITMAP
020000
078000
070000
014000
00F000
04F000
0F2000
0E0000
020000
000000
000000
000000
1FFF00
7FFF00
FFFF00
83F800
078000
1C0000
300000
200000
400000
800000
800000
800000
800000
800000
C00000
E00000
780000
7F0000
3FFF80
0FFE00
01FC00
ENDCHAR
STARTCHAR 0686
ENCODING 1670
SWIDTH 570 0
DWIDTH 19 0
BBX 17 21 1 -7
BITMAP
1FFF00
7FFF00
FFFF00
83F800
078000
1C0000
300000
201000
411C00
81FC00
83C800
808000
802000
803800
C07800
E01000
780000
7F0000
3FFF80
0FFE00
01FC00
ENDCHAR
STARTCHAR 0687
ENCODING 1671
SWIDTH 570 0
DWIDTH 19 0
BBX 17 21 1 -7
BITMAP
1FFF00
7FFF00
FFFF00
83F800
078000
1C0000
300000
202000
427800
87F000
879000
811000
813C00
83F800
C38800
E08000
780000
7F0000
3FFF80
0FFE00
01FC00
ENDCHAR
STARTCHAR 0688
ENCODING 1672
SWIDTH 330 0
DWIDTH 11 0
BBX 10 24 1 5
BITMAP
2000
3000
2000
1000
1000
1000
1000
17C0
1840
FFC0
0400
0600
0700
0380
0180
0080
00C0
0040
0040
0040
4040
7FC0
7FC0
7FC0
ENDCHAR
STARTCHAR 0689
ENCODING 1673
SWIDTH 330 0
DWIDTH 11 0
BBX 9 17 2 2
BITMAP
0800
0C00
0E00
0700
0300
0100
0180
0080
0080
0080
8080
FF80
FF80
FF80
2600
2200
3C00
ENDCHAR
STARTCHAR 068A
ENCODING 1674
SWIDTH 330 0
DWIDTH 11 0
BBX 9 21 2 -2
BITMAP
0800
0C00
0E00
0700
0300
0100
0180
0080
0080
0080
8080
FF80
FF80
FF80
0000
0000
0000
0800
1E00
1C00
0400
ENDCHAR
STARTCHAR 068B
ENCODING 1675
SWIDTH 330 0
DWIDTH 11 0
BBX 10 31 1 -2
BITMAP
2000
3000
2000
1000
1000
1000
1000
17C0
1840
FFC0
0400
0600
0700
0380
0180
0080
00C0
0040
0040
0040
4040
7FC0
7FC0
7FC0
0000
0000
0000
0400
0F00
0E00
0200
ENDCHAR
STARTCHAR 068C
ENCODING 1676
SWIDTH 330 0
DWIDTH 11 0
BBX 9 21 2 5
BITMAP
0400
4700
FF00
E200
2000
0000
0000
0800
0C00
0E00
0700
0300
0100
0180
0080
0080
0080
8080
FF80
FF80
FF80
ENDCHAR
STARTCHAR 068D
ENCODING 1677
SWIDTH 330 0
DWIDTH 11 0
BBX 9 21 2 -2
BITMAP
0800
0C00
0E00
0700
0300
0100
0180
0080
0080
0080
8080
FF80
FF80
FF80
0000
0000
0200
2380
7F80
7100
1000
ENDCHAR
STARTCHAR 068E
ENCODING 1678
SWIDTH 330 0
DWIDTH 11 0
BBX 9 24 2 5
BITMAP
2000
7800
7000
1400
0F00
4F00
F200
E000
2000
0000
0800
0C00
0E00
0700
0300
0100
0180
0080
0080
0080
8080
FF80
FF80
FF80
ENDCHAR
STARTCHAR 068F
ENCODING 1679
SWIDTH 330 0
DWIDTH 11 0
BBX 10 24 1 5
BITMAP
0400
4700
FF00
F200
2000
0800
0E00
1E00
0400
0000
0400
0600
0700
0380
0180
0080
00C0
0040
0040
0040
4040
7FC0
7FC0
7FC0
ENDCHAR
STARTCHAR 0690
ENCODING 1680
SWIDTH 330 0
DWIDTH 11 0
BBX 10 23 1 5
BITMAP
0400
4F00
FE00
F200
2200
2780
7F00
7100
1000
0400
0600
0700
0380
0180
0080
00C0
0040
0040
0040
4040
7FC0
7FC0
7FC0
ENDCHAR
STARTCHAR 0691
ENCODING 1681
SWIDTH 480 0
DWIDTH 16 0
BBX 15 30 1 -3
BITMAP
0100
0180
0100
0080
0080
0080
0080
00BE
00C2
07FE
0000
0000
0000
0008
000C
000C
000E
0006
0006
0002
0002
0002
0006
0006
000C
001C
0078
C1F0
3FE0
0F80
ENDCHAR
STARTCHAR 0692
ENCODING 1682
SWIDTH 480 0
DWIDTH 16 0
BBX 15 24 1 -3
BITMAP
006C
0028
0028
0010
0000
0000
0000
0008
000C
000C
000E
0006
0006
0002
0002
0002
0006
0006
000C
001C
0078
C1F0
3FE0
0F80
ENDCHAR
STARTCHAR 0693
ENCODING 1683
SWIDTH 480 0
DWIDTH 16 0
BBX 15 18 1 -4
BITMAP
0008
000C
000C
000E
0006
0006
0002
0002
0002
0006
0006
000C
001C
0078
C1FC
3FE6
0FA2
003C
ENDCHAR
STARTCHAR 0694
ENCODING 1684
SWIDTH 480 0
DWIDTH 16 0
BBX 16 19 1 -5
BITMAP
0008
000C
000C
000E
0006
0006
0002
0002
0002
0006
0006
000C
001C
0078
C1F0
3FE4
0F8F
000E
0002
ENDCHAR
STARTCHAR 0695
ENCODING 1685
SWIDTH 480 0
DWIDTH 16 0
BBX 15 20 1 -6
BITMAP
0008
000C
000C
000E
0006
0006
0002
0002
0002
0006
0006
000C
001C
0078
C1F0
3FE0
0FB6
0014
0014
0008
ENDCHAR
STARTCHAR 0696
ENCODING 1686
SWIDTH 480 0
DWIDTH 16 0
BBX 16 19 1 -5
BITMAP
0008
000C
000C
000E
0006
0006
0002
0402
0F02
0E06
0206
000C
001C
0078
C1F0
3FE4
0F8F
000E
0002
ENDCHAR
STARTCHAR 0697
ENCODING 1687
SWIDTH 480 0
DWIDTH 16 0
BBX 15 25 1 -3
BITMAP
0010
011C
03FC
0388
0080
0000
0000
0000
0008
000C
000C
000E
0006
0006
0002
0002
0002
0006
0006
000C
001C
0078
C1F0
3FE0
0F80
ENDCHAR
STARTCHAR 0698
ENCODING 1688
SWIDTH 480 0
DWIDTH 16 0
BBX 15 28 1 -3
BITMAP
0040
00F0
00E0
0020
0008
009E
01FE
01C4
0040
0000
0000
0008
000C
000C
000E
0006
0006
0002
0002
0002
0006
0006
000C
001C
0078
C1F0
3FE0
0F80
ENDCHAR
STARTCHAR 0699
ENCODING 1689
SWIDTH 480 0
DWIDTH 16 0
BBX 15 28 1 -3
BITMAP
0020
0278
07F0
0790
0110
013C
03F8
0388
0080
0000
0000
0008
000C
000C
000E
0006
0006
0002
0002
0002
0006
0006
000C
001C
0078
C1F0
3FE0
0F80
ENDCHAR
STARTCHAR 069A
ENCODING 1690
SWIDTH 810 0
DWIDTH 27 0
BBX 26 21 1 -2
BITMAP
00000800
00001E00
00001C00
00000400
00000000
00020080
00020480
000704C0
20070440
40030440
40030640
8001FFC0
8001FFC0
8001F9C0
80010000
80030000
C0060000
E03E0400
7FFC0F00
7FF80E00
1FE00200
ENDCHAR
STARTCHAR 069B
ENCODING 1691
SWIDTH 810 0
DWIDTH 27 0
BBX 26 20 1 -6
BITMAP
00020080
00020480
000704C0
20070440
40030440
40030640
8001FFC0
8001FFC0
8001F9C0
80010000
80030000
C0060100
E03E11C0
7FFC3FC0
7FF83C80
1FE00800
00000200
00000380
00000780
00000100
ENDCHAR
STARTCHAR 069C
ENCODING 1692
SWIDTH 810 0
DWIDTH 27 0
BBX 26 31 1 -6
BITMAP
00002000
00007800
00007000
00001400
00000F00
00004F00
0000F200
0000E000
00002000
00000000
00000000
00020080
00020480
000704C0
20070440
40030440
40030640
8001FFC0
8001FFC0
8001F9C0
80010000
80030000
C0060100
E03E11C0
7FFC3FC0
7FF83C80
1FE00800
00000200
00000380
00000780
00000100
ENDCHAR
STARTCHAR 069D
ENCODING 1693
SWIDTH 1080 0
DWIDTH 36 0
BBX 35 16 1 -2
BITMAP
0002000F80
0002003FC0
000700FFE0
200701E0E0
4003038060
40031E00E0
8001FFFFE0
8001FFFFE0
8001FFFFE0
8001000000
8003000000
C006002000
E03E023800
7FFC07F800
7FF8071000
1FE0010000
ENDCHAR
STARTCHAR 069E
ENCODING 1694
SWIDTH 1080 0
DWIDTH 36 0
BBX 35 27 1 -2
BITMAP
0000010000
000003C000
0000038000
000000A000
0000007800
0000027800
0000079000
0000070000
0000010000
0000000000
0000000000
0002000F80
0002003FC0
000700FFE0
200701E0E0
4003038060
40031E00E0
8001FFFFE0
8001FFFFE0
8001FFFFE0
8001000000
8003000000
C006000000
E03E000000
7FFC000000
7FF8000000
1FE0000000
ENDCHAR
STARTCHAR 069F
ENCODING 1695
SWIDTH 570 0
DWIDTH 19 0
BBX 20 21 -1 5
BITMAP
020000
020200
038780
038700
018140
0100F0
0104F0
018F20
008E00
008200
008000
008000
0083C0
009FE0
00BFF0
00F070
01C030
070070
FFFFF0
FFFFF0
FFFFF0
ENDCHAR
STARTCHAR 06A0
ENCODING 1696
SWIDTH 540 0
DWIDTH 18 0
BBX 16 36 1 -7
BITMAP
2000
7800
7000
1400
0F00
4F00
F200
E000
2000
1E00
3F00
7F80
7000
C000
8000
8018
C078
F1F0
7FE0
7F80
3E00
1800
3000
6000
4000
8000
8000
8000
8000
8000
C000
E000
7C00
3FFF
1FFC
03F8
ENDCHAR
STARTCHAR 06A1
ENCODING 1697
SWIDTH 780 0
DWIDTH 26 0
BBX 25 10 1 5
BITMAP
40000E00
80001F00
80001F80
80003180
80003980
C0003F80
F0000F80
7FFFFF80
3FFFFF80
07FFFF80
ENDCHAR
STARTCHAR 06A2
ENCODING 1698
SWIDTH 780 0
DWIDTH 26 0
BBX 25 17 1 -2
BITMAP
40000E00
80001F00
80001F80
80003180
80003980
C0003F80
F0000F80
7FFFFF80
3FFFFF80
07FFFF80
00000000
00000000
00000000
00000400
00000F00
00000E00
00000200
ENDCHAR
STARTCHAR 06A3
ENCODING 1699
SWIDTH 780 0
DWIDTH 26 0
BBX 25 23 1 -2
BITMAP
00000400
00000F00
00000E00
00000200
00000000
00000000
40000E00
80001F00
80001F80
80003180
80003980
C0003F80
F0000F80
7FFFFF80
3FFFFF80
07FFFF80
00000000
00000000
00000000
00080000
001E0000
001C0000
00040000
ENDCHAR
STARTCHAR 06A4
ENCODING 1700
SWIDTH 780 0
DWIDTH 26 0
BBX 25 21 1 5
BITMAP
00001000
00003C00
00003800
00000A00
00000780
00002780
00007900
00007000
00001000
00000000
00000000
40000E00
80001F00
80001F80
80003180
80003980
C0003F80
F0000F80
7FFFFF80
3FFFFF80
07FFFF80
ENDCHAR
STARTCHAR 06A5
ENCODING 1701
SWIDTH 780 0
DWIDTH 26 0
BBX 26 21 1 -6
BITMAP
40000E00
80001F00
80001F80
80003180
80003980
C0003F80
F0000F80
7FFFFF80
3FFFFF80
07FFFF80
00000000
00000000
00000100
000011C0
00003FC0
00003C80
00000800
00000200
00000380
00000780
00000100
ENDCHAR
STARTCHAR 06A6
ENCODING 1702
SWIDTH 780 0
DWIDTH 26 0
BBX 26 21 1 5
BITMAP
00000200
00002780
00007F00
00007900
00001100
000013C0
00003F80
00003880
00000800
00000000
00000000
40000E00
80001F00
80001F80
80003180
80003980
C0003F80
F0000F80
7FFFFF80
3FFFFF80
07FFFF80
ENDCHAR
STARTCHAR 06A7
ENCODING 1703
SWIDTH 570 0
DWIDTH 19 0
BBX 18 23 1 -2
BITMAP
001000
003C00
003800
000800
000000
000000
000E00
001F00
001F80
003180
4031C0
403FC0
803FC0
800F40
800040
800040
800040
8000C0
C001C0
F00F80
7FFF00
3FFE00
0FF000
ENDCHAR
STARTCHAR 06A8
ENCODING 1704
SWIDTH 570 0
DWIDTH 19 0
BBX 18 27 1 -2
BITMAP
002000
007800
007000
001400
000F00
004F00
00F200
00E000
002000
000000
000E00
001F00
001F80
003180
4031C0
403FC0
803FC0
800F40
800040
800040
800040
8000C0
C001C0
F00F80
7FFF00
3FFE00
0FF000
ENDCHAR
STARTCHAR 06A9
ENCODING 1705
SWIDTH 810 0
DWIDTH 27 0
BBX 27 19 0 5
BITMAP
00000080
00000780
00001F80
00007E00
0000F000
0000C000
00018000
0001C000
0001F000
0000F800
40007C00
80000E00
80000300
80000180
800000C0
E0000060
FFFFFFE0
7FFFFFE0
1FFFFFE0
ENDCHAR
STARTCHAR 06AA
ENCODING 1706
SWIDTH 810 0
DWIDTH 27 0
BBX 27 17 0 5
BITMAP
00040000
001C0000
007C0000
01F80000
03C00000
06000000
0C000000
0E000000
0FF00000
07FFC000
03FFFE00
800FFF80
80000FC0
E00000E0
FFFFFFE0
7FFFFFE0
1FFFFFE0
ENDCHAR
STARTCHAR 06AB
ENCODING 1707
SWIDTH 810 0
DWIDTH 27 0
BBX 27 19 0 5
BITMAP
00000080
00000780
00001F80
00007F00
0000F980
0000C880
00018F00
0001C000
0001F000
0000F800
40007C00
80000E00
80000300
80000180
800000C0
E0000060
FFFFFFE0
7FFFFFE0
1FFFFFE0
ENDCHAR
STARTCHAR 06AC
ENCODING 1708
SWIDTH 600 0
DWIDTH 20 0
BBX 19 21 1 5
BITMAP
008200
01E380
01C3C0
0043C0
0001C0
001180
007180
00C180
0080C0
01F8C0
01F8C0
0018C0
4018C0
8070C0
87E040
800060
800060
E00060
FFFFE0
7FFFE0
1FFFE0
ENDCHAR
STARTCHAR 06AD
ENCODING 1709
SWIDTH 600 0
DWIDTH 20 0
BBX 19 24 1 5
BITMAP
020000
078000
070000
014200
00F380
04F3C0
0F23C0
0E01C0
020180
001180
007180
00C0C0
0080C0
01F8C0
01F8C0
4018C0
8018C0
807040
87E060
800060
E00060
FFFFE0
7FFFE0
1FFFE0
ENDCHAR
STARTCHAR 06AE
ENCODING 1710
SWIDTH 600 0
DWIDTH 20 0
BBX 19 32 1 -6
BITMAP
000200
000380
0003C0
0003C0
0001C0
001180
007180
00C180
0080C0
01F8C0
01F8C0
0018C0
4018C0
8070C0
87E040
800060
800060
E00060
FFFFE0
7FFFE0
1FFFE0
000000
000000
001000
011C00
03FC00
03C800
008000
002000
003800
007800
001000
ENDCHAR
STARTCHAR 06AF
ENCODING 1711
SWIDTH 810 0
DWIDTH 27 0
BBX 27 24 0 5
BITMAP
00000080
00000380
00000780
00001F00
00003C00
0000F080
0001C780
00011F80
00007E00
0000F000
0000C000
00018000
0001C000
0001F000
0000F800
40007C00
80000E00
80000300
80000180
800000C0
E0000060
FFFFFFE0
7FFFFFE0
1FFFFFE0
ENDCHAR
STARTCHAR 06B0
ENCODING 1712
SWIDTH 810 0
DWIDTH 27 0
BBX 27 24 0 5
BITMAP
00000080
00000380
00000780
00001F00
00003C00
0000F080
0001C780
00011F80
00007F00
0000F980
0000C880
00018F00
0001C000
0001F000
0000F800
40007C00
80000E00
80000300
80000180
800000C0
E0000060
FFFFFFE0
7FFFFFE0
1FFFFFE0
ENDCHAR
STARTCHAR 06B1
ENCODING 1713
SWIDTH 810 0
DWIDTH 27 0
BBX 27 24 0 5
BITMAP
00001880
0000F380
00018780
00001F00
00003C00
0000F080
0001C780
00011F80
00007E00
0000F000
0000C000
00018000
0001C000
0001F000
0000F800
40007C00
80000E00
80000300
80000180
800000C0
E0000060
FFFFFFE0
7FFFFFE0
1FFFFFE0
ENDCHAR
STARTCHAR 06B2
ENCODING 1714
SWIDTH 810 0
DWIDTH 27 0
BBX 27 31 0 -2
BITMAP
00000080
00000380
00000780
00001F00
00003C00
0000F080
0001C780
00011F80
00007E00
0000F000
0000C000
00018000
0001C000
0001F000
0000F800
40007C00
80000E00
80000300
80000180
800000C0
E0000060
FFFFFFE0
7FFFFFE0
1FFFFFE0
00000000
00000000
00010000
0011C000
003FC000
00388000
00080000
ENDCHAR
STARTCHAR 06B3
ENCODING 1715
SWIDTH 810 0
DWIDTH 27 0
BBX 27 34 0 -5
BITMAP
00000080
00000380
00000780
00001F00
00003C00
0000F080
0001C780
00011F80
00007E00
0000F000
0000C000
00018000
0001C000
0001F000
0000F800
40007C00
80000E00
80000300
80000180
800000C0
E0000060
FFFFFFE0
7FFFFFE0
1FFFFFE0
00000000
00000000
00040000
00070000
000F0000
00020000
00020000
00078000
00078000
00010000
ENDCHAR
STARTCHAR 06B4
ENCODING 1716
SWIDTH 810 0
DWIDTH 27 0
BBX 27 24 0 5
BITMAP
00018000
00033180
00006780
00030F80
00063E00
00007880
0000E780
00019F80
00007E00
0000F000
0000C000
00018000
0001C000
0001F000
0000F800
40007C00
80000E00
80000300
80000180
800000C0
E0000060
FFFFFFE0
7FFFFFE0
1FFFFFE0
ENDCHAR
STARTCHAR 06B5
ENCODING 1717
SWIDTH 510 0
DWIDTH 17 0
BBX 16 30 1 -1
BITMAP
006C
0028
0028
0010
0000
001C
001E
001E
000E
000C
0004
0004
0006
0006
0006
0002
1002
2002
4003
4003
8001
8001
8001
8001
8001
C007
F01E
7FFE
3FFC
1FF0
ENDCHAR
STARTCHAR 06B6
ENCODING 1718
SWIDTH 510 0
DWIDTH 17 0
BBX 16 30 1 -1
BITMAP
0008
001E
001C
0004
0000
001C
001E
001E
000E
000C
0004
0004
0006
0006
0006
0002
1002
2002
4003
4003
8001
8001
8001
8001
8001
C007
F01E
7FFE
3FFC
1FF0
ENDCHAR
STARTCHAR 06B7
ENCODING 1719
SWIDTH 510 0
DWIDTH 17 0
BBX 16 30 1 -1
BITMAP
0030
0066
000C
0060
00C0
001C
001E
001E
000E
000C
0004
0004
0006
0006
0006
0002
1002
2002
4003
4003
8001
8001
8001
8001
8001
C007
F01E
7FFE
3FFC
1FF0
ENDCHAR
STARTCHAR 06B8
ENCODING 1720
SWIDTH 510 0
DWIDTH 17 0
BBX 16 33 1 -7
BITMAP
0010
001C
001E
001E
000E
000C
0004
0004
0006
0006
0006
0002
1002
2002
4003
4003
8001
8001
8001
8001
8001
C007
F01E
7FFE
3FFC
1FF0
0000
0030
0378
07B0
0360
00F0
0060
ENDCHAR
STARTCHAR 06B9
ENCODING 1721
SWIDTH 510 0
DWIDTH 17 0
BBX 16 26 1 -7
BITMAP
0100
03C0
0380
0080
0000
0002
0002
0007
2007
4003
4001
8001
8001
8001
8001
8003
C007
E03E
7FFE
7FFC
1FE0
0000
0100
03C0
0380
0080
ENDCHAR
STARTCHAR 06BA
ENCODING 1722
SWIDTH 510 0
DWIDTH 17 0
BBX 16 16 1 -2
BITMAP
0002
0002
0007
3007
2003
4001
4001
8001
8001
8001
8003
C007
E03E
7FFE
7FFC
1FE0
ENDCHAR
STARTCHAR 06BB
ENCODING 1723
SWIDTH 510 0
DWIDTH 17 0
BBX 16 28 1 -2
BITMAP
0400
0600
0400
0200
0200
0200
0200
02F8
0308
1FF8
0000
0000
0002
0002
0007
3007
2003
4001
4001
8001
8001
8001
8003
C007
E03E
7FFE
7FFC
1FE0
ENDCHAR
STARTCHAR 06BC
ENCODING 1724
SWIDTH 510 0
DWIDTH 17 0
BBX 16 24 1 -5
BITMAP
0100
03C0
0380
0080
0000
0002
0002
0007
2007
4003
4001
8001
8001
8001
8001
8003
C007
E03E
7FFE
7FFC
1FE0
0260
0220
03C0
ENDCHAR
STARTCHAR 06BD
ENCODING 1725
SWIDTH 510 0
DWIDTH 17 0
BBX 16 27 1 -2
BITMAP
0200
0780
0700
0140
00F0
04F0
0F20
0E00
0200
0000
0000
0002
0002
0007
3007
2003
4001
4001
8001
8001
8001
8003
C007
E03E
7FFE
7FFC
1FE0
ENDCHAR
STARTCHAR 06BE
ENCODING 1726
SWIDTH 450 0
DWIDTH 15 0
BBX 14 14 -1 5
BITMAP
0200
0300
0780
03C0
07E0
07E0
0CF0
08F8
1DD8
1F9C
0F8C
FFFC
FCFC
F038
ENDCHAR
STARTCHAR 06BF
ENCODING 1727
SWIDTH 570 0
DWIDTH 19 0
BBX 17 28 1 -7
BITMAP
010000
03C000
038000
008000
000000
000000
000000
1FFF00
7FFF00
FFFF00
83F800
078000
1C0000
300000
201000
411C00
81FC00
83C800
808000
802000
803800
C07800
E01000
780000
7F0000
3FFF80
0FFE00
01FC00
ENDCHAR
STARTCHAR 06C0
ENCODING 1728
SWIDTH 270 0
DWIDTH 9 0
BBX 7 17 1 5
BITMAP
0C
10
18
0C
30
00
20
38
3C
3C
4E
46
C6
CE
FE
FC
78
ENDCHAR
STARTCHAR 06C1
ENCODING 1729
SWIDTH 390 0
DWIDTH 13 0
BBX 13 8 0 3
BITMAP
0700
0F80
1FE0
39F8
30F8
6038
C000
8000
ENDCHAR
STARTCHAR 06C2
ENCODING 1730
SWIDTH 390 0
DWIDTH 13 0
BBX 13 15 0 3
BITMAP
0300
0400
0600
0300
0C00
0000
0000
0700
0F80
1FE0
39F8
30F8
6038
C000
8000
ENDCHAR
STARTCHAR 06C3
ENCODING 1731
SWIDTH 390 0
DWIDTH 13 0
BBX 13 16 0 3
BITMAP
0100
11C0
3FC0
3880
0800
0000
0000
0000
0700
0F80
1FE0
39F8
30F8
6038
C000
8000
ENDCHAR
STARTCHAR 06C4
ENCODING 1732
SWIDTH 420 0
DWIDTH 14 0
BBX 13 17 1 -3
BITMAP
0070
00F0
00F8
0198
0188
01C8
01F8
00F8
0078
0008
0018
03B0
04F0
04E0
C7E0
3FC0
0F00
ENDCHAR
STARTCHAR 06C5
ENCODING 1733
SWIDTH 420 0
DWIDTH 14 0
BBX 13 17 1 -3
BITMAP
0070
00F0
00F8
0198
0188
01C8
01F8
00F8
0078
0F18
01F8
0030
0070
00E0
C3E0
3FC0
0F00
ENDCHAR
STARTCHAR 06C6
ENCODING 1734
SWIDTH 420 0
DWIDTH 14 0
BBX 13 23 1 -3
BITMAP
00D8
0050
0050
0020
0000
0000
0070
00F0
00F8
0198
0188
01C8
01F8
00F8
0078
0008
0018
0030
0070
00E0
C3E0
3FC0
0F00
ENDCHAR
STARTCHAR 06C7
ENCODING 1735
SWIDTH 420 0
DWIDTH 14 0
BBX 13 25 1 -3
BITMAP
0030
0050
0050
0070
0030
0040
0080
0000
0070
00F0
00F8
0198
0188
01C8
01F8
00F8
0078
0008
0018
0030
0070
00E0
C3E0
3FC0
0F00
ENDCHAR
STARTCHAR 06C8
ENCODING 1736
SWIDTH 420 0
DWIDTH 14 0
BBX 13 27 1 -3
BITMAP
0040
0040
0060
0020
0020
0020
0020
0020
0000
0000
0070
00F0
00F8
0198
0188
01C8
01F8
00F8
0078
0008
0018
0030
0070
00E0
C3E0
3FC0
0F00
ENDCHAR
STARTCHAR 06C9
ENCODING 1737
SWIDTH 420 0
DWIDTH 14 0
BBX 13 23 1 -3
BITMAP
0020
0050
0050
00D8
0000
0000
0070
00F0
00F8
0198
0188
01C8
01F8
00F8
0078
0008
0018
0030
0070
00E0
C3E0
3FC0
0F00
ENDCHAR
STARTCHAR 06CA
ENCODING 1738
SWIDTH 420 0
DWIDTH 14 0
BBX 13 24 1 -3
BITMAP
0020
0238
07F8
0710
0100
0000
0000
0070
00F0
00F8
0198
0188
01C8
01F8
00F8
0078
0008
0018
0030
0070
00E0
C3E0
3FC0
0F00
ENDCHAR
STARTCHAR 06CB
ENCODING 1739
SWIDTH 420 0
DWIDTH 14 0
BBX 13 27 1 -3
BITMAP
0100
03C0
0380
00A0
0078
0278
0790
0700
0100
0000
0070
00F0
00F8
0198
0188
01C8
01F8
00F8
0078
0008
0018
0030
0070
00E0
C3E0
3FC0
0F00
ENDCHAR
STARTCHAR 06CC
ENCODING 1740
SWIDTH 630 0
DWIDTH 21 0
BBX 19 16 1 -1
BITMAP
0001C0
0007E0
0007E0
000C20
201000
402000
402000
803FC0
803FC0
801FC0
8000C0
C00380
E03F80
FFFF00
7FFC00
1FE000
ENDCHAR
STARTCHAR 06CD
ENCODING 1741
SWIDTH 630 0
DWIDTH 21 0
BBX 21 16 -1 -1
BITMAP
000070
0001F8
0001F8
000318
180400
680800
900800
100FF0
200FF0
2007F0
200030
3000E0
380FE0
3FFFC0
1FFF00
07F800
ENDCHAR
STARTCHAR 06CE
ENCODING 1742
SWIDTH 630 0
DWIDTH 21 0
BBX 19 19 1 -1
BITMAP
0D8000
050000
050000
0201C0
0007E0
0007E0
000C20
201000
402000
402000
803FC0
803FC0
801FC0
8000C0
C00380
E03F80
FFFF00
7FFC00
1FE000
ENDCHAR
STARTCHAR 06CF
ENCODING 1743
SWIDTH 420 0
DWIDTH 14 0
BBX 13 23 1 -3
BITMAP
0080
01E0
01C0
0040
0000
0000
0070
00F0
00F8
0198
0188
01C8
01F8
00F8
0078
0008
0018
0030
0070
00E0
C3E0
3FC0
0F00
ENDCHAR
STARTCHAR 06D0
ENCODING 1744
SWIDTH 630 0
DWIDTH 21 0
BBX 19 21 1 -6
BITMAP
0001C0
0007E0
0007E0
000C20
201000
402000
402000
803FC0
803FC0
801FC0
8000C0
C00380
E03F80
FFFF00
7FFC00
1FE000
000000
000000
018000
000000
018000
ENDCHAR
STARTCHAR 06D1
ENCODING 1745
SWIDTH 630 0
DWIDTH 21 0
BBX 19 21 1 -6
BITMAP
0001C0
0007E0
0007E0
000C20
201000
402000
402000
803FC0
803FC0
801FC0
8000C0
C00380
E03F80
FFFF00
7FFC00
1FE000
000000
000000
006000
030000
00C000
ENDCHAR
STARTCHAR 06D2
ENCODING 1746
SWIDTH 810 0
DWIDTH 27 0
BBX 26 13 1 -1
BITMAP
00180000
00380000
007C0000
01C40000
03840000
0F800000
3F000000
7C000000
70000000
C0000000
FFFFFFC0
FFFFFF00
FFFFFE00
ENDCHAR
STARTCHAR 06D3
ENCODING 1747
SWIDTH 810 0
DWIDTH 27 0
BBX 26 17 1 -1
BITMAP
01800000
02000000
03000000
01800000
06180000
00380000
007C0000
01C40000
03840000
0F800000
3F000000
7C000000
70000000
C0000000
FFFFFFC0
FFFFFF00
FFFFFE00
ENDCHAR
STARTCHAR 06D4
ENCODING 1748
SWIDTH 210 0
DWIDTH 7 0
BBX 5 3 1 5
BITMAP
F8
F8
F8
ENDCHAR
STARTCHAR 06D5
ENCODING 1749
SWIDTH 270 0
DWIDTH 9 0
BBX 7 11 1 5
BITMAP
20
38
3C
3C
4E
46
C6
CE
FE
FC
78
ENDCHAR
STARTCHAR 06D6
ENCODING 1750
SWIDTH 0 0
DWIDTH 0 0
BBX 16 12 -8 17
BITMAP
1000
1C00
0C00
0800
0800
0507
0519
1FFF
6000
8000
8000
FFF8
ENDCHAR
STARTCHAR 06D7
ENCODING 1751
SWIDTH 0 0
DWIDTH 0 0
BBX 13 12 -6 17
BITMAP
1060
1DE0
0D80
08C0
08A0
04E0
0420
1FE0
6000
4000
8000
FFF8
ENDCHAR
STARTCHAR 06D8
ENCODING 1752
SWIDTH 0 0
DWIDTH 0 0
BBX 7 4 -3 17
BITMAP
0C
12
32
EE
ENDCHAR
STARTCHAR 06D9
ENCODING 1753
SWIDTH 0 0
DWIDTH 0 0
BBX 7 10 -4 17
BITMAP
8C
C6
44
24
24
18
08
18
28
78
ENDCHAR
STARTCHAR 06DA
ENCODING 1754
SWIDTH 0 0
DWIDTH 0 0
BBX 7 9 -4 17
BITMAP
FE
30
40
80
98
98
80
40
3C
ENDCHAR
STARTCHAR 06DB
ENCODING 1755
SWIDTH 0 0
DWIDTH 0 0
BBX 4 4 -2 17
BITMAP
C0
B0
90
C0
ENDCHAR
STARTCHAR 06DC
ENCODING 1756
SWIDTH 0 0
DWIDTH 0 0
BBX 12 7 -6 17
BITMAP
0410
0650
4250
83F0
8200
8400
7800
ENDCHAR
STARTCHAR 06DD
ENCODING 1757
SWIDTH 1110 0
DWIDTH 37 0
BBX 35 35 1 -6
BITMAP
0003F80000
001FFF0000
01FC07F000
026000C800
027FFFC800
027FFFC800
0780003C00
0C00000600
1800000300
3800000380
3000000180
60000000C0
60000000C0
60000000C0
C000000060
C000000060
C000000060
C000000060
C000000060
C000000060
C000000060
60000000C0
60000000C0
60000000C0
3000000180
3000000380
1800000300
0C00000600
0780003C00
027FFFC800
027FFFC800
026000C800
01FC07F000
001FFF0000
0007F80000
ENDCHAR
STARTCHAR 06DE
ENCODING 1758
SWIDTH 1080 0
DWIDTH 36 0
BBX 33 33 2 -4
BITMAP
0000800000
0001C00000
0003600000
0006300000
000C180000
07FFFFF000
0430061000
0460031000
04C0019000
058000D000
0700007000
0600003000
0C00001800
1C01C01C00
3402201600
6404101300
C404101180
6404101300
3402201600
1C01C01C00
0C00001800
0600003000
0700007000
058000D000
04C0019000
0460031000
0430061000
07FFFFF000
000C180000
0006300000
0003600000
0001C00000
0000800000
ENDCHAR
STARTCHAR 06DF
ENCODING 1759
SWIDTH 0 0
DWIDTH 0 0
BBX 2 2 -1 17
BITMAP
C0
C0
ENDCHAR
STARTCHAR 06E0
ENCODING 1760
SWIDTH 0 0
DWIDTH 0 0
BBX 2 2 -1 17
BITMAP
C0
C0
ENDCHAR
STARTCHAR 06E1
ENCODING 1761
SWIDTH 0 0
DWIDTH 0 0
BBX 9 4 -4 17
BITMAP
3800
0C00
0200
FF80
ENDCHAR
STARTCHAR 06E2
ENCODING 1762
SWIDTH 0 0
DWIDTH 0 0
BBX 5 9 -3 17
BITMAP
30
48
78
80
80
80
40
40
40
ENDCHAR
STARTCHAR 06E3
ENCODING 1763
SWIDTH 0 0
DWIDTH 0 0
BBX 12 7 -6 -7
BITMAP
0410
0650
4250
83F0
8200
8400
7800
ENDCHAR
STARTCHAR 06E4
ENCODING 1764
SWIDTH 0 0
DWIDTH 0 0
BBX 3 1 -2 17
BITMAP
E0
ENDCHAR
STARTCHAR 06E5
ENCODING 1765
SWIDTH 180 0
DWIDTH 6 0
BBX 5 6 1 17
BITMAP
18
28
38
08
10
E0
ENDCHAR
STARTCHAR 06E6
ENCODING 1766
SWIDTH 360 0
DWIDTH 12 0
BBX 11 6 0 17
BITMAP
0400
0A00
1000
6000
8000
FFE0
ENDCHAR
STARTCHAR 06E7
ENCODING 1767
SWIDTH 0 0
DWIDTH 0 0
BBX 11 6 -6 17
BITMAP
0400
0A00
1000
6000
8000
FFE0
ENDCHAR
STARTCHAR 06E8
ENCODING 1768
SWIDTH 0 0
DWIDTH 0 0
BBX 8 9 -4 17
BITMAP
18
18
02
43
81
81
81
C2
7C
ENDCHAR
STARTCHAR 06E9
ENCODING 1769
SWIDTH 600 0
DWIDTH 20 0
BBX 19 27 0 0
BITMAP
004000
00A000
011000
024800
04A400
095200
12A900
271C80
4C0640
920920
491240
251480
351580
151500
151500
151500
151500
151500
151500
151500
151500
151500
15F500
340580
27FC80
400040
FFFFE0
ENDCHAR
STARTCHAR 06EA
ENCODING 1770
SWIDTH 0 0
DWIDTH 0 0
BBX 5 5 -3 -6
BITMAP
20
50
88
50
20
ENDCHAR
STARTCHAR 06EB
ENCODING 1771
SWIDTH 0 0
DWIDTH 0 0
BBX 5 5 -3 17
BITMAP
20
50
88
50
20
ENDCHAR
STARTCHAR 06EC
ENCODING 1772
SWIDTH 0 0
DWIDTH 0 0
BBX 2 2 -1 17
BITMAP
C0
C0
ENDCHAR
STARTCHAR 06ED
ENCODING 1773
SWIDTH 0 0
DWIDTH 0 0
BBX 5 9 -3 -7
BITMAP
30
48
78
80
80
80
40
40
40
ENDCHAR
STARTCHAR 06F0
ENCODING 1776
SWIDTH 510 0
DWIDTH 17 0
BBX 5 8 6 7
BITMAP
40
60
70
F8
F8
F0
30
10
ENDCHAR
STARTCHAR 06F1
ENCODING 1777
SWIDTH 510 0
DWIDTH 17 0
BBX 7 19 5 5
BITMAP
40
60
F0
F0
78
38
3C
1C
1C
0E
0E
06
06
06
06
04
04
04
04
ENDCHAR
STARTCHAR 06F2
ENCODING 1778
SWIDTH 510 0
DWIDTH 17 0
BBX 11 19 3 5
BITMAP
4020
6020
E060
F860
7FE0
3FC0
1F80
1C00
0E00
0E00
0600
0700
0700
0300
0300
0300
0300
0100
0100
ENDCHAR
STARTCHAR 06F3
ENCODING 1779
SWIDTH 510 0
DWIDTH 17 0
BBX 14 19 2 5
BITMAP
4084
40CC
71FC
FFFC
FFF8
7E00
3800
3800
1C00
1C00
0C00
0C00
0E00
0600
0600
0400
0400
0400
0400
ENDCHAR
STARTCHAR 06F4
ENCODING 1780
SWIDTH 510 0
DWIDTH 17 0
BBX 12 19 3 5
BITMAP
4180
43C0
6700
E600
F410
7C30
7FE0
3FE0
3F80
1800
1C00
1C00
1C00
0C00
0C00
0C00
0800
0800
0800
ENDCHAR
STARTCHAR 06F5
ENCODING 1781
SWIDTH 510 0
DWIDTH 17 0
BBX 12 19 2 5
BITMAP
0400
0600
0700
0700
0780
07C0
09C0
10E0
1060
2070
2030
4010
4010
C010
E3F0
FFE0
FFE0
FFC0
7800
ENDCHAR
STARTCHAR 06F6
ENCODING 1782
SWIDTH 510 0
DWIDTH 17 0
BBX 11 19 4 5
BITMAP
0700
1F80
2040
4000
4020
E0E0
FFC0
FF80
7F00
0E00
0C00
1800
1800
1000
3000
3000
2000
2000
2000
ENDCHAR
STARTCHAR 06F7
ENCODING 1783
SWIDTH 510 0
DWIDTH 17 0
BBX 13 19 2 5
BITMAP
8008
C010
C010
E030
E030
F070
F060
7840
38C0
1880
0C80
0D00
0500
0700
0700
0200
0200
0200
0200
ENDCHAR
STARTCHAR 06F8
ENCODING 1784
SWIDTH 510 0
DWIDTH 17 0
BBX 13 19 2 5
BITMAP
0200
0200
0200
0200
0700
0700
0900
0980
0980
09C0
18E0
10F0
3078
7078
E078
E038
C018
8018
8008
ENDCHAR
STARTCHAR 06F9
ENCODING 1785
SWIDTH 510 0
DWIDTH 17 0
BBX 10 19 3 5
BITMAP
0E00
3F00
7F80
6380
C180
C180
FF80
FF80
7F80
0180
0180
0180
0180
0180
01C0
01C0
00C0
00C0
0040
ENDCHAR
STARTCHAR 06FA
ENCODING 1786
SWIDTH 810 0
DWIDTH 27 0
BBX 26 27 1 -2
BITMAP
00002000
00007800
00007000
00001400
00000F00
00004F00
0000F200
0000E000
00002000
00000000
00000000
00020080
00020480
000704C0
20070440
40030440
40030640
8001FFC0
8001FFC0
8001F9C0
80010000
80030000
C0060000
E03E0400
7FFC0F00
7FF80E00
1FE00200
ENDCHAR
STARTCHAR 06FB
ENCODING 1787
SWIDTH 1080 0
DWIDTH 36 0
BBX 35 22 1 -2
BITMAP
0000020000
0000078000
0000078000
0000010000
0000000000
0000000000
0002000F80
0002003FC0
000700FFE0
200701E0E0
4003038060
40031E00E0
8001FFFFE0
8001FFFFE0
8001FFFFE0
8001000000
8003000000
C006000000
E03E004000
7FFC00F000
7FF800E000
1FE0002000
ENDCHAR
STARTCHAR 06FC
ENCODING 1788
SWIDTH 540 0
DWIDTH 18 0
BBX 16 34 1 -7
BITMAP
0800
0E00
1C00
0400
0000
0000
0000
1E00
3F00
7F80
7000
C000
8000
8018
C078
F1F0
7FE0
7F80
3E00
1800
3000
6000
4000
8080
81E0
81C0
8040
8000
C000
E000
7C00
3FFF
1FFC
03F8
ENDCHAR
STARTCHAR 06FD
ENCODING 1789
SWIDTH 420 0
DWIDTH 14 0
BBX 11 21 2 -6
BITMAP
0E00
1F00
3F00
6200
4000
C060
F3E0
FFC0
7F80
3C00
3800
2000
0000
0000
1B00
1B00
1B00
1B00
1B00
1B00
1B00
ENDCHAR
STARTCHAR 06FE
ENCODING 1790
SWIDTH 330 0
DWIDTH 11 0
BBX 10 20 1 -7
BITMAP
0600
0F00
1F80
1180
00C0
07C0
3FC0
7FC0
F000
C000
C000
C6C0
C6C0
46C0
66C0
66C0
66C0
26C0
2000
2000
ENDCHAR
STARTCHAR 1E80
ENCODING 7808
SWIDTH 930 0
DWIDTH 31 0
BBX 29 29 1 0
BITMAP
000E0000
00070000
00030000
00010000
00008000
00000000
00000000
FE3FC1F8
7C0F0070
380F0020
1C070060
1C070040
1C038040
0E0380C0
0E038080
0E03C080
0707C180
0705C100
0704E100
038CE100
0388F200
03887200
01D07200
01D03C00
01F03C00
00E03C00
00E01800
00601800
00401800
ENDCHAR
STARTCHAR 1E81
ENCODING 7809
SWIDTH 690 0
DWIDTH 23 0
BBX 23 22 0 0
BITMAP
007000
003800
001800
000800
000400
000000
000000
FC7F1E
781C04
381C08
380E08
1C0E08
1C1E10
1C1710
0E3710
0E23A0
0763A0
0743A0
0741C0
0381C0
0380C0
010080
ENDCHAR
STARTCHAR 1E82
ENCODING 7810
SWIDTH 930 0
DWIDTH 31 0
BBX 29 29 1 0
BITMAP
0001C000
00038000
00030000
00020000
00040000
00000000
00000000
FE3FC1F8
7C0F0070
380F0020
1C070060
1C070040
1C038040
0E0380C0
0E038080
0E03C080
0707C180
0705C100
0704E100
038CE100
0388F200
03887200
01D07200
01D03C00
01F03C00
00E03C00
00E01800
00601800
00401800
ENDCHAR
STARTCHAR 1E83
ENCODING 7811
SWIDTH 690 0
DWIDTH 23 0
BBX 23 22 0 0
BITMAP
000E00
001C00
001800
001000
002000
000000
000000
FC7F1E
781C04
381C08
380E08
1C0E08
1C1E10
1C1710
0E3710
0E23A0
0763A0
0743A0
0741C0
0381C0
0380C0
010080
ENDCHAR
STARTCHAR 1E84
ENCODING 7812
SWIDTH 930 0
DWIDTH 31 0
BBX 29 27 1 0
BITMAP
001CE000
001CE000
001CE000
00000000
00000000
FE3FC1F8
7C0F0070
380F0020
1C070060
1C070040
1C038040
0E0380C0
0E038080
0E03C080
0707C180
0705C100
0704E100
038CE100
0388F200
03887200
01D07200
01D03C00
01F03C00
00E03C00
00E01800
00601800
00401800
ENDCHAR
STARTCHAR 1E85
ENCODING 7813
SWIDTH 690 0
DWIDTH 23 0
BBX 23 21 0 0
BITMAP
00E700
00E700
00E700
000000
000000
000000
FC7F1E
781C04
381C08
380E08
1C0E08
1C1E10
1C1710
0E3710
0E23A0
0763A0
0743A0
0741C0
0381C0
0380C0
010080
ENDCHAR
STARTCHAR 1EA0
ENCODING 7840
SWIDTH 690 0
DWIDTH 23 0
BBX 23 27 1 -5
BITMAP
001000
003800
003800
003C00
005C00
005C00
008E00
008E00
010E00
010700
020700
020380
020380
040380
07FFC0
0801C0
0801C0
1000E0
1000E0
200070
7000F8
FC03FE
000000
000000
007000
007000
007000
ENDCHAR
STARTCHAR 1EA1
ENCODING 7841
SWIDTH 450 0
DWIDTH 15 0
BBX 14 20 1 -5
BITMAP
0F80
39C0
70E0
70E0
60E0
01E0
06E0
18E0
30E0
60E0
E0E0
E0E0
F1E4
7EF8
3870
0000
0000
0E00
0E00
0E00
ENDCHAR
STARTCHAR 1EA2
ENCODING 7842
SWIDTH 690 0
DWIDTH 23 0
BBX 23 29 1 0
BITMAP
003800
004400
004400
000800
001000
000000
000000
001000
003800
003800
003C00
005C00
005C00
008E00
008E00
010E00
010700
020700
020380
020380
040380
07FFC0
0801C0
0801C0
1000E0
1000E0
200070
7000F8
FC03FE
ENDCHAR
STARTCHAR 1EA3
ENCODING 7843
SWIDTH 450 0
DWIDTH 15 0
BBX 14 22 1 0
BITMAP
0700
0880
0880
0100
0200
0000
0000
0F80
39C0
70E0
70E0
60E0
01E0
06E0
18E0
30E0
60E0
E0E0
E0E0
F1E4
7EF8
3870
ENDCHAR
STARTCHAR 1EA4
ENCODING 7844
SWIDTH 690 0
DWIDTH 23 0
BBX 23 29 1 0
BITMAP
000C00
001000
000000
000000
007C00
00C600
000000
001000
003800
003800
003C00
005C00
005C00
008E00
008E00
010E00
010700
020700
020380
020380
040380
07FFC0
0801C0
0801C0
1000E0
1000E0
200070
7000F8
FC03FE
ENDCHAR
STARTCHAR 1EA5
ENCODING 7845
SWIDTH 450 0
DWIDTH 15 0
BBX 14 29 1 0
BITMAP
01C0
0380
0300
0200
0400
0000
0000
0700
0F80
1980
10C0
2020
0000
0000
0F80
39C0
70E0
70E0
60E0
01E0
06E0
18E0
30E0
60E0
E0E0
E0E0
F1E4
7EF8
3870
ENDCHAR
STARTCHAR 1EA6
ENCODING 7846
SWIDTH 690 0
DWIDTH 23 0
BBX 23 29 1 0
BITMAP
006000
001000
000000
000000
007C00
00C600
000000
001000
003800
003800
003C00
005C00
005C00
008E00
008E00
010E00
010700
020700
020380
020380
040380
07FFC0
0801C0
0801C0
1000E0
1000E0
200070
7000F8
FC03FE
ENDCHAR
STARTCHAR 1EA7
ENCODING 7847
SWIDTH 450 0
DWIDTH 15 0
BBX 14 29 1 0
BITMAP
1C00
0E00
0600
0200
0100
0000
0000
0700
0F80
1980
10C0
2020
0000
0000
0F80
39C0
70E0
70E0
60E0
01E0
06E0
18E0
30E0
60E0
E0E0
E0E0
F1E4
7EF8
3870
ENDCHAR
STARTCHAR 1EA8
ENCODING 7848
SWIDTH 690 0
DWIDTH 23 0
BBX 23 29 1 0
BITMAP
007C00
000400
001800
000000
007C00
00C600
000000
001000
003800
003800
003C00
005C00
005C00
008E00
008E00
010E00
010700
020700
020380
020380
040380
07FFC0
0801C0
0801C0
1000E0
1000E0
200070
7000F8
FC03FE
ENDCHAR
STARTCHAR 1EA9
ENCODING 7849
SWIDTH 450 0
DWIDTH 15 0
BBX 14 29 1 0
BITMAP
0700
0880
0880
0100
0200
0000
0000
0700
0F80
1980
10C0
2020
0000
0000
0F80
39C0
70E0
70E0
60E0
01E0
06E0
18E0
30E0
60E0
E0E0
E0E0
F1E4
7EF8
3870
ENDCHAR
STARTCHAR 1EAA
ENCODING 7850
SWIDTH 690 0
DWIDTH 23 0
BBX 23 29 1 0
BITMAP
01E100
021E00
000000
000000
007C00
00C600
000000
001000
003800
003800
003C00
005C00
005C00
008E00
008E00
010E00
010700
020700
020380
020380
040380
07FFC0
0801C0
0801C0
1000E0
1000E0
200070
7000F8
FC03FE
ENDCHAR
STARTCHAR 1EAB
ENCODING 7851
SWIDTH 450 0
DWIDTH 15 0
BBX 14 28 1 0
BITMAP
3C10
7F30
67E0
41C0
0000
0000
0700
0F80
1980
10C0
2020
0000
0000
0F80
39C0
70E0
70E0
60E0
01E0
06E0
18E0
30E0
60E0
E0E0
E0E0
F1E4
7EF8
3870
ENDCHAR
STARTCHAR 1EAC
ENCODING 7852
SWIDTH 690 0
DWIDTH 23 0
BBX 23 30 1 -5
BITMAP
007C00
00C600
000000
001000
003800
003800
003C00
005C00
005C00
008E00
008E00
010E00
010700
020700
020380
020380
040380
07FFC0
0801C0
0801C0
1000E0
1000E0
200070
7000F8
FC03FE
000000
000000
007000
007000
007000
ENDCHAR
STARTCHAR 1EAD
ENCODING 7853
SWIDTH 450 0
DWIDTH 15 0
BBX 14 27 1 -5
BITMAP
0700
0F80
1980
10C0
2020
0000
0000
0F80
39C0
70E0
70E0
60E0
01E0
06E0
18E0
30E0
60E0
E0E0
E0E0
F1E4
7EF8
3870
0000
0000
0E00
0E00
0E00
ENDCHAR
STARTCHAR 1EAE
ENCODING 7854
SWIDTH 690 0
DWIDTH 23 0
BBX 23 29 1 0
BITMAP
000C00
001000
000000
018300
007C00
000000
000000
001000
003800
003800
003C00
005C00
005C00
008E00
008E00
010E00
010700
020700
020380
020380
040380
07FFC0
0801C0
0801C0
1000E0
1000E0
200070
7000F8
FC03FE
ENDCHAR
STARTCHAR 1EAF
ENCODING 7855
SWIDTH 450 0
DWIDTH 15 0
BBX 14 29 1 0
BITMAP
01C0
0380
0300
0200
0400
0000
0000
0000
2020
3060
1FC0
0F80
0000
0000
0F80
39C0
70E0
70E0
60E0
01E0
06E0
18E0
30E0
60E0
E0E0
E0E0
F1E4
7EF8
3870
ENDCHAR
STARTCHAR 1EB0
ENCODING 7856
SWIDTH 690 0
DWIDTH 23 0
BBX 23 29 1 0
BITMAP
006000
001000
000000
018300
007C00
000000
000000
001000
003800
003800
003C00
005C00
005C00
008E00
008E00
010E00
010700
020700
020380
020380
040380
07FFC0
0801C0
0801C0
1000E0
1000E0
200070
7000F8
FC03FE
ENDCHAR
STARTCHAR 1EB1
ENCODING 7857
SWIDTH 450 0
DWIDTH 15 0
BBX 14 29 1 0
BITMAP
1C00
0E00
0600
0200
0100
0000
0000
0000
2020
3060
1FC0
0F80
0000
0000
0F80
39C0
70E0
70E0
60E0
01E0
06E0
18E0
30E0
60E0
E0E0
E0E0
F1E4
7EF8
3870
ENDCHAR
STARTCHAR 1EB2
ENCODING 7858
SWIDTH 690 0
DWIDTH 23 0
BBX 23 29 1 0
BITMAP
007C00
000400
001800
018300
007C00
000000
000000
001000
003800
003800
003C00
005C00
005C00
008E00
008E00
010E00
010700
020700
020380
020380
040380
07FFC0
0801C0
0801C0
1000E0
1000E0
200070
7000F8
FC03FE
ENDCHAR
STARTCHAR 1EB3
ENCODING 7859
SWIDTH 450 0
DWIDTH 15 0
BBX 14 29 1 0
BITMAP
0700
0880
0880
0100
0200
0000
0000
0000
2020
3060
1FC0
0F80
0000
0000
0F80
39C0
70E0
70E0
60E0
01E0
06E0
18E0
30E0
60E0
E0E0
E0E0
F1E4
7EF8
3870
ENDCHAR
STARTCHAR 1EB4
ENCODING 7860
SWIDTH 690 0
DWIDTH 23 0
BBX 23 29 1 0
BITMAP
01E100
021E00
000000
018300
007C00
000000
000000
001000
003800
003800
003C00
005C00
005C00
008E00
008E00
010E00
010700
020700
020380
020380
040380
07FFC0
0801C0
0801C0
1000E0
1000E0
200070
7000F8
FC03FE
ENDCHAR
STARTCHAR 1EB5
ENCODING 7861
SWIDTH 450 0
DWIDTH 15 0
BBX 14 28 1 0
BITMAP
3C10
7F30
67E0
41C0
0000
0000
0000
2020
3060
1FC0
0F80
0000
0000
0F80
39C0
70E0
70E0
60E0
01E0
06E0
18E0
30E0
60E0
E0E0
E0E0
F1E4
7EF8
3870
ENDCHAR
STARTCHAR 1EB6
ENCODING 7862
SWIDTH 690 0
DWIDTH 23 0
BBX 23 31 1 -5
BITMAP
018300
007C00
000000
000000
001000
003800
003800
003C00
005C00
005C00
008E00
008E00
010E00
010700
020700
020380
020380
040380
07FFC0
0801C0
0801C0
1000E0
1000E0
200070
7000F8
FC03FE
000000
000000
007000
007000
007000
ENDCHAR
STARTCHAR 1EB7
ENCODING 7863
SWIDTH 450 0
DWIDTH 15 0
BBX 14 26 1 -5
BITMAP
2020
3060
1FC0
0F80
0000
0000
0F80
39C0
70E0
70E0
60E0
01E0
06E0
18E0
30E0
60E0
E0E0
E0E0
F1E4
7EF8
3870
0000
0000
0E00
0E00
0E00
ENDCHAR
STARTCHAR 1EB8
ENCODING 7864
SWIDTH 600 0
DWIDTH 20 0
BBX 18 27 1 -5
BITMAP
FFFF00
3C0300
1C0300
1C0100
1C0100
1C0000
1C0000
1C0800
1C0800
1C1800
1FF800
1C1800
1C0800
1C0800
1C0000
1C0000
1C0040
1C00C0
1C0080
1C0180
3C0380
FFFF00
000000
000000
00E000
00E000
00E000
ENDCHAR
STARTCHAR 1EB9
ENCODING 7865
SWIDTH 420 0
DWIDTH 14 0
BBX 12 20 1 -5
BITMAP
0F80
11C0
20E0
4070
C070
FFF0
C000
C000
E000
E010
F010
7820
7FE0
3FC0
0F80
0000
0000
0700
0700
0700
ENDCHAR
STARTCHAR 1EBA
ENCODING 7866
SWIDTH 600 0
DWIDTH 20 0
BBX 18 29 1 0
BITMAP
00E000
011000
011000
002000
004000
000000
000000
FFFF00
3C0300
1C0300
1C0100
1C0100
1C0000
1C0000
1C0800
1C0800
1C1800
1FF800
1C1800
1C0800
1C0800
1C0000
1C0000
1C0040
1C00C0
1C0080
1C0180
3C0380
FFFF00
ENDCHAR
STARTCHAR 1EBB
ENCODING 7867
SWIDTH 420 0
DWIDTH 14 0
BBX 12 22 1 0
BITMAP
0700
0880
0880
0100
0200
0000
0000
0F80
11C0
20E0
4070
C070
FFF0
C000
C000
E000
E010
F010
7820
7FE0
3FC0
0F80
ENDCHAR
STARTCHAR 1EBC
ENCODING 7868
SWIDTH 600 0
DWIDTH 20 0
BBX 18 28 1 0
BITMAP
078400
0FCC00
08FC00
087800
000000
000000
FFFF00
3C0300
1C0300
1C0100
1C0100
1C0000
1C0000
1C0800
1C0800
1C1800
1FF800
1C1800
1C0800
1C0800
1C0000
1C0000
1C0040
1C00C0
1C0080
1C0180
3C0380
FFFF00
ENDCHAR
STARTCHAR 1EBD
ENCODING 7869
SWIDTH 420 0
DWIDTH 14 0
BBX 12 21 1 0
BITMAP
1E10
3F30
23F0
21E0
0000
0000
0F80
11C0
20E0
4070
C070
FFF0
C000
C000
E000
E010
F010
7820
7FE0
3FC0
0F80
ENDCHAR
STARTCHAR 1EBE
ENCODING 7870
SWIDTH 600 0
DWIDTH 20 0
BBX 18 29 1 0
BITMAP
003000
004000
000000
000000
01F000
031800
000000
FFFF00
3C0300
1C0300
1C0100
1C0100
1C0000
1C0000
1C0800
1C0800
1C1800
1FF800
1C1800
1C0800
1C0800
1C0000
1C0000
1C0040
1C00C0
1C0080
1C0180
3C0380
FFFF00
ENDCHAR
STARTCHAR 1EBF
ENCODING 7871
SWIDTH 420 0
DWIDTH 14 0
BBX 12 29 1 0
BITMAP
01C0
0380
0300
0200
0400
0000
0000
0700
0F80
1980
10C0
2020
0000
0000
0F80
11C0
20E0
4070
C070
FFF0
C000
C000
E000
E010
F010
7820
7FE0
3FC0
0F80
ENDCHAR
STARTCHAR 1EC0
ENCODING 7872
SWIDTH 600 0
DWIDTH 20 0
BBX 18 29 1 0
BITMAP
00C000
002000
000000
000000
01F000
031800
000000
FFFF00
3C0300
1C0300
1C0100
1C0100
1C0000
1C0000
1C0800
1C0800
1C1800
1FF800
1C1800
1C0800
1C0800
1C0000
1C0000
1C0040
1C00C0
1C0080
1C0180
3C0380
FFFF00
ENDCHAR
STARTCHAR 1EC1
ENCODING 7873
SWIDTH 420 0
DWIDTH 14 0
BBX 12 29 1 0
BITMAP
1C00
0E00
0600
0200
0100
0000
0000
0700
0F80
1980
10C0
2020
0000
0000
0F80
11C0
20E0
4070
C070
FFF0
C000
C000
E000
E010
F010
7820
7FE0
3FC0
0F80
ENDCHAR
STARTCHAR 1EC2
ENCODING 7874
SWIDTH 600 0
DWIDTH 20 0
BBX 18 29 1 0
BITMAP
01F000
001000
006000
000000
01F000
031800
000000
FFFF00
3C0300
1C0300
1C0100
1C0100
1C0000
1C0000
1C0800
1C0800
1C1800
1FF800
1C1800
1C0800
1C0800
1C0000
1C0000
1C0040
1C00C0
1C0080
1C0180
3C0380
FFFF00
ENDCHAR
STARTCHAR 1EC3
ENCODING 7875
SWIDTH 420 0
DWIDTH 14 0
BBX 12 29 1 0
BITMAP
0700
0880
0880
0100
0200
0000
0000
0700
0F80
1980
10C0
2020
0000
0000
0F80
11C0
20E0
4070
C070
FFF0
C000
C000
E000
E010
F010
7820
7FE0
3FC0
0F80
ENDCHAR
STARTCHAR 1EC4
ENCODING 7876
SWIDTH 600 0
DWIDTH 20 0
BBX 18 29 1 0
BITMAP
03C200
043C00
000000
000000
01F000
031800
000000
FFFF00
3C0300
1C0300
1C0100
1C0100
1C0000
1C0000
1C0800
1C0800
1C1800
1FF800
1C1800
1C0800
1C0800
1C0000
1C0000
1C0040
1C00C0
1C0080
1C0180
3C0380
FFFF00
ENDCHAR
STARTCHAR 1EC5
ENCODING 7877
SWIDTH 420 0
DWIDTH 14 0
BBX 12 28 1 0
BITMAP
3C10
7F30
67E0
41C0
0000
0000
0700
0F80
1980
10C0
2020
0000
0000
0F80
11C0
20E0
4070
C070
FFF0
C000
C000
E000
E010
F010
7820
7FE0
3FC0
0F80
ENDCHAR
STARTCHAR 1EC6
ENCODING 7878
SWIDTH 600 0
DWIDTH 20 0
BBX 18 30 1 -5
BITMAP
01F000
031800
000000
FFFF00
3C0300
1C0300
1C0100
1C0100
1C0000
1C0000
1C0800
1C0800
1C1800
1FF800
1C1800
1C0800
1C0800
1C0000
1C0000
1C0040
1C00C0
1C0080
1C0180
3C0380
FFFF00
000000
000000
00E000
00E000
00E000
ENDCHAR
STARTCHAR 1EC7
ENCODING 7879
SWIDTH 420 0
DWIDTH 14 0
BBX 12 27 1 -5
BITMAP
0700
0F80
1980
10C0
2020
0000
0000
0F80
11C0
20E0
4070
C070
FFF0
C000
C000
E000
E010
F010
7820
7FE0
3FC0
0F80
0000
0000
0700
0700
0700
ENDCHAR
STARTCHAR 1EC8
ENCODING 7880
SWIDTH 330 0
DWIDTH 11 0
BBX 9 29 1 0
BITMAP
1C00
2200
2200
0400
0800
0000
0000
FF80
3E00
1C00
1C00
1C00
1C00
1C00
1C00
1C00
1C00
1C00
1C00
1C00
1C00
1C00
1C00
1C00
1C00
1C00
1C00
3E00
FF80
ENDCHAR
STARTCHAR 1EC9
ENCODING 7881
SWIDTH 270 0
DWIDTH 9 0
BBX 7 22 1 0
BITMAP
38
44
44
08
10
00
00
18
78
F8
38
38
38
38
38
38
38
38
38
38
38
FE
ENDCHAR
STARTCHAR 1ECA
ENCODING 7882
SWIDTH 330 0
DWIDTH 11 0
BBX 9 27 1 -5
BITMAP
FF80
3E00
1C00
1C00
1C00
1C00
1C00
1C00
1C00
1C00
1C00
1C00
1C00
1C00
1C00
1C00
1C00
1C00
1C00
1C00
3E00
FF80
0000
0000
1C00
1C00
1C00
ENDCHAR
STARTCHAR 1ECB
ENCODING 7883
SWIDTH 270 0
DWIDTH 9 0
BBX 7 28 1 -5
BITMAP
38
38
38
00
00
00
00
00
18
78
F8
38
38
38
38
38
38
38
38
38
38
38
FE
00
00
38
38
38
ENDCHAR
STARTCHAR 1ECC
ENCODING 7884
SWIDTH 720 0
DWIDTH 24 0
BBX 22 27 1 -5
BITMAP
00FC00
070380
0E01C0
1C00E0
380070
780078
780078
F00038
F0003C
F0003C
F0003C
F0003C
F0003C
F0003C
F00038
780038
780078
380070
1C00E0
0E01C0
070780
01FC00
000000
000000
003800
003800
003800
ENDCHAR
STARTCHAR 1ECD
ENCODING 7885
SWIDTH 480 0
DWIDTH 16 0
BBX 14 20 1 -5
BITMAP
0780
18E0
3070
6038
6038
E01C
E01C
E01C
E01C
E01C
7018
7018
3830
1C60
07C0
0000
0000
0380
0380
0380
ENDCHAR
STARTCHAR 1ECE
ENCODING 7886
SWIDTH 720 0
DWIDTH 24 0
BBX 22 29 1 0
BITMAP
003800
004400
004400
000800
001000
000000
000000
00FC00
070380
0E01C0
1C00E0
380070
780078
780078
F00038
F0003C
F0003C
F0003C
F0003C
F0003C
F0003C
F00038
780038
780078
380070
1C00E0
0E01C0
070780
01FC00
ENDCHAR
STARTCHAR 1ECF
ENCODING 7887
SWIDTH 480 0
DWIDTH 16 0
BBX 14 22 1 0
BITMAP
0380
0440
0440
0080
0100
0000
0000
0780
18E0
3070
6038
6038
E01C
E01C
E01C
E01C
E01C
7018
7018
3830
1C60
07C0
ENDCHAR
STARTCHAR 1ED0
ENCODING 7888
SWIDTH 720 0
DWIDTH 24 0
BBX 22 29 1 0
BITMAP
000C00
001000
000000
000000
007C00
00C600
000000
00FC00
070380
0E01C0
1C00E0
380070
780078
780078
F00038
F0003C
F0003C
F0003C
F0003C
F0003C
F0003C
F00038
780038
780078
380070
1C00E0
0E01C0
070780
01FC00
ENDCHAR
STARTCHAR 1ED1
ENCODING 7889
SWIDTH 480 0
DWIDTH 16 0
BBX 14 29 1 0
BITMAP
00E0
01C0
0180
0100
0200
0000
0000
0380
07C0
0CC0
0860
1010
0000
0000
0780
18E0
3070
6038
6038
E01C
E01C
E01C
E01C
E01C
7018
7018
3830
1C60
07C0
ENDCHAR
STARTCHAR 1ED2
ENCODING 7890
SWIDTH 720 0
DWIDTH 24 0
BBX 22 29 1 0
BITMAP
003000
000800
000000
000000
007C00
00C600
000000
00FC00
070380
0E01C0
1C00E0
380070
780078
780078
F00038
F0003C
F0003C
F0003C
F0003C
F0003C
F0003C
F00038
780038
780078
380070
1C00E0
0E01C0
070780
01FC00
ENDCHAR
STARTCHAR 1ED3
ENCODING 7891
SWIDTH 480 0
DWIDTH 16 0
BBX 14 29 1 0
BITMAP
0E00
0700
0300
0100
0080
0000
0000
0380
07C0
0CC0
0860
1010
0000
0000
0780
18E0
3070
6038
6038
E01C
E01C
E01C
E01C
E01C
7018
7018
3830
1C60
07C0
ENDCHAR
STARTCHAR 1ED4
ENCODING 7892
SWIDTH 720 0
DWIDTH 24 0
BBX 22 29 1 0
BITMAP
007C00
000400
001800
000000
007C00
00C600
000000
00FC00
070380
0E01C0
1C00E0
380070
780078
780078
F00038
F0003C
F0003C
F0003C
F0003C
F0003C
F0003C
F00038
780038
780078
380070
1C00E0
0E01C0
070780
01FC00
ENDCHAR
STARTCHAR 1ED5
ENCODING 7893
SWIDTH 480 0
DWIDTH 16 0
BBX 14 29 1 0
BITMAP
0380
0440
0440
0080
0100
0000
0000
0380
07C0
0CC0
0860
1010
0000
0000
0780
18E0
3070
6038
6038
E01C
E01C
E01C
E01C
E01C
7018
7018
3830
1C60
07C0
ENDCHAR
STARTCHAR 1ED6
ENCODING 7894
SWIDTH 720 0
DWIDTH 24 0
BBX 22 29 1 0
BITMAP
00F080
010F00
000000
000000
007C00
00C600
000000
00FC00
070380
0E01C0
1C00E0
380070
780078
780078
F00038
F0003C
F0003C
F0003C
F0003C
F0003C
F0003C
F00038
780038
780078
380070
1C00E0
0E01C0
070780
01FC00
ENDCHAR
STARTCHAR 1ED7
ENCODING 7895
SWIDTH 480 0
DWIDTH 16 0
BBX 14 28 1 0
BITMAP
1E08
3F98
33F0
20E0
0000
0000
0380
07C0
0CC0
0860
1010
0000
0000
0780
18E0
3070
6038
6038
E01C
E01C
E01C
E01C
E01C
7018
7018
3830
1C60
07C0
ENDCHAR
STARTCHAR 1ED8
ENCODING 7896
SWIDTH 720 0
DWIDTH 24 0
BBX 22 30 1 -5
BITMAP
007C00
00C600
000000
00FC00
070380
0E01C0
1C00E0
380070
780078
780078
F00038
F0003C
F0003C
F0003C
F0003C
F0003C
F0003C
F00038
780038
780078
380070
1C00E0
0E01C0
070780
01FC00
000000
000000
003800
003800
003800
ENDCHAR
STARTCHAR 1ED9
ENCODING 7897
SWIDTH 480 0
DWIDTH 16 0
BBX 14 27 1 -5
BITMAP
0380
07C0
0CC0
0860
1010
0000
0000
0780
18E0
3070
6038
6038
E01C
E01C
E01C
E01C
E01C
7018
7018
3830
1C60
07C0
0000
0000
0380
0380
0380
ENDCHAR
STARTCHAR 1EDA
ENCODING 7898
SWIDTH 720 0
DWIDTH 24 0
BBX 22 29 1 0
BITMAP
000E00
001C00
001800
001000
002010
000038
000038
00FC18
0703F0
0E0180
1C00E0
380070
780070
780078
F00038
F0003C
F0003C
F0003C
F0003C
F0003C
F0003C
F0003C
780078
780078
380070
1C00E0
0E01C0
070380
01FC00
ENDCHAR
STARTCHAR 1EDB
ENCODING 7899
SWIDTH 510 0
DWIDTH 17 0
BBX 16 22 1 0
BITMAP
00E0
01C0
0180
0100
0200
0000
0002
0F87
18E7
3073
603E
6038
E01C
E01C
E01C
E01C
E01C
7018
7018
3830
1C60
0FC0
ENDCHAR
STARTCHAR 1EDC
ENCODING 7900
SWIDTH 720 0
DWIDTH 24 0
BBX 22 29 1 0
BITMAP
01C000
00E000
006000
002000
001010
000038
000038
00FC18
0703F0
0E0180
1C00E0
380070
780070
780078
F00038
F0003C
F0003C
F0003C
F0003C
F0003C
F0003C
F0003C
780078
780078
380070
1C00E0
0E01C0
070380
01FC00
ENDCHAR
STARTCHAR 1EDD
ENCODING 7901
SWIDTH 510 0
DWIDTH 17 0
BBX 16 22 1 0
BITMAP
1C00
0E00
0600
0200
0100
0000
0002
0F87
18E7
3073
603E
6038
E01C
E01C
E01C
E01C
E01C
7018
7018
3830
1C60
0FC0
ENDCHAR
STARTCHAR 1EDE
ENCODING 7902
SWIDTH 720 0
DWIDTH 24 0
BBX 22 29 1 0
BITMAP
003800
004400
004400
000800
001010
000038
000038
00FC18
0703F0
0E0180
1C00E0
380070
780070
780078
F00038
F0003C
F0003C
F0003C
F0003C
F0003C
F0003C
F0003C
780078
780078
380070
1C00E0
0E01C0
070380
01FC00
ENDCHAR
STARTCHAR 1EDF
ENCODING 7903
SWIDTH 510 0
DWIDTH 17 0
BBX 16 22 1 0
BITMAP
0380
0440
0440
0080
0100
0000
0002
0F87
18E7
3073
603E
6038
E01C
E01C
E01C
E01C
E01C
7018
7018
3830
1C60
0FC0
ENDCHAR
STARTCHAR 1EE0
ENCODING 7904
SWIDTH 720 0
DWIDTH 24 0
BBX 22 28 1 0
BITMAP
01E100
03F300
023F00
021E10
000038
000038
00FC18
0703F0
0E0180
1C00E0
380070
780070
780078
F00038
F0003C
F0003C
F0003C
F0003C
F0003C
F0003C
F0003C
780078
780078
380070
1C00E0
0E01C0
070380
01FC00
ENDCHAR
STARTCHAR 1EE1
ENCODING 7905
SWIDTH 510 0
DWIDTH 17 0
BBX 16 21 1 0
BITMAP
1E10
3F30
23F0
21E0
0000
0002
0F87
18E7
3073
603E
6038
E01C
E01C
E01C
E01C
E01C
7018
7018
3830
1C60
0FC0
ENDCHAR
STARTCHAR 1EE2
ENCODING 7906
SWIDTH 720 0
DWIDTH 24 0
BBX 22 30 1 -5
BITMAP
000010
000038
000038
00FC18
0703F0
0E0180
1C00E0
380070
780070
780078
F00038
F0003C
F0003C
F0003C
F0003C
F0003C
F0003C
F0003C
780078
780078
380070
1C00E0
0E01C0
070380
01FC00
000000
000000
003800
003800
003800
ENDCHAR
STARTCHAR 1EE3
ENCODING 7907
SWIDTH 510 0
DWIDTH 17 0
BBX 16 21 1 -5
BITMAP
0002
0F87
18E7
3073
603E
6038
E01C
E01C
E01C
E01C
E01C
7018
7018
3830
1C60
0FC0
0000
0000
0380
0380
0380
ENDCHAR
STARTCHAR 1EE4
ENCODING 7908
SWIDTH 690 0
DWIDTH 23 0
BBX 23 27 0 -5
BITMAP
FF80FE
3E0038
1C0010
1C0010
1C0010
1C0010
1C0010
1C0010
1C0010
1C0010
1C0010
1C0010
1C0010
1C0010
1C0010
1C0010
1C0010
1C0020
0E0020
070040
038180
00FE00
000000
000000
003800
003800
003800
ENDCHAR
STARTCHAR 1EE5
ENCODING 7909
SWIDTH 510 0
DWIDTH 17 0
BBX 16 20 0 -5
BITMAP
F87C
381C
381C
381C
381C
381C
381C
381C
381C
381C
381C
383C
3C5F
1F9E
0F18
0000
0000
0700
0700
0700
ENDCHAR
STARTCHAR 1EE6
ENCODING 7910
SWIDTH 690 0
DWIDTH 23 0
BBX 23 29 0 0
BITMAP
003800
004400
004400
000800
001000
000000
000000
FF80FE
3E0038
1C0010
1C0010
1C0010
1C0010
1C0010
1C0010
1C0010
1C0010
1C0010
1C0010
1C0010
1C0010
1C0010
1C0010
1C0010
1C0020
0E0020
070040
038180
00FE00
ENDCHAR
STARTCHAR 1EE7
ENCODING 7911
SWIDTH 510 0
DWIDTH 17 0
BBX 16 22 0 0
BITMAP
01C0
0220
0220
0040
0080
0000
0000
F87C
381C
381C
381C
381C
381C
381C
381C
381C
381C
381C
383C
3C5F
1F9E
0F18
ENDCHAR
STARTCHAR 1EE8
ENCODING 7912
SWIDTH 780 0
DWIDTH 26 0
BBX 27 29 0 0
BITMAP
000E0000
001C0000
00180000
001000C0
002000E0
000000E0
00000060
FF80FFC0
3E003800
1C001000
1C001000
1C001000
1C001000
1C001000
1C001000
1C001000
1C001000
1C001000
1C001000
1C001000
1C001000
1C001000
1C001000
1C001000
1C002000
0E002000
07004000
03818000
00FE0000
ENDCHAR
STARTCHAR 1EE9
ENCODING 7913
SWIDTH 540 0
DWIDTH 18 0
BBX 18 22 0 0
BITMAP
00E000
01C000
018000
010000
020000
000000
000080
F87DC0
381DC0
381CC0
381F80
381C00
381C00
381C00
381C00
381C00
381C00
381C00
383C00
3C5F00
1F9E00
0F1800
ENDCHAR
STARTCHAR 1EEA
ENCODING 7914
SWIDTH 780 0
DWIDTH 26 0
BBX 27 29 0 0
BITMAP
00E00000
00700000
00300000
001000C0
000800E0
000000E0
00000060
FF80FFC0
3E003800
1C001000
1C001000
1C001000
1C001000
1C001000
1C001000
1C001000
1C001000
1C001000
1C001000
1C001000
1C001000
1C001000
1C001000
1C001000
1C002000
0E002000
07004000
03818000
00FE0000
ENDCHAR
STARTCHAR 1EEB
ENCODING 7915
SWIDTH 540 0
DWIDTH 18 0
BBX 18 22 0 0
BITMAP
070000
038000
018000
008000
004000
000000
000080
F87DC0
381DC0
381CC0
381F80
381C00
381C00
381C00
381C00
381C00
381C00
381C00
383C00
3C5F00
1F9E00
0F1800
ENDCHAR
STARTCHAR 1EEC
ENCODING 7916
SWIDTH 780 0
DWIDTH 26 0
BBX 27 29 0 0
BITMAP
00380000
00440000
00440000
000800C0
001000E0
000000E0
00000060
FF80FFC0
3E003800
1C001000
1C001000
1C001000
1C001000
1C001000
1C001000
1C001000
1C001000
1C001000
1C001000
1C001000
1C001000
1C001000
1C001000
1C001000
1C002000
0E002000
07004000
03818000
00FE0000
ENDCHAR
STARTCHAR 1EED
ENCODING 7917
SWIDTH 540 0
DWIDTH 18 0
BBX 18 22 0 0
BITMAP
01C000
022000
022000
004000
008000
000000
000080
F87DC0
381DC0
381CC0
381F80
381C00
381C00
381C00
381C00
381C00
381C00
381C00
383C00
3C5F00
1F9E00
0F1800
ENDCHAR
STARTCHAR 1EEE
ENCODING 7918
SWIDTH 780 0
DWIDTH 26 0
BBX 27 28 0 0
BITMAP
00F08000
01F98000
011F80C0
010F00E0
000000E0
00000060
FF80FFC0
3E003800
1C001000
1C001000
1C001000
1C001000
1C001000
1C001000
1C001000
1C001000
1C001000
1C001000
1C001000
1C001000
1C001000
1C001000
1C001000
1C002000
0E002000
07004000
03818000
00FE0000
ENDCHAR
STARTCHAR 1EEF
ENCODING 7919
SWIDTH 540 0
DWIDTH 18 0
BBX 18 21 0 0
BITMAP
0F0800
1F9800
11F800
10F000
000000
000080
F87DC0
381DC0
381CC0
381F80
381C00
381C00
381C00
381C00
381C00
381C00
381C00
383C00
3C5F00
1F9E00
0F1800
ENDCHAR
STARTCHAR 1EF0
ENCODING 7920
SWIDTH 780 0
DWIDTH 26 0
BBX 27 31 0 -5
BITMAP
000000C0
000000E0
000000E0
00000060
FF80FFC0
3E003800
1C001000
1C001000
1C001000
1C001000
1C001000
1C001000
1C001000
1C001000
1C001000
1C001000
1C001000
1C001000
1C001000
1C001000
1C001000
1C002000
0E002000
07004000
03818000
00FE0000
00000000
00000000
00380000
00380000
00380000
ENDCHAR
STARTCHAR 1EF1
ENCODING 7921
SWIDTH 540 0
DWIDTH 18 0
BBX 18 21 0 -5
BITMAP
000080
F87DC0
381DC0
381CC0
381F80
381C00
381C00
381C00
381C00
381C00
381C00
381C00
383C00
3C5F00
1F9E00
0F1800
000000
000000
070000
070000
070000
ENDCHAR
STARTCHAR 1EF2
ENCODING 7922
SWIDTH 720 0
DWIDTH 24 0
BBX 22 29 1 0
BITMAP
00E000
007000
003000
001000
000800
000000
000000
FF01FC
7C00F0
1C0040
1C00C0
0E0080
070100
070200
038200
01C400
01C400
00E800
007000
007000
007000
007000
007000
007000
007000
007000
007000
00F800
03FE00
ENDCHAR
STARTCHAR 1EF3
ENCODING 7923
SWIDTH 480 0
DWIDTH 16 0
BBX 16 29 0 -7
BITMAP
0380
01C0
00C0
0040
0020
0000
0000
FE0F
7806
3804
1C04
1C08
0E08
0E18
0710
0710
03A0
03A0
01E0
01C0
00C0
0080
0080
0080
0100
0100
7200
7C00
3800
ENDCHAR
STARTCHAR 1EF4
ENCODING 7924
SWIDTH 720 0
DWIDTH 24 0
BBX 22 27 1 -5
BITMAP
FF01FC
7C00F0
1C0040
1C00C0
0E0080
070100
070200
038200
01C400
01C400
00E800
007000
007000
007000
007000
007000
007000
007000
007000
007000
00F800
03FE00
000000
000000
007000
007000
007000
ENDCHAR
STARTCHAR 1EF5
ENCODING 7925
SWIDTH 480 0
DWIDTH 16 0
BBX 16 22 0 -7
BITMAP
FE0F
7806
3804
1C04
1C08
0E08
0E18
0710
0710
03A0
03A0
01E0
01C0
00C0
0080
0080
0080
0138
0138
7238
7C00
3800
ENDCHAR
STARTCHAR 1EF6
ENCODING 7926
SWIDTH 720 0
DWIDTH 24 0
BBX 22 29 1 0
BITMAP
007000
008800
008800
001000
002000
000000
000000
FF01FC
7C00F0
1C0040
1C00C0
0E0080
070100
070200
038200
01C400
01C400
00E800
007000
007000
007000
007000
007000
007000
007000
007000
007000
00F800
03FE00
ENDCHAR
STARTCHAR 1EF7
ENCODING 7927
SWIDTH 480 0
DWIDTH 16 0
BBX 16 29 0 -7
BITMAP
01C0
0220
0220
0040
0080
0000
0000
FE0F
7806
3804
1C04
1C08
0E08
0E18
0710
0710
03A0
03A0
01E0
01C0
00C0
0080
0080
0080
0100
0100
7200
7C00
3800
ENDCHAR
STARTCHAR 1EF8
ENCODING 7928
SWIDTH 720 0
DWIDTH 24 0
BBX 22 28 1 0
BITMAP
01E100
03F300
023F00
021E00
000000
000000
FF01FC
7C00F0
1C0040
1C00C0
0E0080
070100
070200
038200
01C400
01C400
00E800
007000
007000
007000
007000
007000
007000
007000
007000
007000
00F800
03FE00
ENDCHAR
STARTCHAR 1EF9
ENCODING 7929
SWIDTH 480 0
DWIDTH 16 0
BBX 16 28 0 -7
BITMAP
0F08
1F98
11F8
10F0
0000
0000
FE0F
7806
3804
1C04
1C08
0E08
0E18
0710
0710
03A0
03A0
01E0
01C0
00C0
0080
0080
0080
0100
0100
7200
7C00
3800
ENDCHAR
STARTCHAR 200C
ENCODING 8204
SWIDTH 0 0
DWIDTH 0 0
BBX 1 25 -1 -4
BITMAP
80
80
80
80
80
80
80
80
80
80
80
80
80
80
80
80
80
80
80
80
80
80
80
80
80
ENDCHAR
STARTCHAR 200D
ENCODING 8205
SWIDTH 0 0
DWIDTH 0 0
BBX 7 27 -4 -4
BITMAP
82
44
28
10
38
54
92
10
10
10
10
10
10
10
10
10
10
10
10
10
10
10
10
10
10
10
10
ENDCHAR
STARTCHAR 200E
ENCODING 8206
SWIDTH 0 0
DWIDTH 0 0
BBX 7 27 -1 -4
BITMAP
10
08
04
FE
84
88
90
80
80
80
80
80
80
80
80
80
80
80
80
80
80
80
80
80
80
80
80
ENDCHAR
STARTCHAR 200F
ENCODING 8207
SWIDTH 0 0
DWIDTH 0 0
BBX 7 27 -7 -4
BITMAP
10
20
40
FE
42
22
12
02
02
02
02
02
02
02
02
02
02
02
02
02
02
02
02
02
02
02
02
ENDCHAR
STARTCHAR 2013
ENCODING 8211
SWIDTH 510 0
DWIDTH 17 0
BBX 17 1 0 7
BITMAP
FFFF80
ENDCHAR
STARTCHAR 2014
ENCODING 8212
SWIDTH 990 0
DWIDTH 33 0
BBX 33 1 0 7
BITMAP
FFFFFFFF80
ENDCHAR
STARTCHAR 2015
ENCODING 8213
SWIDTH 990 0
DWIDTH 33 0
BBX 31 2 1 7
BITMAP
FFFFFFFE
FFFFFFFE
ENDCHAR
STARTCHAR 2017
ENCODING 8215
SWIDTH 510 0
DWIDTH 17 0
BBX 17 4 0 -7
BITMAP
FFFF80
000000
000000
FFFF80
ENDCHAR
STARTCHAR 2018
ENCODING 8216
SWIDTH 330 0
DWIDTH 11 0
BBX 5 8 3 14
BITMAP
10
20
40
80
80
F0
F8
70
ENDCHAR
STARTCHAR 2019
ENCODING 8217
SWIDTH 330 0
DWIDTH 11 0
BBX 5 8 3 14
BITMAP
70
F8
F8
08
08
10
20
40
ENDCHAR
STARTCHAR 201A
ENCODING 8218
SWIDTH 330 0
DWIDTH 11 0
BBX 5 8 3 -5
BITMAP
70
F8
F8
08
08
10
20
C0
ENDCHAR
STARTCHAR 201B
ENCODING 8219
SWIDTH 330 0
DWIDTH 11 0
BBX 5 9 3 13
BITMAP
70
F8
F8
F8
C0
C0
40
20
10
ENDCHAR
STARTCHAR 201C
ENCODING 8220
SWIDTH 450 0
DWIDTH 15 0
BBX 13 8 1 14
BITMAP
1010
6060
4040
8080
8080
F0F8
F8F8
7070
ENDCHAR
STARTCHAR 201D
ENCODING 8221
SWIDTH 450 0
DWIDTH 15 0
BBX 13 8 1 14
BITMAP
7070
F8F8
78F8
0808
0808
1010
2030
4040
ENDCHAR
STARTCHAR 201E
ENCODING 8222
SWIDTH 450 0
DWIDTH 15 0
BBX 13 8 1 -5
BITMAP
7070
F8F8
78F8
0808
0808
1010
2030
4040
ENDCHAR
STARTCHAR 2020
ENCODING 8224
SWIDTH 480 0
DWIDTH 16 0
BBX 13 30 1 -7
BITMAP
0700
0700
0700
0700
0600
0200
F278
FFF8
F278
0200
0700
0700
0700
0700
0700
0600
0200
0200
0200
0200
0200
0200
0200
0200
0200
0200
0200
0200
0200
0200
ENDCHAR
STARTCHAR 2021
ENCODING 8225
SWIDTH 480 0
DWIDTH 16 0
BBX 13 30 1 -7
BITMAP
0700
0700
0700
0700
0200
F278
FFF8
F278
0700
0700
0200
0200
0200
0200
0200
0200
0200
0200
0200
0200
0700
0700
F278
FFF8
F278
0200
0700
0700
0700
0700
ENDCHAR
STARTCHAR 2022
ENCODING 8226
SWIDTH 330 0
DWIDTH 11 0
BBX 8 8 1 7
BITMAP
3C
7E
FF
FF
FF
FF
7E
3C
ENDCHAR
STARTCHAR 2026
ENCODING 8230
SWIDTH 990 0
DWIDTH 33 0
BBX 25 3 4 0
BITMAP
E01C0380
E01C0380
E01C0380
ENDCHAR
STARTCHAR 202A
ENCODING 8234
SWIDTH 750 0
DWIDTH 25 0
BBX 17 21 4 0
BITMAP
FFFF80
800080
800080
800080
800080
800080
800080
800080
800080
800080
800080
800080
800080
800080
800080
800080
800080
800080
800080
800080
FFFF80
ENDCHAR
STARTCHAR 202B
ENCODING 8235
SWIDTH 750 0
DWIDTH 25 0
BBX 17 21 4 0
BITMAP
FFFF80
800080
800080
800080
800080
800080
800080
800080
800080
800080
800080
800080
800080
800080
800080
800080
800080
800080
800080
800080
FFFF80
ENDCHAR
STARTCHAR 202C
ENCODING 8236
SWIDTH 750 0
DWIDTH 25 0
BBX 17 21 4 0
BITMAP
FFFF80
800080
800080
800080
800080
800080
800080
800080
800080
800080
800080
800080
800080
800080
800080
800080
800080
800080
800080
800080
FFFF80
ENDCHAR
STARTCHAR 202D
ENCODING 8237
SWIDTH 750 0
DWIDTH 25 0
BBX 17 21 4 0
BITMAP
FFFF80
800080
800080
800080
800080
800080
800080
800080
800080
800080
800080
800080
800080
800080
800080
800080
800080
800080
800080
800080
FFFF80
ENDCHAR
STARTCHAR 202E
ENCODING 8238
SWIDTH 750 0
DWIDTH 25 0
BBX 17 21 4 0
BITMAP
FFFF80
800080
800080
800080
800080
800080
800080
800080
800080
800080
800080
800080
800080
800080
800080
800080
800080
800080
800080
800080
FFFF80
ENDCHAR
STARTCHAR 2030
ENCODING 8240
SWIDTH 990 0
DWIDTH 33 0
BBX 33 22 1 0
BITMAP
1E00200000
3300400000
6180800000
E1C0800000
E1C1000000
E1C2000000
E1C4000000
E1C4000000
E1C8000000
6190000000
3323C03C00
1E26606600
004C30C300
009C39C380
019C39C380
011C39C380
021C39C380
041C39C380
041C39C380
080C30C300
1006606600
2003C03C00
ENDCHAR
STARTCHAR 2032
ENCODING 8242
SWIDTH 210 0
DWIDTH 7 0
BBX 4 9 2 13
BITMAP
30
70
70
60
60
C0
C0
C0
80
ENDCHAR
STARTCHAR 2033
ENCODING 8243
SWIDTH 420 0
DWIDTH 14 0
BBX 10 9 3 13
BITMAP
30C0
71C0
71C0
6180
6180
C300
C300
C300
8200
ENDCHAR
STARTCHAR 2039
ENCODING 8249
SWIDTH 330 0
DWIDTH 11 0
BBX 7 15 2 0
BITMAP
02
04
0C
18
38
30
70
E0
70
30
38
18
0C
04
02
ENDCHAR
STARTCHAR 203A
ENCODING 8250
SWIDTH 330 0
DWIDTH 11 0
BBX 7 15 2 0
BITMAP
80
40
60
30
38
18
1C
0E
1C
18
38
30
60
40
80
ENDCHAR
STARTCHAR 203C
ENCODING 8252
SWIDTH 540 0
DWIDTH 18 0
BBX 10 22 4 0
BITMAP
4080
E1C0
E1C0
E1C0
E1C0
E1C0
E1C0
E1C0
E1C0
60C0
4080
4080
4080
4080
4080
4080
0000
0000
0000
E1C0
E1C0
E1C0
ENDCHAR
STARTCHAR 203E
ENCODING 8254
SWIDTH 330 0
DWIDTH 11 0
BBX 13 2 -1 18
BITMAP
FFF8
FFF8
ENDCHAR
STARTCHAR 2044
ENCODING 8260
SWIDTH 180 0
DWIDTH 6 0
BBX 16 23 -5 0
BITMAP
0001
0002
0004
0004
0008
0010
0010
0020
0040
0040
0080
0100
0100
0200
0200
0400
0800
0800
1000
2000
2000
4000
8000
ENDCHAR
STARTCHAR 206A
ENCODING 8298
SWIDTH 750 0
DWIDTH 25 0
BBX 17 21 4 0
BITMAP
FFFF80
800080
800080
800080
800080
800080
800080
800080
800080
800080
800080
800080
800080
800080
800080
800080
800080
800080
800080
800080
FFFF80
ENDCHAR
STARTCHAR 206B
ENCODING 8299
SWIDTH 750 0
DWIDTH 25 0
BBX 17 21 4 0
BITMAP
FFFF80
800080
800080
800080
800080
800080
800080
800080
800080
800080
800080
800080
800080
800080
800080
800080
800080
800080
800080
800080
FFFF80
ENDCHAR
STARTCHAR 206C
ENCODING 8300
SWIDTH 750 0
DWIDTH 25 0
BBX 17 21 4 0
BITMAP
FFFF80
800080
800080
800080
800080
800080
800080
800080
800080
800080
800080
800080
800080
800080
800080
800080
800080
800080
800080
800080
FFFF80
ENDCHAR
STARTCHAR 206D
ENCODING 8301
SWIDTH 750 0
DWIDTH 25 0
BBX 17 21 4 0
BITMAP
FFFF80
800080
800080
800080
800080
800080
800080
800080
800080
800080
800080
800080
800080
800080
800080
800080
800080
800080
800080
800080
FFFF80
ENDCHAR
STARTCHAR 206E
ENCODING 8302
SWIDTH 750 0
DWIDTH 25 0
BBX 17 21 4 0
BITMAP
FFFF80
800080
800080
800080
800080
800080
800080
800080
800080
800080
800080
800080
800080
800080
800080
800080
800080
800080
800080
800080
FFFF80
ENDCHAR
STARTCHAR 206F
ENCODING 8303
SWIDTH 750 0
DWIDTH 25 0
BBX 17 21 4 0
BITMAP
FFFF80
800080
800080
800080
800080
800080
800080
800080
800080
800080
800080
800080
800080
800080
800080
800080
800080
800080
800080
800080
FFFF80
ENDCHAR
STARTCHAR 207F
ENCODING 8319
SWIDTH 300 0
DWIDTH 10 0
BBX 11 9 0 9
BITMAP
3700
F980
3180
3180
3180
3180
3180
3180
FFE0
ENDCHAR
STARTCHAR 20A3
ENCODING 8355
SWIDTH 510 0
DWIDTH 17 0
BBX 15 22 1 0
BITMAP
FFFE
3C0E
1C06
1C02
1C02
1C00
1C00
1C08
1C08
1C18
1FF8
1C18
1C08
1C08
1C00
1C00
FFE0
1C00
1C00
1C00
3E00
FF80
ENDCHAR
STARTCHAR 20A4
ENCODING 8356
SWIDTH 510 0
DWIDTH 17 0
BBX 15 22 1 0
BITMAP
00F0
0318
061C
061C
0E1C
0E00
0E00
0E00
7FE0
7FE0
0E00
0E00
7FE0
7FE0
0E00
0E00
0C02
7C06
8F04
8FFC
91F8
60F0
ENDCHAR
STARTCHAR 20A7
ENCODING 8359
SWIDTH 960 0
DWIDTH 32 0
BBX 31 22 1 0
BITMAP
FFE00000
3C3C0000
1C0E2000
1C0E6000
1C076000
1C07E000
1C07E000
1C07FCE4
1C0FE19C
1C0EE30C
1C3CE304
1FF0E384
1C00E3C0
1C00E1F0
1C00E0F8
1C00E03C
1C00E01E
1C00E20E
1C00E206
1C00E706
3E00FF8C
FF807278
ENDCHAR
STARTCHAR 20AA
ENCODING 8362
SWIDTH 780 0
DWIDTH 26 0
BBX 22 17 2 0
BITMAP
FFFC0C
FFFE0C
C0070C
C0030C
C0030C
C0030C
C3030C
C3030C
C3030C
C3030C
C3030C
C3000C
C3000C
C3000C
C30018
C3FFF8
C3FFE0
ENDCHAR
STARTCHAR 20AB
ENCODING 8363
SWIDTH 510 0
DWIDTH 17 0
BBX 11 18 3 5
BITMAP
0180
0780
0180
0FE0
0180
1D80
2380
6180
C180
C180
C180
C180
C180
6180
7380
3DC0
0000
FFE0
ENDCHAR
STARTCHAR 20AC
ENCODING 8364
SWIDTH 510 0
DWIDTH 17 0
BBX 17 22 -1 0
BITMAP
00FC00
018780
070380
060180
0C0080
1C0080
1C0080
1C0000
380000
380000
FFFE00
380000
FFFC00
380000
380000
380000
1C0000
1C0000
0C0080
0E0100
070600
01F800
ENDCHAR
STARTCHAR 2105
ENCODING 8453
SWIDTH 840 0
DWIDTH 28 0
BBX 26 22 1 0
BITMAP
1E001000
23002000
61804000
C1808000
C0008000
C0010000
C0020000
C0820000
E1840000
71080000
7F103E00
1C104300
0020C180
004181C0
008180C0
008180C0
010180C0
020180C0
0201C080
0400C180
08006100
10003E00
ENDCHAR
STARTCHAR 2113
ENCODING 8467
SWIDTH 480 0
DWIDTH 16 0
BBX 13 22 2 0
BITMAP
03C0
0E60
0C20
1C20
1C20
1C40
1C40
1C80
1C80
1D00
1E00
1C00
1C00
1C00
3C00
5C00
9C00
1C08
1C10
1C10
0E20
03C0
ENDCHAR
STARTCHAR 2116
ENCODING 8470
SWIDTH 930 0
DWIDTH 31 0
BBX 30 22 0 0
BITMAP
3F003C00
0F007E00
0780FE00
07C0CE00
07C0C000
06E0C000
06E0C000
0670C1E0
0670C338
0638C618
0638C61C
061CC60C
060EC60C
060EC70C
0607C30C
0607C398
0603C0F0
0603C000
E601C000
FE00C000
FC00C7FC
780047FC
ENDCHAR
STARTCHAR 2122
ENCODING 8482
SWIDTH 990 0
DWIDTH 33 0
BBX 32 13 1 9
BITMAP
FFFBE01F
C718E03C
8708F03C
0700B07C
0700B85C
0700B85C
07009C9C
07009C9C
07008F9C
07008F1C
0700871C
0700871C
1FC3E27F
ENDCHAR
STARTCHAR 2126
ENCODING 8486
SWIDTH 750 0
DWIDTH 25 0
BBX 23 22 1 0
BITMAP
00FE00
0783C0
0E00E0
1C0070
3C0078
380038
78003C
78003C
78003C
78003C
78003C
78003C
380038
3C0078
1C0070
1E00F0
0701C0
818302
C08206
FF87FE
FFC7FE
FFC7FE
ENDCHAR
STARTCHAR 212E
ENCODING 8494
SWIDTH 600 0
DWIDTH 20 0
BBX 17 19 1 -1
BITMAP
03E000
0C1800
380E00
300600
700700
700700
F00780
F00780
FFFF80
F00000
F00000
F00000
F00000
700000
700100
300300
380600
0C1C00
03F000
ENDCHAR
STARTCHAR 2153
ENCODING 8531
SWIDTH 750 0
DWIDTH 25 0
BBX 22 23 2 0
BITMAP
000040
300080
F00100
300100
300200
300400
300400
300800
301000
301000
302000
3040F0
FC4118
008218
008018
010030
0200F0
02001C
04000C
08000C
08000C
100318
2003E0
ENDCHAR
STARTCHAR 2154
ENCODING 8532
SWIDTH 750 0
DWIDTH 25 0
BBX 24 23 0 0
BITMAP
000010
3C0020
7E0040
C70040
830080
030100
020100
040200
080400
100400
208800
7F903C
FF1046
002086
002006
00400C
00803C
008007
010003
020003
020003
0400C6
0800F8
ENDCHAR
ENDFONT
